<svg width="10" height="16" viewBox="0 0 10 16" fill="none" xmlns="http://www.w3.org/2000/svg">
<path d="M9.40226 11.3701C9.48086 11.2915 9.48084 11.1641 9.40222 11.0855C9.32363 11.007 9.19628 11.007 9.11772 11.0856L5.83453 14.3686C5.24786 14.9553 4.29672 14.9553 3.71006 14.3686L0.426865 11.0856C0.348309 11.007 0.220955 11.007 0.142373 11.0855C0.0637509 11.1641 0.0637283 11.2915 0.142323 11.3701L3.71004 14.9378C4.2967 15.5245 5.24788 15.5245 5.83455 14.9378L9.40226 11.3701Z" fill="black"/>
<path d="M9.40226 4.62988C9.48086 4.70847 9.48084 4.83591 9.40222 4.91447C9.32363 4.993 9.19628 4.99298 9.11772 4.91442L5.83453 1.63137C5.24786 1.04474 4.29672 1.04474 3.71006 1.63137L0.426865 4.91443C0.348309 4.99298 0.220955 4.993 0.142373 4.91447C0.0637509 4.83591 0.0637283 4.70847 0.142323 4.62988L3.71004 1.06216C4.2967 0.475493 5.24788 0.475493 5.83455 1.06216L9.40226 4.62988Z" fill="black"/>
</svg>
