<svg width="149" height="44" viewBox="0 0 149 44" fill="none" xmlns="http://www.w3.org/2000/svg">
<path fill-rule="evenodd" clip-rule="evenodd" d="M27.2173 28.6326L20.5868 15.8931L15.2228 28.6326H27.2173ZM0 41.6701V42.5392L8.1205 42.7876L11.2992 35.7598L31.1658 35.8343L34.1955 43.0111L42.167 42.4648L20.9097 1.14209L0 41.6701Z" fill="#435F74"/>
<path fill-rule="evenodd" clip-rule="evenodd" d="M48.2015 39.2367C56.6448 46.6122 67.6957 41.9684 70.8495 34.0465C72.861 29.0054 72.2153 6.55603 71.818 0.0993652L68.2917 0.223532H64.8647V0.322864C64.7902 2.8062 64.815 5.28953 64.8647 7.74803V28.0617C64.4673 31.9854 62.2572 35.2634 57.6382 35.4124C54.6085 35.3627 52.9447 34.6177 52.1003 34.4687C50.9332 34.27 50.5855 36.058 48.2015 39.2367Z" fill="#435F74"/>
<path fill-rule="evenodd" clip-rule="evenodd" d="M50.809 39.3856C49.9398 39.3111 49.0458 39.2614 48.1766 39.1869C49.2445 37.3989 50.2875 35.5861 51.3553 33.7981C52.9943 34.8163 53.789 35.0646 55.7011 35.3378C55.4528 36.2814 55.2045 37.2003 54.9561 38.1439C53.5903 38.5413 52.1996 38.9634 50.809 39.3856Z" fill="#435F74"/>
<path fill-rule="evenodd" clip-rule="evenodd" d="M26.0005 13.9314L27.2173 28.6327L20.5868 15.8932L26.0005 13.9314Z" fill="#435F74"/>
<path fill-rule="evenodd" clip-rule="evenodd" d="M127.445 0C139.34 0 149 9.63533 149 21.5305C149 33.4257 139.34 43.061 127.445 43.061C115.55 43.061 105.914 33.4257 105.914 21.5305C105.914 9.63533 115.55 0 127.445 0ZM127.445 7.35067C135.267 7.35067 141.624 13.708 141.624 21.5305C141.624 29.353 135.292 35.7103 127.445 35.7103C119.622 35.7103 113.265 29.353 113.265 21.5305C113.265 13.708 119.622 7.35067 127.445 7.35067Z" fill="#435F74"/>
<path d="M93.5472 0.0993652H86.867V43.0859H93.5472V0.0993652Z" fill="#435F74"/>
</svg>
