<svg width="209" height="49" viewBox="0 0 209 49" fill="none" xmlns="http://www.w3.org/2000/svg">
<path d="M52.1547 36.2113V4.02979H71.1732V8.06654H56.0935V17.9588H69.634V21.9919H56.0935V32.0765H72.2296V36.1096H52.1547V36.2113ZM92.2064 36.2113L85.6721 27.6622L79.1451 36.2113H74.5347L83.465 24.7799L74.0556 12.9673H79.2467L85.6721 21.8031L92.2064 12.9673H97.2959L88.3657 24.7799L96.8167 36.2113H92.2064ZM103.155 32.7517V48.601H99.2163V24.8779C99.2163 18.8264 103.827 12.3901 111.033 12.3901C118.329 12.3901 123.807 17.0004 123.807 24.5875C123.807 31.9857 118.235 37.0753 111.896 37.0753C108.822 37.0753 104.694 35.7285 103.155 32.7517ZM119.676 24.5875C119.676 19.4036 116.314 16.3288 110.361 16.6156C107.479 16.7136 103.061 18.8264 103.445 26.221C103.54 28.6242 106.037 33.1365 111.512 33.1365C116.22 33.1365 119.676 30.4502 119.676 24.5875ZM127.165 36.2113V12.9673H131.107V15.4648C133.028 13.2541 136.004 12.4881 139.174 12.4881V16.7136C138.694 16.6156 133.986 16.042 131.107 22.1879V36.3093H127.165V36.2113ZM140.234 24.5875C140.234 17.8644 145.033 12.3901 151.661 12.3901C159.92 12.3901 162.995 17.8644 162.995 24.8779V26.7982H144.554C144.844 31.2162 148.779 33.5213 152.431 33.4269C155.117 33.3289 156.943 32.5593 158.864 30.639L161.456 33.3289C159.056 35.6341 155.981 37.1696 152.235 37.1696C145.225 37.0753 140.234 31.8877 140.234 24.5875ZM151.371 16.3288C147.625 16.3288 144.746 19.596 144.554 23.1463H158.864C158.864 19.6904 156.366 16.3288 151.371 16.3288ZM165.01 32.9441L167.892 30.3522C167.798 30.3522 169.333 31.8877 169.525 31.9857C170.197 32.5593 170.869 32.9441 171.733 33.1365C174.23 33.8081 178.746 33.6157 179.131 30.1598C179.323 28.2358 177.882 27.183 176.249 26.5114C174.136 25.7418 171.831 25.4514 169.714 24.4931C167.318 23.4367 165.779 21.6107 165.779 18.9208C165.779 11.9109 175.769 10.7565 180.282 14.02C180.474 14.2161 182.685 16.2344 182.587 16.2344L179.708 18.536C178.267 16.808 176.92 15.944 173.849 15.944C172.31 15.944 170.197 16.6156 169.812 18.2492C169.239 20.5543 171.831 21.4183 173.559 21.9011C175.864 22.4747 178.361 22.8595 180.38 24.1083C183.164 25.8362 183.836 29.5826 182.779 32.4649C181.628 35.6341 178.169 36.8829 175.098 36.9772C171.446 37.1696 168.277 36.0189 165.685 33.4269C165.492 33.4269 165.01 32.9441 165.01 32.9441ZM185.277 32.9441L188.159 30.3522C188.061 30.3522 189.6 31.8877 189.793 31.9857C190.464 32.5593 191.136 32.9441 192 33.1365C194.497 33.8081 199.013 33.6157 199.395 30.1598C199.587 28.2358 198.149 27.183 196.516 26.5114C194.403 25.7418 192.098 25.4514 189.981 24.4931C187.586 23.4367 186.046 21.6107 186.046 18.9208C186.046 11.9109 196.033 10.7565 200.549 14.02C200.741 14.2161 202.948 16.2344 202.854 16.2344L199.972 18.536C198.531 16.808 197.187 15.944 194.113 15.944C192.577 15.944 190.464 16.6156 190.08 18.2492C189.502 20.5543 192.098 21.4183 193.826 21.9011C196.131 22.4747 198.629 22.8595 200.643 24.1083C203.431 25.8362 204.103 29.5826 203.046 32.4649C201.892 35.6341 198.436 36.8829 195.361 36.9772C191.713 37.1696 188.544 36.0189 185.948 33.4269C185.756 33.4269 185.277 32.9441 185.277 32.9441ZM204.005 12.9673V10.4697H203.141V9.99053H205.446V10.4697H204.582V12.9673H204.005ZM208.328 12.9673V10.6621L207.464 12.9673H207.272L206.408 10.6621V12.9673H205.929V9.99053H206.695L207.464 12.0053L208.234 9.99053H209V12.9673H208.328Z" fill="#E43225"/>
<path d="M25.4511 36.211L22.5724 28.5259H7.00623L4.12751 36.211H0L12.4878 4.02949H17.0001L29.3899 36.2073L25.4511 36.211ZM14.5969 8.63981L8.74509 24.5872H20.9425L14.5969 8.63981ZM31.9818 36.211V4.02949H36.0186V36.2073L31.9818 36.211ZM42.0701 36.211V13.4498H46.1032V36.211H42.0701ZM49.9439 6.0515V5.8591V5.6667C48.458 5.61429 47.0473 5.00034 45.9963 3.94868C44.9454 2.89701 44.3323 1.48591 44.2809 0L43.7 0C43.6486 1.48591 43.0355 2.89701 41.9845 3.94868C40.9335 5.00034 39.5228 5.61429 38.037 5.6667V6.0515C39.5222 6.10385 40.9324 6.7173 41.9833 7.7682C43.0342 8.81909 43.6477 10.2293 43.7 11.7146H44.2809C44.3332 10.2293 44.9467 8.81909 45.9976 7.7682C47.0485 6.7173 48.4587 6.10385 49.9439 6.0515Z" fill="#F7971D"/>
</svg>
