<svg width="199" height="61" viewBox="0 0 199 61" fill="none" xmlns="http://www.w3.org/2000/svg">
<path d="M123.428 46.9229C111.878 55.4364 95.1363 59.9787 80.7221 59.9787C60.511 59.9787 42.3159 52.5034 28.5506 40.0705C27.4691 39.0928 28.4381 37.7604 29.7359 38.5218C44.5914 47.1651 62.9596 52.365 81.9334 52.365C94.7297 52.365 108.806 49.7174 121.75 44.2234C123.705 43.3928 125.34 45.5039 123.428 46.9229Z" fill="#FF9900"/>
<path d="M128.23 41.4292C126.759 39.543 118.471 40.538 114.75 40.9793C113.617 41.1177 113.444 40.1314 114.465 39.4219C121.066 34.7758 131.899 36.1169 133.162 37.6742C134.425 39.2402 132.833 50.0985 126.63 55.281C125.678 56.077 124.769 55.6531 125.193 54.5975C126.586 51.1194 129.71 43.324 128.23 41.4292Z" fill="#FF9900"/>
<path d="M115.01 6.62178V2.10544C115.01 1.42193 115.529 0.963379 116.152 0.963379H136.372C137.021 0.963379 137.54 1.43059 137.54 2.10544V5.97288C137.531 6.62178 136.986 7.46968 136.017 8.81073L125.539 23.77C129.433 23.6749 133.543 24.2545 137.073 26.2445C137.869 26.6944 138.085 27.352 138.145 28.0009V32.82C138.145 33.4776 137.419 34.2476 136.657 33.8496C130.436 30.5878 122.174 30.2331 115.295 33.8842C114.595 34.2649 113.859 33.5035 113.859 32.846V28.2691C113.859 27.5337 113.868 26.2791 114.603 25.163L126.742 7.75519H116.178C115.529 7.75519 115.01 7.29664 115.01 6.62178Z" fill="#221F1F"/>
<path d="M41.2516 34.8009H35.1C34.5117 34.7577 34.0445 34.3164 34.0012 33.754V2.18292C34.0012 1.55133 34.529 1.04951 35.1866 1.04951H40.9228C41.5198 1.07544 41.9957 1.53402 42.0389 2.10505V6.23205H42.1514C43.6482 2.24348 46.4601 0.383301 50.2497 0.383301C54.0998 0.383301 56.5051 2.24348 58.2355 6.23205C59.7236 2.24348 63.1065 0.383301 66.7317 0.383301C69.31 0.383301 72.1306 1.4475 73.8523 3.83545C75.799 6.49161 75.401 10.3504 75.401 13.7333L75.3924 33.6589C75.3924 34.2905 74.8646 34.8009 74.2071 34.8009H68.0641C67.4498 34.7577 66.9567 34.2645 66.9567 33.6589V16.9259C66.9567 15.5935 67.0778 12.2711 66.7836 11.0079C66.3251 8.88822 64.9494 8.29122 63.1671 8.29122C61.679 8.29122 60.1216 9.2862 59.49 10.8782C58.8584 12.4701 58.919 15.1349 58.919 16.9259V33.6589C58.919 34.2905 58.3912 34.8009 57.7337 34.8009H51.5907C50.9678 34.7577 50.4833 34.2645 50.4833 33.6589L50.4746 16.9259C50.4746 13.4046 51.0543 8.22201 46.6851 8.22201C42.2639 8.22201 42.4369 13.2748 42.4369 16.9259V33.6589C42.4369 34.2905 41.9092 34.8009 41.2516 34.8009Z" fill="#221F1F"/>
<path d="M154.948 0.383301C164.075 0.383301 169.016 8.22201 169.016 18.1891C169.016 27.8188 163.556 35.4585 154.948 35.4585C145.984 35.4585 141.104 27.6198 141.104 17.8517C141.104 8.02301 146.045 0.383301 154.948 0.383301ZM154.999 6.82904C150.466 6.82904 150.18 13.0066 150.18 16.8567C150.18 20.7155 150.12 28.9522 154.948 28.9522C159.715 28.9522 159.94 22.3075 159.94 18.2583C159.94 15.5935 159.827 12.4096 159.023 9.88319C158.33 7.68559 156.955 6.82904 154.999 6.82904Z" fill="#221F1F"/>
<path d="M180.852 34.8009H174.726C174.112 34.7577 173.619 34.2645 173.619 33.6589L173.61 2.07909C173.662 1.49941 174.172 1.04951 174.795 1.04951H180.497C181.033 1.07544 181.475 1.43885 181.596 1.93201V6.75982H181.708C183.43 2.44248 185.844 0.383301 190.092 0.383301C192.852 0.383301 195.543 1.37828 197.273 4.10366C198.882 6.63004 198.882 10.8782 198.882 13.9323V33.806C198.813 34.3597 198.303 34.8009 197.697 34.8009H191.528C190.966 34.7577 190.499 34.3424 190.438 33.806V16.6577C190.438 13.2056 190.836 8.15279 186.588 8.15279C185.091 8.15279 183.715 9.15643 183.032 10.6792C182.167 12.6086 182.054 14.5293 182.054 16.6577V33.6589C182.046 34.2905 181.509 34.8009 180.852 34.8009Z" fill="#221F1F"/>
<path d="M98.8913 19.7211V18.3887C94.4442 18.3887 89.7462 19.3404 89.7462 24.5835C89.7462 27.2397 91.1218 29.0393 93.4838 29.0393C95.2142 29.0393 96.7629 27.9751 97.7406 26.2447C98.9519 24.1163 98.8913 22.1177 98.8913 19.7211ZM105.095 34.715C104.688 35.0784 104.1 35.1043 103.641 34.8621C101.599 33.1663 101.236 32.379 100.111 30.761C96.737 34.2045 94.349 35.2341 89.9711 35.2341C84.7972 35.2341 80.7654 32.0415 80.7654 25.6477C80.7654 20.6555 83.4735 17.2553 87.3236 15.5941C90.6633 14.1232 95.3267 13.8637 98.8913 13.457V12.6611C98.8913 11.1989 99.0038 9.46847 98.1473 8.20528C97.3945 7.07187 95.9583 6.60466 94.6951 6.60466C92.3504 6.60466 90.2566 7.80728 89.7462 10.2991C89.6423 10.8528 89.2357 11.3979 88.682 11.4238L82.7121 10.7836C82.2103 10.6711 81.6565 10.2644 81.795 9.49443C83.1706 2.26136 89.7029 0.0810547 95.5517 0.0810547C98.5452 0.0810547 102.456 0.877038 104.818 3.14386C107.812 5.93845 107.526 9.66746 107.526 13.7252V23.3117C107.526 26.1928 108.72 27.456 109.845 29.0133C110.243 29.567 110.329 30.2333 109.827 30.6485C108.573 31.6954 106.341 33.6421 105.112 34.7323L105.095 34.715Z" fill="#221F1F"/>
<path d="M18.246 19.7211V18.3887C13.7988 18.3887 9.1008 19.3404 9.1008 24.5835C9.1008 27.2397 10.4765 29.0393 12.8385 29.0393C14.5689 29.0393 16.1176 27.9751 17.0952 26.2447C18.3065 24.1163 18.246 22.1177 18.246 19.7211ZM24.4494 34.715C24.0428 35.0784 23.4545 35.1043 22.9959 34.8621C20.954 33.1663 20.5906 32.379 19.4659 30.761C16.0916 34.2045 13.7037 35.2341 9.32575 35.2341C4.15186 35.2341 0.120033 32.0415 0.120033 25.6477C0.120033 20.6555 2.82811 17.2553 6.67824 15.5941C10.0179 14.1232 14.6813 13.8637 18.246 13.457V12.6611C18.246 11.1989 18.3584 9.46847 17.5019 8.20528C16.7492 7.07187 15.3129 6.60466 14.0497 6.60466C11.7051 6.60466 9.61127 7.80728 9.1008 10.2991C8.99697 10.8528 8.59033 11.3979 8.03661 11.4238L2.06673 10.7836C1.56492 10.6711 1.01119 10.2644 1.14962 9.49443C2.52529 2.26136 9.05754 0.0810547 14.9063 0.0810547C17.8999 0.0810547 21.8106 0.877038 24.1726 3.14386C27.1662 5.93845 26.8806 9.66746 26.8806 13.7252V23.3117C26.8806 26.1928 28.0746 27.456 29.1994 29.0133C29.5974 29.567 29.6839 30.2333 29.1821 30.6485C27.9275 31.6954 25.6953 33.6421 24.4667 34.7323L24.4494 34.715Z" fill="#221F1F"/>
</svg>
