<svg width="154" height="41" viewBox="0 0 154 41" fill="none" xmlns="http://www.w3.org/2000/svg">
<path d="M19.3638 9.73332C21.9672 9.73332 24.2937 10.3822 26.3393 11.6839C28.4047 12.9659 30.0229 14.7899 31.1941 17.152C32.3296 19.4192 32.8954 22.0899 32.8954 25.1563C32.8954 28.2227 32.3296 30.7905 31.1941 33.1329C30.0585 35.4752 28.4601 37.3071 26.3947 38.6286C24.3095 39.966 21.9672 40.6386 19.3638 40.6386C17.4646 40.6386 15.6801 40.2469 14.0065 39.4674C12.3328 38.688 10.9005 37.588 9.70958 36.1755V39.9383H0V0H9.70958V14.1687C10.9005 12.7562 12.3328 11.6681 14.0065 10.9045C15.6801 10.125 17.4646 9.73332 19.3638 9.73332ZM16.4635 32.575C17.8405 32.575 19.067 32.2584 20.1472 31.6254C21.2273 30.9923 22.0741 30.11 22.6873 28.9744C23.3006 27.8587 23.6092 26.5846 23.6092 25.1523C23.6092 23.72 23.3006 22.4935 22.6873 21.3579C22.0741 20.2224 21.2273 19.34 20.1472 18.707C19.067 18.0739 17.8405 17.7574 16.4635 17.7574C15.1618 17.7574 13.9986 18.0739 12.9778 18.707C11.953 19.3202 11.1537 20.1867 10.58 21.3025C10.0024 22.4381 9.71353 23.72 9.71353 25.1523C9.71353 26.5846 10.0024 27.8666 10.58 29.0021C11.1577 30.1179 11.9569 30.9923 12.9778 31.6254C14.0025 32.2584 15.1618 32.575 16.4635 32.575Z" fill="black"/>
<path d="M34.2249 39.9383V0H43.9344V39.9383H34.2249Z" fill="black"/>
<path d="M46.6884 39.9389V10.4026H56.3425V39.9389H46.6884Z" fill="black"/>
<path d="M77.3126 9.7334C79.378 9.7334 81.2376 10.2161 82.8914 11.1855C84.5453 12.1351 85.851 13.4724 86.7966 15.2015C87.7067 16.9503 88.1656 18.9286 88.1656 21.1404V39.9383H78.9032V23.3165C78.9032 22.2364 78.6895 21.2789 78.2622 20.444C77.8547 19.5894 77.2691 18.9286 76.5054 18.4657C75.7616 18.0028 74.8872 17.7693 73.8822 17.7693C72.9326 17.7693 72.0582 18.0028 71.2589 18.4657C70.4597 18.9128 69.8346 19.5261 69.3875 20.3055C68.9206 21.0494 68.6911 21.9238 68.6911 22.9288L68.6357 39.9423H58.9815V10.406H68.6357V13.781C69.5457 12.5149 70.7644 11.5297 72.2916 10.8254C73.8149 10.1014 75.4925 9.73735 77.3126 9.73735V9.7334Z" fill="black"/>
<path d="M109.5 23.3164L120.464 39.9383H109.5L103.082 29.4809L100.126 32.9113V39.9383H90.4169V0H100.126V22.0622L109.444 10.4059H120.408L109.5 23.3204V23.3164Z" fill="black"/>
<path d="M46.6804 0.00439453H56.3662V7.57739H46.6804V0.00439453Z" fill="black"/>
<path d="M122.007 39.847V10.3108H131.661V39.847H122.007Z" fill="#0C831F"/>
<path d="M152.073 31.5111L154 37.7309C153.126 38.5657 152.018 39.2463 150.68 39.7686C149.359 40.2908 148.065 40.548 146.803 40.548C144.979 40.548 143.353 40.1484 141.92 39.3492C140.488 38.5301 139.372 37.3985 138.573 35.9464C137.774 34.5339 137.374 32.9078 137.374 31.0679V18.0427H133.497V10.3154H137.374V0.00439453H146.637V10.3154H152.746V18.0427H146.637V29.2835C146.637 30.2331 146.886 31.0046 147.388 31.5981C147.891 32.1916 148.532 32.4923 149.315 32.4923C149.873 32.4923 150.395 32.4092 150.878 32.243C151.361 32.0769 151.761 31.8355 152.077 31.519L152.073 31.5111Z" fill="#0C831F"/>
<path d="M121.932 0.00439453H131.617V7.57739H121.932V0.00439453Z" fill="#0C831F"/>
</svg>
