<svg width="152" height="61" viewBox="0 0 152 61" fill="none" xmlns="http://www.w3.org/2000/svg">
<path d="M19.6551 13.2876C8.93393 13.2876 0 17.8354 0 31.558C0 42.4292 6.0075 49.2748 19.9314 49.2748C36.3208 49.2748 37.3713 38.4786 37.3713 38.4786H29.4301C29.4301 38.4786 27.7276 44.2919 19.4472 44.2919C12.703 44.2919 7.85249 39.736 7.85249 33.3508H38.2023V29.3434C38.2023 23.0261 34.1919 13.2876 19.6551 13.2876ZM19.3777 18.4089C25.7974 18.4089 30.1739 22.3417 30.1739 28.2361H8.02791C8.02791 21.9782 13.7408 18.4089 19.3777 18.4089Z" fill="#E53238"/>
<path d="M38.1967 0V42.3841C38.1967 44.7898 38.0248 48.168 38.0248 48.168H45.599C45.599 48.168 45.8712 45.742 45.8712 43.5243C45.8712 43.5243 49.6134 49.3792 59.789 49.3792C70.504 49.3792 77.7826 41.9394 77.7826 31.2817C77.7826 21.3662 71.0972 13.3915 59.8062 13.3915C49.2332 13.3915 45.9478 19.1009 45.9478 19.1009V0H38.1967ZM57.8512 18.6339C65.1278 18.6339 69.7552 24.0346 69.7552 31.2817C69.7552 39.0531 64.4109 44.1368 57.9035 44.1368C50.1372 44.1368 45.9478 38.0725 45.9478 31.3506C45.9478 25.0871 49.7067 18.6339 57.8512 18.6339Z" fill="#0064D2"/>
<path d="M96.6072 13.2876C80.4784 13.2876 79.4441 22.1186 79.4441 23.5301H87.472C87.472 23.5301 87.8928 18.3744 96.0535 18.3744C101.356 18.3744 105.466 20.8019 105.466 25.4679V27.1288H96.0535C83.5584 27.1288 76.9526 30.7843 76.9526 38.2023C76.9526 45.5022 83.056 49.474 91.3044 49.474C102.546 49.474 106.167 43.2627 106.167 43.2627C106.167 45.7334 106.357 48.168 106.357 48.168H113.493C113.493 48.168 113.217 45.1503 113.217 43.2196V26.5321C113.217 15.5899 104.391 13.2876 96.6072 13.2876ZM105.466 32.1117V34.3263C105.466 37.2147 103.683 44.3959 93.19 44.3959C87.4441 44.3959 84.9805 41.5283 84.9805 38.2018C84.9805 32.1507 93.2767 32.1117 105.466 32.1117Z" fill="#F5AF02"/>
<path d="M108.894 14.6733H117.925L130.887 40.6411L143.818 14.6733H152L128.445 60.9041H119.863L126.66 48.0165L108.894 14.6733Z" fill="#86B817"/>
</svg>
