<svg width="138" height="66" viewBox="0 0 138 66" fill="none" xmlns="http://www.w3.org/2000/svg">
<path d="M14.7996 23.6363V5.13795C14.7996 4.45251 14.868 4.04141 16.0333 4.04141H31.7223C34.4633 4.04141 35.9705 6.37125 37.067 10.7558L37.9576 14.2505H40.6294C41.1084 4.31656 41.5191 0 41.5191 0C41.5191 0 34.8052 0.753412 30.8313 0.753412H10.7582L0 0.410693V3.2884L3.63193 3.97343C6.16692 4.45332 6.78235 5.00078 6.98953 7.33103C6.98953 7.33103 7.19548 14.1822 7.19548 25.4874C7.19548 36.7911 6.98953 43.5746 6.98953 43.5746C6.98953 45.6297 6.16692 46.3832 3.63193 46.8643L0 47.5497V50.4258L10.7582 50.0839H28.7087C32.7509 50.0839 42.137 50.4258 42.137 50.4258C42.3417 47.9588 43.713 36.7911 43.9186 35.5594H41.3836L38.7114 41.6571C36.5872 46.4519 33.5047 46.7951 30.0783 46.7951H19.8692C16.4432 46.7951 14.7988 45.4246 14.7988 42.4789V26.8575C14.7988 26.8575 22.2666 26.8575 24.8696 27.0635C26.7883 27.201 27.9524 27.7489 28.5699 30.4206L29.3925 33.9834H32.3369L32.1322 25.0071L32.5429 15.9641H29.5976L28.6391 19.9376C28.0216 22.5409 27.6113 23.0216 24.9388 23.2948C21.9247 23.6383 14.7984 23.5695 14.7984 23.5695V23.6375H14.7996V23.6363ZM55.4278 7.05669C54.4684 11.3045 53.509 14.5929 50.1518 16.7855C48.0967 18.1552 46.0408 18.6343 45.2199 18.703V21.3064H51.3172V42.3397C51.3172 48.2327 55.223 51.1108 60.4294 51.1108C64.472 51.1108 68.6506 49.398 70.0898 45.8345L68.6506 43.9845C67.9651 45.1498 65.7741 46.8622 63.0331 46.8622C60.0191 46.8622 58.3747 44.8063 58.3747 39.6004V21.0337L68.5154 21.7879L69.0629 17.1278L58.3751 17.5394V7.12466L55.4278 7.05669ZM77.0785 39.4091L74.4752 39.4775C74.6119 40.9843 74.6811 42.9035 74.6811 44.6846C74.6811 46.5346 74.6128 48.2474 74.4752 49.0691C74.4752 49.0691 79.6823 50.9859 84.9578 50.9859C92.0833 50.9859 97.7703 47.5603 97.7703 40.8459C97.7703 29.3371 80.5049 31.0503 80.5049 23.307C80.5049 20.0874 83.3822 18.8536 86.5339 18.8536C89.0005 18.8536 91.0556 19.7442 91.4667 21.0471L93.1798 26.1855L95.7152 26.0487C95.9212 23.3078 96.0575 20.1561 96.4691 17.6216C94.276 16.6622 89.6851 16.1131 86.8098 16.1131C80.0938 16.1131 74.6824 19.0596 74.6824 25.6372C74.6824 37.0784 91.5359 34.749 91.5359 43.1774C91.5359 46.1906 89.6851 48.3149 85.5069 48.3149C81.6711 48.3149 79.7519 46.3286 78.9997 44.3407L77.0785 39.4091ZM118.373 47.3242C114.406 58.404 109.551 61.2744 105.175 61.2744C103.327 61.2744 102.439 60.453 102.164 59.1558L101.139 53.82L98.2657 53.9568C97.7186 57.1031 97.1716 60.5922 96.4202 63.4638C98.1301 64.7614 101.001 65.4468 103.259 65.4468C107.979 65.4468 115.159 64.8302 121.723 49.2385L132.734 23.2516C133.624 21.131 133.965 20.9258 136.564 19.8993L138 19.3535V16.9597L131.503 17.3016L124.527 16.9597V19.3535L126.304 19.8993C128.082 20.4476 128.904 21.131 128.904 22.3623C128.904 22.9773 128.698 23.5931 128.355 24.5496C127.33 27.1502 120.969 42.6051 119.262 45.8886L120.969 45.272C117.959 37.818 113.38 25.3702 112.695 23.252C112.558 22.8413 112.49 22.4994 112.49 22.1559C112.49 21.0622 113.242 20.1728 114.884 19.8313L117.141 19.3539V16.9601L107.77 17.3021L100.316 16.9601V19.3539L101.548 19.7638C103.257 20.3108 103.668 20.7899 104.694 23.1832C110.368 36.1777 113.037 43.2889 116.66 52.5908L118.373 47.3242Z" fill="#F27224"/>
</svg>
