<svg width="267" height="71" viewBox="0 0 267 71" fill="none" xmlns="http://www.w3.org/2000/svg">
<g clip-path="url(#clip0_274_72)">
<path d="M266.948 12.1979C266.918 12.0984 266.888 11.9989 266.849 11.8994C243.276 11.9094 219.713 11.8994 196.15 11.9094C196.091 11.979 196.051 12.0487 196.041 12.1382C196.041 30.4173 196.041 48.6863 196.031 66.9654C196.18 67.9405 196.717 68.8261 197.434 69.4928C197.464 69.5028 197.534 69.5124 197.563 69.5226C197.932 69.9105 198.459 70.0998 198.956 70.2788C199.325 70.259 199.683 70.4181 200.051 70.3783H229.305C229.584 70.3684 229.872 70.4181 230.141 70.3088C230.151 70.2692 230.161 70.1993 230.171 70.1595C230.181 70.1098 230.191 70.0003 230.201 69.9407C230.828 66.4382 231.435 62.9256 232.102 59.4231L232.161 58.9754C229.455 58.9652 226.738 58.9754 224.032 58.9652C223.375 58.9454 222.699 58.9652 222.042 58.8855C220.917 58.8358 219.783 58.8756 218.659 58.7662C217.266 58.7662 215.882 58.6367 214.489 58.6367C213.395 58.5273 212.29 58.5672 211.186 58.5174C210.47 58.4281 209.733 58.4677 209.007 58.4377C207.823 58.3085 206.619 58.3981 205.435 58.2687C204.181 58.2788 202.927 58.1692 201.673 58.1392C201.683 58.1293 201.693 58.0895 201.693 58.0795C202.111 58.0895 202.519 58.0597 202.937 58.0498C203.862 57.9303 204.798 58.01 205.723 57.8805C206.688 57.8805 207.644 57.7513 208.609 57.7513C209.465 57.6318 210.33 57.7015 211.186 57.582C212.191 57.582 213.176 57.4527 214.181 57.4427C215.007 57.3332 215.843 57.3929 216.669 57.2835C217.634 57.2934 218.589 57.1442 219.554 57.1542C220.5 57.0446 221.465 57.0743 222.41 56.9748C222.321 56.6069 222.251 56.2387 222.171 55.8703C222.102 55.6416 221.823 55.6913 221.644 55.6614C219.485 55.3527 217.335 55.0445 215.186 54.746C215.325 54.6364 215.514 54.6861 215.674 54.6663C217.345 54.5368 219.007 54.3876 220.679 54.2683C221.057 54.2485 221.425 54.1787 221.803 54.1688C221.634 53.6515 221.535 53.0842 221.306 52.6067C217.734 52.0594 214.161 51.5718 210.599 50.9846C211.524 50.8354 212.46 50.7658 213.385 50.6663L213.465 50.6364C216.42 50.3277 219.385 49.9794 222.341 49.6911C226.092 49.6713 229.833 49.6809 233.585 49.6911C233.704 49.6713 233.913 49.7307 233.933 49.5616C234.241 47.9497 234.54 46.3378 234.848 44.7257C235.276 42.487 235.953 40.2779 236.997 38.2381C238.639 34.9544 241.236 32.1683 244.4 30.3176C247.356 28.5862 250.779 27.7503 254.182 27.5911C255.286 27.4916 256.401 27.5215 257.495 27.6608C258.212 27.8299 258.948 28.029 259.515 28.5165C259.983 28.8946 260.262 29.4519 260.471 30.0091C260.928 31.3325 261.187 32.7057 261.406 34.0888C261.416 34.646 261.515 35.2729 261.217 35.7804C260.938 36.2779 260.381 36.5167 259.854 36.666C257.933 37.1635 255.923 36.6957 254.003 37.1635C252.421 37.5018 250.948 38.3774 249.943 39.6412C248.759 41.1137 248.132 42.9444 247.784 44.7756C247.515 46.4075 247.177 48.0393 246.908 49.6811C248.799 49.6913 250.699 49.6712 252.6 49.6913C253.356 49.6913 254.132 50.1091 254.441 50.8254C254.839 51.741 254.749 52.7759 254.62 53.741C254.46 54.8256 254.202 55.9002 253.714 56.8952C253.306 57.741 252.63 58.5172 251.704 58.8158C251.227 59.0048 250.709 58.965 250.202 58.965C248.53 58.965 246.858 58.9848 245.187 58.965C244.918 60.189 244.739 61.4427 244.5 62.6865C244.062 65.1044 243.634 67.5323 243.197 69.9603C243.187 70.04 243.177 70.2091 243.177 70.2986C243.963 70.3384 244.749 70.2986 245.535 70.3184C251.366 70.3184 257.207 70.3083 263.048 70.3184C263.675 70.3384 264.311 70.1892 264.859 69.8806C265.187 69.7613 265.386 69.4726 265.675 69.3135C265.953 69.1543 266.033 68.8262 266.272 68.617C266.53 68.1593 266.799 67.6818 266.819 67.1442C266.849 67.1442 266.928 67.1343 266.968 67.1244C266.938 48.8157 266.968 30.5068 266.948 12.1979Z" fill="url(#paint0_linear_274_72)" stroke="#FCD109" stroke-width="0.00935346"/>
<path d="M205.315 0.158245C206.161 -0.110419 207.046 0.0686902 207.912 0.00898725C224.161 0.0189377 240.41 0.00898725 256.659 0.00898725C257.624 -0.0308147 258.47 0.516462 259.366 0.795076C260.082 1.08364 260.829 1.3125 261.545 1.62097C261.694 1.68067 261.804 1.81003 261.913 1.91948C261.903 3.23294 261.913 4.55636 261.913 5.87977C261.923 6.22804 261.863 6.58626 261.983 6.92457C262.192 6.95443 262.301 7.11363 262.441 7.24299C263.097 7.5415 263.654 8.02908 264.251 8.4271C265.147 9.06393 266.102 9.62116 266.978 10.2779C267.017 10.5366 266.988 10.8053 266.908 11.0441C266.819 11.3227 266.878 11.6212 266.848 11.8998C243.276 11.9098 219.713 11.8998 196.15 11.9098C196.1 11.5814 196.19 11.253 196.051 10.9446C196.031 10.6859 195.941 10.3475 196.19 10.1684C197.185 9.4719 198.24 8.84502 199.215 8.10868C199.822 7.72061 200.409 7.32259 200.996 6.92457C201.115 6.72556 201.075 6.4768 201.075 6.25789C201.075 4.81507 201.075 3.37225 201.085 1.92943C201.424 1.49161 202.011 1.44186 202.478 1.22295C203.424 0.864729 204.379 0.516462 205.315 0.158245ZM205.374 0.327403C204.101 0.814977 202.817 1.28265 201.544 1.77022C201.374 1.80007 201.285 1.94933 201.195 2.07869C201.205 2.15829 201.215 2.2976 201.215 2.3772C201.205 3.57126 201.215 4.76532 201.205 5.95938C201.215 6.25789 201.175 6.55641 201.285 6.82507C201.155 6.95443 201.016 7.08378 200.857 7.18329C199.414 8.11863 198.021 9.13358 196.578 10.059C196.329 10.2082 196.051 10.4072 196.13 10.7356C196.081 10.9147 196.17 11.064 196.359 11.0142C199.484 10.9943 202.598 11.0341 205.723 10.9844C210.37 10.9844 215.007 10.9943 219.653 10.9844L219.723 10.9545C219.932 11.0043 220.141 10.9844 220.36 10.9844C228.778 10.9844 237.196 10.9943 245.624 10.9844C248.271 10.9943 250.928 10.9844 253.584 10.9844C257.962 10.9844 262.351 11.0242 266.729 11.0043C266.858 10.9744 266.898 10.8849 266.848 10.7257C266.838 10.5665 266.898 10.3475 266.729 10.248C266.032 9.91967 265.435 9.4122 264.769 9.01418C264.53 8.81517 264.221 8.70571 264.042 8.43705C263.356 8.04898 262.719 7.57136 262.042 7.14349C261.913 7.06388 261.813 6.93452 261.704 6.82507C261.764 6.61611 261.784 6.38725 261.784 6.16834C261.774 4.90463 261.784 3.64091 261.774 2.3772C261.803 2.17819 261.793 1.94933 261.614 1.81998C260.42 1.3921 259.236 0.934382 258.052 0.496561C257.684 0.317452 257.276 0.217947 256.878 0.158245H206.021C205.802 0.168195 205.593 0.27765 205.374 0.327403Z" fill="#F8F3B5" stroke="#F8F3B5" stroke-width="0.00935346"/>
<path d="M201.215 2.37598C202.091 2.74414 203.026 2.9531 203.912 3.31132C204.389 3.50038 204.539 4.01781 204.748 4.43573C204.538 4.64469 204.29 4.81385 204.041 4.97305C203.126 5.58998 202.19 6.18701 201.285 6.82384C201.175 6.55518 201.215 6.25667 201.205 5.95815C201.215 4.76409 201.205 3.57003 201.215 2.37598ZM259.077 3.31132C259.963 2.96306 260.888 2.72424 261.774 2.37598C261.784 3.63969 261.774 4.9034 261.784 6.16711C261.784 6.38602 261.764 6.61488 261.704 6.82384C260.928 6.28652 260.142 5.77904 259.366 5.25167C258.988 4.97305 258.57 4.76409 258.232 4.42578C258.44 4.00786 258.6 3.50038 259.077 3.31132Z" fill="#F7B402" stroke="#F7B402" stroke-width="0.00935346"/>
<path d="M216.4 3.72064C217.494 3.46192 218.718 4.43707 218.629 5.58138C218.639 6.70578 217.454 7.62123 216.37 7.36252C215.932 7.21326 215.514 6.9844 215.245 6.59633C214.897 6.06895 214.817 5.36247 215.096 4.78534C215.295 4.22811 215.833 3.84999 216.4 3.72064ZM244.788 4.34752C245.246 3.84004 245.973 3.55148 246.649 3.73059C247.157 3.87985 247.654 4.20821 247.873 4.70574C248.311 5.56148 247.973 6.71573 247.117 7.16351C246.36 7.58143 245.405 7.38242 244.828 6.77544C244.241 6.10875 244.201 5.0142 244.788 4.34752Z" fill="#BDA727" stroke="#BDA727" stroke-width="0.00935346"/>
<path d="M204.041 4.97452C204.29 4.81532 204.539 4.64616 204.748 4.4372L204.817 4.50685C204.887 5.02428 204.837 5.55165 204.857 6.06908C204.827 7.62135 204.887 9.18358 204.817 10.7359C201.922 10.7359 199.026 10.716 196.13 10.7359C196.051 10.4075 196.33 10.2085 196.578 10.0592C198.021 9.13383 199.414 8.11888 200.857 7.18353C201.016 7.08403 201.155 6.95467 201.285 6.82531C202.19 6.18848 203.126 5.59145 204.041 4.97452ZM258.132 4.77551C258.132 4.64616 258.162 4.5367 258.231 4.42725C258.57 4.76556 258.988 4.97452 259.366 5.25314C260.142 5.78051 260.928 6.28799 261.704 6.82531C261.813 6.93477 261.913 7.06413 262.042 7.14373C262.719 7.5716 263.356 8.04922 264.042 8.43729C264.221 8.70596 264.53 8.81541 264.769 9.01442C265.435 9.41244 266.032 9.91991 266.729 10.2483C266.898 10.3478 266.838 10.5667 266.848 10.7259C263.953 10.7359 261.067 10.716 258.172 10.7359C258.122 10.3378 258.152 9.93982 258.142 9.55175C258.142 7.95967 258.122 6.36759 258.132 4.77551Z" fill="#F7E62D" stroke="#F7E62D" stroke-width="0.00935346"/>
<path d="M266.849 10.7256C263.953 10.7356 261.067 10.7157 258.172 10.7356C258.122 10.3375 258.152 9.93953 258.142 9.55146C258.142 7.95938 258.122 6.36731 258.132 4.77523C258.132 4.64587 258.162 4.53642 258.231 4.42696C258.44 4.00904 258.599 3.50157 259.077 3.31251C259.963 2.96424 260.888 2.72543 261.774 2.37716C261.804 2.17815 261.794 1.94929 261.614 1.81993C260.42 1.39206 259.236 0.934341 258.052 0.49652C257.684 0.317411 257.276 0.217906 256.878 0.158203H206.021C205.802 0.168154 205.593 0.277609 205.374 0.327361C204.101 0.814935 202.817 1.28261 201.543 1.77018C201.374 1.80003 201.284 1.94929 201.195 2.07865C201.205 2.15825 201.215 2.29756 201.215 2.37716C202.091 2.74533 203.026 2.95429 203.911 3.31251C204.389 3.50157 204.538 4.01899 204.747 4.43691L204.817 4.50657C204.886 5.02399 204.837 5.55137 204.857 6.06879C204.827 7.62107 204.886 9.18329 204.817 10.7356C201.921 10.7356 199.026 10.7157 196.13 10.7356C196.08 10.9147 196.17 11.0639 196.359 11.0142C199.483 10.9943 202.598 11.0341 205.722 10.9843C210.369 10.9843 215.006 10.9943 219.653 10.9843L219.723 10.9545C219.932 11.0042 220.141 10.9843 220.359 10.9843C228.778 10.9843 237.196 10.9943 245.624 10.9843C248.271 10.9943 250.927 10.9843 253.584 10.9843C257.962 10.9843 262.351 11.0241 266.729 11.0042C266.858 10.9744 266.898 10.8848 266.849 10.7256ZM215.096 4.78518C215.295 4.22795 215.832 3.84983 216.4 3.72048C217.494 3.46176 218.718 4.43691 218.628 5.58122C218.638 6.70562 217.454 7.62107 216.37 7.36235C215.932 7.2131 215.514 6.98424 215.245 6.59617C214.897 6.06879 214.817 5.36231 215.096 4.78518ZM244.788 4.34736C245.246 3.83988 245.972 3.55132 246.649 3.73043C247.157 3.87968 247.654 4.20805 247.873 4.70558C248.311 5.56132 247.972 6.71557 247.117 7.16334C246.36 7.58126 245.405 7.38226 244.828 6.77528C244.241 6.10859 244.201 5.01404 244.788 4.34736Z" fill="url(#paint1_radial_274_72)" stroke="#FCD109" stroke-width="0.00935346"/>
<path d="M247.325 15.098C247.464 15.1278 246.6 14.2675 246.769 14.2277C246.928 14.2476 247.531 13.779 248.261 14.1613C248.991 14.5436 248.81 15.4383 248.727 15.77C248.629 16.1649 248.377 16.4168 248.178 16.6158C248.069 16.7054 247.823 16.8447 247.674 16.8347C247.764 16.3472 247.475 16.2676 247.455 15.77L247.325 15.098Z" fill="url(#paint2_linear_274_72)" stroke="#FCD109" stroke-width="0.00935346"/>
<path d="M215.516 15.6373C215.496 16.1348 215.207 16.2144 215.297 16.702C215.147 16.7119 214.902 16.5726 214.793 16.4831C214.594 16.2841 214.342 16.0321 214.244 15.6373C214.161 15.3056 213.98 14.411 214.71 14.0286C215.439 13.6462 216.043 14.1148 216.202 14.095C216.371 14.1348 215.507 14.9951 215.646 14.9652L215.516 15.6373Z" fill="url(#paint3_linear_274_72)" stroke="#FCD109" stroke-width="0.00935346"/>
<path d="M246.022 21.4722C246.172 21.3423 246.271 21.3423 246.47 21.3423C245.276 23.9294 243.883 26.5165 241.789 28.5308C241.565 28.7308 241.328 28.9162 241.08 29.0859C240.84 29.2613 240.605 29.4259 240.372 29.5935C240.143 29.7524 239.915 29.9122 239.694 30.0789C239.127 30.3874 238.629 30.8153 238.002 31.0043C236.858 31.5516 235.624 31.9198 234.38 32.1785C233.893 32.2582 233.395 32.3775 232.898 32.3874C232.281 32.5666 231.624 32.4372 230.997 32.477C230.649 32.5367 230.34 32.3377 230.002 32.3775C229.709 32.336 229.416 32.2862 229.125 32.2281C228.829 32.1678 228.536 32.0981 228.245 32.0193C223.684 30.5962 219.206 27.1136 217.901 22.4035C217.843 22.0863 217.813 21.7644 217.813 21.4418C217.952 21.7204 218.096 21.997 218.246 22.2711C220.101 26.3175 223.783 29.5017 228.133 30.4618C228.486 30.6228 228.868 30.5664 229.206 30.7057C229.515 30.7057 229.813 30.6957 230.112 30.7952C231.137 30.815 232.161 30.8052 233.186 30.8052C233.325 30.8151 233.455 30.7455 233.594 30.7156C235.302 30.6577 236.976 30.1918 238.534 29.4854C238.846 29.3441 239.153 29.1931 239.455 29.0339C239.719 28.8949 239.977 28.7442 240.228 28.5824C240.475 28.4235 240.714 28.2543 240.946 28.0753C242.788 26.616 244.381 24.7255 245.462 22.5514C245.667 22.1601 245.856 21.7978 246.022 21.4722Z" fill="#BDA727" stroke="#BDA727" stroke-width="0.00935346"/>
<path d="M244.4 30.3192C247.355 28.5878 250.778 27.752 254.182 27.5928C255.286 27.4933 256.4 27.5231 257.495 27.6624C258.211 27.8316 258.948 28.0306 259.515 28.5182C259.226 28.5381 258.948 28.4087 258.659 28.3689C257.843 28.2097 256.997 28.2694 256.172 28.2495C253.773 28.2495 251.356 28.4386 249.037 29.0953C247.823 29.4635 246.609 29.8913 245.505 30.5282C243.594 31.5829 241.873 32.976 240.48 34.6477C237.992 37.5036 236.529 41.1254 235.823 44.8172C235.485 46.7971 235.096 48.7672 234.788 50.7573C234.29 50.8071 233.783 50.7773 233.285 50.7773C231.096 50.7674 228.907 50.7573 226.718 50.7377C226.25 50.7573 225.793 50.6481 225.325 50.6778C221.345 50.6976 217.365 50.6678 213.385 50.6678L213.464 50.6379C216.419 50.3292 219.385 49.981 222.34 49.6926C226.091 49.6728 229.833 49.6825 233.584 49.6926C233.703 49.6728 233.912 49.7322 233.932 49.5631C234.241 47.9513 234.539 46.3394 234.848 44.7272C235.276 42.4887 235.952 40.2795 236.997 38.2397C238.639 34.956 241.236 32.1699 244.4 30.3192Z" fill="#0D69B3" stroke="#0D69B3" stroke-width="0.00935346"/>
<path d="M249.037 29.0938C251.356 28.4371 253.774 28.248 256.172 28.248C256.998 28.2679 257.844 28.2082 258.66 28.3675C258.948 28.4073 259.227 28.5366 259.515 28.5167C259.983 28.8948 260.262 29.4521 260.471 30.0093C260.928 31.3327 261.187 32.7059 261.406 34.089C261.416 34.6462 261.515 35.2731 261.217 35.7806C260.938 36.2781 260.381 36.5169 259.854 36.6662C257.933 37.1637 255.923 36.6959 254.003 37.1637C252.421 37.502 250.948 38.3775 249.943 39.6414C248.759 41.1139 248.132 42.9446 247.784 44.7758C247.515 46.4077 247.177 48.0395 246.908 49.6813C246.789 50.0496 246.719 50.4476 246.649 50.8357C248.53 50.8657 250.411 50.8357 252.291 50.8555C253.007 50.8357 253.724 50.8754 254.441 50.8256C254.839 51.7411 254.749 52.7761 254.62 53.7412C254.46 54.8258 254.202 55.9003 253.714 56.8954C253.306 57.7412 252.63 58.5174 251.704 58.8159C251.227 59.005 250.709 58.9652 250.202 58.9652C248.53 58.9652 246.858 58.985 245.187 58.9652C244.918 60.1892 244.739 61.4429 244.5 62.6867C244.062 65.1045 243.634 67.5325 243.196 69.9605C243.187 70.0402 243.177 70.2092 243.177 70.2988V70.3087C238.828 70.3087 234.49 70.3189 230.141 70.3087C230.151 70.2691 230.161 70.1993 230.171 70.1595C230.181 70.1097 230.191 70.0003 230.201 69.9407C230.211 70.0204 230.221 70.1696 230.231 70.2392C230.5 70.2691 230.987 70.4083 231.057 70.0204C231.734 66.3585 232.361 62.6768 233.057 59.0149C232.789 58.9552 232.51 58.9552 232.231 59.005C232.192 59.1443 232.152 59.2835 232.102 59.4228L232.162 58.975C229.455 58.9649 226.739 58.975 224.032 58.9649C223.375 58.9453 222.699 58.9649 222.042 58.8854C220.918 58.8356 219.783 58.8754 218.659 58.7659C217.266 58.7659 215.883 58.6366 214.49 58.6366C213.395 58.5272 212.291 58.5669 211.186 58.5171C210.47 58.4278 209.733 58.4674 209.007 58.4376C207.823 58.3082 206.619 58.398 205.435 58.2684C204.181 58.2785 202.927 58.1689 201.674 58.1391C201.684 58.1292 201.694 58.0894 201.694 58.0794C202.112 58.0894 202.519 58.0594 202.937 58.0494C203.863 57.9301 204.798 58.0096 205.724 57.8804C206.689 57.8804 207.644 57.7509 208.609 57.7509C209.465 57.6316 210.331 57.7012 211.186 57.5819C212.191 57.5819 213.176 57.4524 214.181 57.4426C215.007 57.3331 215.843 57.3928 216.669 57.2834C217.634 57.2933 218.59 57.1441 219.555 57.1539C220.5 57.0442 221.465 57.0742 222.41 56.9747C222.321 56.6066 222.251 56.2386 222.172 55.8702C222.102 55.6412 221.823 55.691 221.644 55.6612C219.485 55.3526 217.336 55.0442 215.186 54.7457C215.326 54.636 215.515 54.6858 215.674 54.6662C217.346 54.5365 219.007 54.3873 220.679 54.2682C221.057 54.2482 221.425 54.1786 221.804 54.1687C221.634 53.6511 221.535 53.0841 221.306 52.6063C217.734 52.0591 214.162 51.5715 210.599 50.9845C211.525 50.8352 212.46 50.7655 213.385 50.666C217.366 50.666 221.346 50.6959 225.326 50.6759C225.793 50.6462 226.251 50.7556 226.719 50.7358C228.908 50.7556 231.097 50.7658 233.286 50.7754C233.784 50.7754 234.291 50.8054 234.789 50.7556C235.097 48.7655 235.485 46.7953 235.824 44.8153C236.53 41.1235 237.993 37.5017 240.481 34.646C241.874 32.9742 243.595 31.5812 245.506 30.5264C246.61 29.8899 247.823 29.462 249.037 29.0938Z" fill="#107BD4" stroke="#107BD4" stroke-width="0.00935346"/>
<path d="M246.908 49.6812C248.798 49.6913 250.699 49.6712 252.6 49.6913C253.356 49.6913 254.132 50.1091 254.44 50.8255C253.724 50.8752 253.008 50.8356 252.291 50.8554C250.41 50.8356 248.53 50.8656 246.649 50.8356C246.719 50.4474 246.788 50.0494 246.908 49.6812ZM232.231 59.0049C232.51 58.9551 232.788 58.9551 233.057 59.0148C232.36 62.6767 231.733 66.3584 231.057 70.0202C230.987 70.4081 230.499 70.269 230.231 70.2391C230.221 70.1695 230.211 70.0202 230.201 69.9405C230.828 66.4381 231.435 62.9254 232.102 59.423C232.151 59.2834 232.191 59.1443 232.231 59.0049Z" fill="#0D69B3" stroke="#0D69B3" stroke-width="0.00935346"/>
<path d="M247.778 15.3775C247.698 15.2282 247.689 15.0491 247.689 14.88L247.609 14.8899C247.49 14.4521 247.122 14.0342 246.644 14.0143C246.285 13.9844 245.838 13.9944 245.629 14.3327C245.231 14.87 245.42 15.5566 245.4 16.1636C245.4 16.2034 245.41 16.273 245.41 16.3129C245.41 16.7208 245.36 17.1188 245.291 17.5169C245.231 17.6363 245.201 17.7656 245.201 17.9049C245.032 18.8403 244.694 19.7657 244.236 20.6115C244.147 20.7309 244.077 20.8602 244.047 20.9995C243.749 21.517 243.39 21.9946 243.022 22.4722C242.962 22.522 242.913 22.5817 242.863 22.6414C242.604 22.9598 242.326 23.2284 242.037 23.5071C241.967 23.5469 241.918 23.5966 241.858 23.6364C241.519 23.9648 241.141 24.2732 240.733 24.522C240.684 24.5519 240.634 24.5917 240.574 24.6315C238.027 26.3131 234.932 27.0096 231.917 27.0395C229.36 27.1191 226.783 26.5718 224.474 25.4673C224.434 25.4474 224.335 25.4076 224.295 25.3877C223.907 25.1787 223.509 24.9996 223.151 24.7409C223.071 24.7011 222.991 24.6514 222.902 24.6116C222.534 24.3926 222.185 24.1538 221.857 23.8752C221.748 23.7757 221.628 23.6961 221.509 23.6066C221.151 23.318 220.782 23.0095 220.474 22.6613C220.395 22.5717 220.315 22.4921 220.235 22.4125C219.151 21.2881 218.305 19.9149 217.857 18.4224C217.429 17.2382 217.489 15.9447 217.439 14.7009C217.081 14.1536 216.325 13.8451 215.728 14.1834C215.479 14.3626 215.449 14.6909 215.26 14.9198C214.952 18.2034 216.355 21.4772 218.594 23.8454C218.594 23.925 218.633 23.9747 218.703 24.0046C219.101 24.3727 219.489 24.7509 219.887 25.1091C219.957 25.1787 220.036 25.2484 220.126 25.3081C220.524 25.6365 220.952 25.935 221.37 26.2434C221.449 26.3031 221.529 26.3529 221.619 26.4026C222.166 26.7211 222.683 27.0992 223.27 27.3181C223.31 27.3479 223.38 27.3977 223.42 27.4176C225.31 28.3231 227.35 28.94 229.44 29.139C229.669 29.139 229.897 29.1589 230.126 29.2087C231.121 29.2684 232.116 29.2385 233.111 29.2186C236.186 28.95 239.36 28.2037 241.928 26.3927L241.957 26.4325C242.037 26.3628 242.107 26.3031 242.186 26.2434C242.594 25.9449 242.992 25.6265 243.39 25.2981C243.48 25.2285 243.579 25.1489 243.669 25.0593C244.107 24.5817 244.614 24.1439 244.983 23.5966L245.042 23.6265C245.072 23.5767 245.122 23.4772 245.152 23.4275C245.49 22.9697 245.799 22.4921 246.097 22.0145C246.117 21.9846 246.167 21.9349 246.187 21.905L246.147 21.8652C246.177 21.8254 246.246 21.7458 246.276 21.706C246.824 20.5916 247.311 19.4274 247.48 18.1935C247.55 18.1636 247.59 18.1039 247.59 18.0343C247.6 17.6363 247.739 17.2581 247.699 16.8601C247.788 16.3726 247.798 15.875 247.778 15.3775Z" fill="white" stroke="white" stroke-width="0.00935346"/>
<mask id="mask0_274_72" style="mask-type:luminance" maskUnits="userSpaceOnUse" x="215" y="14" width="33" height="16">
<path d="M247.778 15.3775C247.698 15.2282 247.689 15.0491 247.689 14.88L247.609 14.8899C247.49 14.4521 247.122 14.0342 246.644 14.0143C246.285 13.9844 245.838 13.9944 245.629 14.3327C245.231 14.87 245.42 15.5566 245.4 16.1636C245.4 16.2034 245.41 16.273 245.41 16.3129C245.41 16.7208 245.36 17.1188 245.291 17.5169C245.231 17.6363 245.201 17.7656 245.201 17.9049C245.032 18.8403 244.694 19.7657 244.236 20.6115C244.147 20.7309 244.077 20.8602 244.047 20.9995C243.749 21.517 243.39 21.9946 243.022 22.4722C242.962 22.522 242.913 22.5817 242.863 22.6414C242.604 22.9598 242.326 23.2284 242.037 23.5071C241.967 23.5469 241.918 23.5966 241.858 23.6364C241.519 23.9648 241.141 24.2732 240.733 24.522C240.684 24.5519 240.634 24.5917 240.574 24.6315C238.027 26.3131 234.932 27.0096 231.917 27.0395C229.36 27.1191 226.783 26.5718 224.474 25.4673C224.434 25.4474 224.335 25.4076 224.295 25.3877C223.907 25.1787 223.509 24.9996 223.151 24.7409C223.071 24.7011 222.991 24.6514 222.902 24.6116C222.534 24.3926 222.185 24.1538 221.857 23.8752C221.748 23.7757 221.628 23.6961 221.509 23.6066C221.151 23.318 220.782 23.0095 220.474 22.6613C220.395 22.5717 220.315 22.4921 220.235 22.4125C219.151 21.2881 218.305 19.9149 217.857 18.4224C217.429 17.2382 217.489 15.9447 217.439 14.7009C217.081 14.1536 216.325 13.8451 215.728 14.1834C215.479 14.3626 215.449 14.6909 215.26 14.9198C214.952 18.2034 216.355 21.4772 218.594 23.8454C218.594 23.925 218.633 23.9747 218.703 24.0046C219.101 24.3727 219.489 24.7509 219.887 25.1091C219.957 25.1787 220.036 25.2484 220.126 25.3081C220.524 25.6365 220.952 25.935 221.37 26.2434C221.449 26.3031 221.529 26.3529 221.619 26.4026C222.166 26.7211 222.683 27.0992 223.27 27.3181C223.31 27.3479 223.38 27.3977 223.42 27.4176C225.31 28.3231 227.35 28.94 229.44 29.139C229.669 29.139 229.897 29.1589 230.126 29.2087C231.121 29.2684 232.116 29.2385 233.111 29.2186C236.186 28.95 239.36 28.2037 241.928 26.3927L241.957 26.4325C242.037 26.3628 242.107 26.3031 242.186 26.2434C242.594 25.9449 242.992 25.6265 243.39 25.2981C243.48 25.2285 243.579 25.1489 243.669 25.0593C244.107 24.5817 244.614 24.1439 244.983 23.5966L245.042 23.6265C245.072 23.5767 245.122 23.4772 245.152 23.4275C245.49 22.9697 245.799 22.4921 246.097 22.0145C246.117 21.9846 246.167 21.9349 246.187 21.905L246.147 21.8652C246.177 21.8254 246.246 21.7458 246.276 21.706C246.824 20.5916 247.311 19.4274 247.48 18.1935C247.55 18.1636 247.59 18.1039 247.59 18.0343C247.6 17.6363 247.739 17.2581 247.699 16.8601C247.788 16.3726 247.798 15.875 247.778 15.3775Z" fill="white"/>
</mask>
<g mask="url(#mask0_274_72)">
<path d="M214.496 15.0413C215.302 15.2943 217.155 14.6577 217.68 15.2403M214.96 17.4956C215.733 17.2267 217.391 16.5899 218.078 16.965M215.756 19.9501C216.13 20.0711 216.866 19.4147 217.232 19.2224C217.777 18.9361 218.335 18.7167 218.94 18.6234M216.95 22.5373C217.336 21.9896 217.797 21.5347 218.354 21.1457C218.906 20.7602 220.415 19.7302 221.063 20.0828M218.078 24.3947C218.515 24.0469 218.693 23.4318 219.153 23.0664C219.708 22.6244 220.56 22.5451 221.129 22.2719M219.952 25.7711C220.083 24.8091 221.06 23.6481 221.992 23.7312M221.395 27.1145C221.887 27.0651 222.304 25.9626 222.637 25.589C223.136 25.0293 223.653 24.8571 224.313 24.66M224.247 28.3085C224.215 27.6124 224.935 25.6164 225.773 25.7214M226.37 28.9719C226.335 28.1492 226.76 25.6746 227.763 25.5888M228.559 30.2986C228.369 29.1482 228.381 27.4838 229.289 26.6501M231.279 30.564C231.178 29.605 230.225 27.6663 231.279 26.9155M234.198 29.9006C233.743 29.3731 233.478 27.2925 233.667 26.7165M236.984 29.4362C236.633 28.7991 236.198 28.2008 236.065 27.4612C235.986 27.0192 236.125 26.3895 236.055 26.0531M239.306 28.4412C238.545 27.9434 238.333 26.1137 238.576 25.3234M241.561 27.4461C241.02 26.2848 240.442 25.3844 240.433 24.063M243.75 25.3234C242.909 24.7575 241.835 23.7288 241.959 22.6036M246.072 23.5323C244.794 23.2491 243.26 22.1055 242.49 21.0778M247.133 21.3432C246.211 21.1455 243.165 19.9569 243.352 18.7561M248.128 19.0215C246.844 18.5505 244.975 18.1271 243.949 17.2304M248.792 16.8986C247.982 16.9679 246.823 16.5761 246.001 16.4342C245.088 16.2767 244.241 15.9689 243.352 15.7708M247.996 14.8423C246.435 14.9357 244.97 14.4016 243.551 13.9136" stroke="#D1D1D1" stroke-width="0.19901"/>
</g>
<path d="M48.2939 19.6259C49.736 19.4083 51.3954 19.2722 52.6196 20.17C53.3813 20.7411 53.6534 21.7749 53.599 22.7001C53.6534 24.2235 52.9461 25.8559 51.5861 26.645C50.3888 27.2979 48.9471 27.352 47.6138 27.2161C46.7161 27.1075 45.8184 26.6179 45.3559 25.8017C44.3218 23.4347 45.6006 20.0884 48.2939 19.6259ZM5.14566 21.3399C5.22715 20.5236 5.9618 19.7891 6.8051 19.8164C13.0898 19.8164 19.3471 19.8435 25.6045 19.8164C26.2846 19.762 27.0192 20.0611 27.3455 20.6596C27.8079 21.4759 27.3999 22.3736 27.3455 23.2171C27.1552 24.3595 27.2095 25.8832 25.8766 26.3184C21.306 26.4544 16.7353 26.3184 12.1646 26.3728C11.7294 29.2565 11.3213 32.113 10.8859 34.9696C10.8859 35.0785 10.9133 35.3236 10.9133 35.432C14.2595 35.405 17.6058 35.432 20.952 35.405C21.8771 35.3505 22.8563 36.1398 22.7747 37.1189C22.6933 38.1256 22.4755 39.105 22.3396 40.1116C22.2305 40.7917 21.6866 41.4174 20.9792 41.5535C17.2519 41.6351 13.4702 41.4719 9.74339 41.6351C9.14467 45.7431 8.43728 49.851 7.8115 53.9592C7.7301 54.7755 7.07695 55.4828 6.26081 55.5097C4.71025 55.5371 3.15933 55.5371 1.60877 55.5097C0.602176 55.5371 -0.214068 54.4213 0.057879 53.4693C1.71792 42.7507 3.43179 32.059 5.14566 21.3399ZM32.7865 19.8706C34.2014 19.7619 35.6431 19.8435 37.058 19.8164C37.9286 19.762 38.7992 20.442 38.8806 21.3399C38.8806 22.047 38.6901 22.7545 38.6087 23.4618C37.4659 30.753 36.2962 38.0442 35.1533 45.3353C34.9902 46.5051 34.6909 47.7565 35.0447 48.9536C35.4528 50.1506 37.2753 49.6337 37.7107 50.885C37.9828 51.8917 37.6834 52.9526 37.6018 53.9866C37.5203 55.3468 35.9695 55.6459 34.9087 55.9457C32.5963 56.3808 29.7938 56.0543 28.1343 54.1497C26.9372 52.7625 26.8555 50.8034 27.1006 49.0625C28.5424 39.8126 29.9843 30.5628 31.4536 21.2854C31.5352 20.6052 32.0792 19.9795 32.7865 19.8706ZM86.7899 21.3399C86.8713 20.5236 87.606 19.8164 88.4222 19.8164H92.5575C93.5913 19.7891 94.4349 20.9046 94.1899 21.8838C93.2377 27.9236 92.2584 33.9633 91.3062 40.0027C92.7481 39.7852 94.3805 39.5131 95.3871 38.3433C97.0736 36.4387 98.4614 34.2355 99.4951 31.923C99.8486 31.0251 100.039 29.7193 101.209 29.556C102.76 29.5015 104.338 29.5287 105.888 29.556C106.949 29.5287 107.738 30.7257 107.385 31.7051C106.977 33.1473 106.297 34.4802 105.589 35.7589C104.011 38.3163 102.27 40.8463 99.9847 42.8595C100.991 45.8792 102.27 48.8175 103.386 51.7831C103.712 52.7624 104.501 53.9049 103.766 54.8574C102.923 55.9999 101.345 55.4283 100.175 55.5643C98.9509 55.4283 97.1826 56.0541 96.5024 54.6667C95.2236 51.7012 94.1628 48.6544 92.8567 45.6889C92.095 45.7159 91.3061 45.7433 90.5442 45.6617C90.4901 45.7706 90.3811 45.988 90.3266 46.0971C89.9184 48.8175 89.4833 51.5382 89.0479 54.2585C88.8846 54.9115 88.3676 55.483 87.6605 55.5374C86.2186 55.5918 84.7495 55.5643 83.2804 55.5643C82.6545 55.5643 82.0833 55.1564 81.8112 54.6123C81.5391 54.0679 81.7022 53.4425 81.7842 52.844C83.4707 42.3425 85.1302 31.8411 86.7899 21.3399ZM162.394 24.3053C162.585 23.5433 163.319 23.0266 164.081 23.0536C165.17 23.081 166.285 23.0266 167.4 23.081C168.298 23.1081 169.005 24.0059 168.897 24.8765C168.733 26.4272 168.352 27.978 168.244 29.5285C169.305 29.5285 170.393 29.5014 171.454 29.5285C172.406 29.5285 173.195 30.508 173.032 31.4328C172.896 32.2765 172.705 33.0928 172.569 33.9358C172.433 34.6434 171.835 35.2146 171.155 35.3234C169.849 35.405 168.57 35.2689 167.292 35.405C166.747 39.0503 166.149 42.6958 165.578 46.3417C165.496 47.185 165.442 48.1371 165.931 48.8718C166.666 49.7696 167.944 49.4429 168.978 49.552C169.794 49.7966 170.311 50.6947 170.175 51.511C170.039 52.4357 170.012 53.3608 169.794 54.2584C169.468 55.2649 168.298 55.4556 167.4 55.7003C164.924 56.3534 162.068 56.3534 159.864 54.9114C157.824 53.5238 157.497 50.8305 157.715 48.5452C158.286 44.1378 159.184 39.7578 159.674 35.3233C158.912 35.3503 157.987 35.4593 157.416 34.7791C156.763 34.0991 157.089 33.0924 157.198 32.2488C157.362 31.351 157.334 30.1813 158.314 29.6915C159.103 29.3921 160.001 29.61 160.844 29.501C161.361 27.7602 161.85 26.0192 162.394 24.3053ZM147.023 33.1197C148.737 31.4058 150.805 29.9911 153.172 29.2839C154.205 28.8213 155.539 29.692 155.512 30.8346C155.321 32.331 154.967 33.7999 154.722 35.2689C154.613 36.0036 153.988 36.6294 153.253 36.711C150.587 37.1733 148.275 38.7782 146.425 40.6828C145.962 41.2544 145.282 41.7983 145.2 42.5872C144.629 46.396 144.031 50.2048 143.432 54.0136C143.351 54.8296 142.643 55.6189 141.8 55.5644H137.664C136.712 55.6189 135.869 54.6668 135.978 53.7145C137.175 46.1784 138.372 38.6698 139.542 31.1336C139.596 30.372 140.14 29.6375 140.929 29.5558C141.936 29.5013 142.942 29.5285 143.976 29.5285C144.792 29.5285 145.554 30.263 145.554 31.1066C145.554 32.2763 145.445 33.4733 145.418 34.6703C146.071 34.2625 146.479 33.6095 147.023 33.1197ZM45.3284 29.6646C46.7975 29.3655 48.321 29.6104 49.7901 29.5286C50.6336 29.4199 51.5313 29.9639 51.6673 30.8074C51.7763 31.5691 51.5583 32.3037 51.4767 33.0383C50.3615 40.0303 49.2458 47.0221 48.1576 54.0139C48.076 54.8031 47.4234 55.5919 46.5798 55.5645C45.1108 55.5645 43.6416 55.5919 42.1455 55.5376C41.2204 55.4285 40.5401 54.3678 40.7851 53.4698C41.955 46.2061 43.0706 38.9692 44.2403 31.7052C44.2948 30.9162 44.5124 29.9911 45.3284 29.6646ZM133.366 30.0186C129.312 29.2566 125.177 28.7125 121.069 29.1205C117.396 29.5831 113.696 31.2428 111.438 34.2625C108.31 38.2345 107.248 43.5669 107.956 48.5185C108.337 50.8852 109.37 53.2794 111.302 54.7484C113.098 56.136 115.519 56.3263 117.696 55.9726C120.742 55.374 123.327 53.4156 125.449 51.239C125.558 52.1639 125.34 53.089 125.395 53.9868C125.449 54.8299 126.211 55.6189 127.054 55.5644H129.829C130.645 55.5644 131.326 54.803 131.38 54.0138C132.55 46.6411 133.72 39.2954 134.862 31.9501C135.025 31.025 134.291 30.1272 133.366 30.0186ZM125.721 42.8323C124.633 44.8727 123.109 46.7227 121.395 48.3004C120.416 49.1166 119.164 49.9601 117.832 49.6882C116.526 49.4161 115.9 48.0559 115.601 46.8859C114.921 43.839 115.546 40.5197 117.26 37.8809C118.022 36.6564 119.246 35.7316 120.661 35.3506C122.647 34.8609 124.742 35.1058 126.674 35.6498L126.782 35.7589C126.538 38.1256 126.075 40.4654 125.721 42.8323ZM79.9614 38.7515C79.934 36.0308 79.1996 33.1744 77.2952 31.1338C75.9894 29.692 74.0305 28.9574 72.1262 28.9844C68.9702 28.8759 66.0048 30.4266 63.6924 32.494C63.1753 32.9023 62.8218 33.5008 62.2506 33.8272C62.2506 32.9292 62.3321 32.0315 62.3047 31.1067C62.3321 30.2631 61.543 29.5286 60.7269 29.5286H57.9518C57.0814 29.5286 56.3739 30.2905 56.3195 31.1337C54.6055 42.0161 52.8646 52.8983 51.1505 63.7807C50.9059 64.7872 51.7765 65.8211 52.8103 65.7938C54.3337 65.7667 55.8845 65.9027 57.3807 65.6848C58.5779 65.3583 58.5505 63.9708 58.7411 62.9643C59.1762 60.5701 59.4757 58.1761 59.7477 55.7547C65.1072 56.7885 71.3373 56.0814 75.3365 52.0275C78.601 48.4639 80.1245 43.5396 79.9614 38.7515ZM72.3438 41.4991C72.1807 44.0021 71.2828 46.5323 69.5417 48.3548C67.2838 50.5043 63.8555 50.2048 61.0806 49.4706C61.0265 49.3888 60.9446 49.2255 60.9174 49.1441C61.3527 46.7772 61.5704 44.383 62.1146 42.0433C63.6381 39.5406 65.4879 37.0102 68.1269 35.6229C69.1063 35.1605 70.4394 35.2692 71.1467 36.1671C72.3438 37.6633 72.4526 39.6765 72.3438 41.4991Z" fill="#107BD4" stroke="#107BD4" stroke-width="0.01005"/>
</g>
<defs>
<linearGradient id="paint0_linear_274_72" x1="231.5" y1="11.8993" x2="231.5" y2="70.3848" gradientUnits="userSpaceOnUse">
<stop stop-color="#F7E830"/>
<stop offset="1" stop-color="#FDCB06"/>
</linearGradient>
<radialGradient id="paint1_radial_274_72" cx="0" cy="0" r="1" gradientUnits="userSpaceOnUse" gradientTransform="translate(231.194 38.5748) scale(47.5713 47.5713)">
<stop offset="0.596" stop-color="#F29405"/>
<stop offset="0.736" stop-color="#F7D01E"/>
<stop offset="1" stop-color="#FDCB06"/>
</radialGradient>
<linearGradient id="paint2_linear_274_72" x1="247.774" y1="14.01" x2="247.79" y2="16.7795" gradientUnits="userSpaceOnUse">
<stop stop-color="#FADA1C"/>
<stop offset="1" stop-color="#FDCB06"/>
</linearGradient>
<linearGradient id="paint3_linear_274_72" x1="215.197" y1="13.8772" x2="215.181" y2="16.6468" gradientUnits="userSpaceOnUse">
<stop stop-color="#FADA1C"/>
<stop offset="1" stop-color="#FDCB06"/>
</linearGradient>
<clipPath id="clip0_274_72">
<rect width="267" height="70.3895" fill="white"/>
</clipPath>
</defs>
</svg>
