<svg width="45" height="40" viewBox="0 0 45 40" fill="none" xmlns="http://www.w3.org/2000/svg">
<path d="M22.7523 18.6011H21.4099V20.8064H22.7523V18.6011Z" fill="#FF6A00"/>
<path d="M28.7953 32.1359L28.001 33.218L30.0755 34.7409L30.8698 33.6588L28.7953 32.1359Z" fill="#FF6A00"/>
<path d="M15.497 32.0412L13.2927 33.6588L14.0869 34.741L16.2912 33.1233L15.497 32.0412Z" fill="#FF6A00"/>
<path d="M22.0813 22.6267L18.6184 23.7434L22.0813 24.8602L25.5441 23.7434L22.0813 22.6267Z" fill="#FF6A00"/>
<path d="M22.6565 32.3858L27.0671 30.9658V24.665L22.6565 26.0851V32.3858Z" fill="#FF6A00"/>
<path d="M17.0952 30.9658L21.314 32.324V26.0233L17.0952 24.665V30.9658Z" fill="#FF6A00"/>
<path d="M21.84 1.88139e-09H22.1307C22.4516 -1.25898e-05 22.7694 0.0631799 23.0658 0.185969C23.3623 0.308759 23.6317 0.48874 23.8586 0.715637C24.0855 0.942534 24.2655 1.2119 24.3883 1.50836C24.5111 1.80482 24.5743 2.12257 24.5743 2.44345V3.98073C24.5743 4.30159 24.5111 4.61932 24.3883 4.91576C24.2655 5.2122 24.0855 5.48155 23.8586 5.70844C23.6317 5.93533 23.3624 6.1153 23.0659 6.23809C22.7695 6.36088 22.4518 6.42408 22.1309 6.42408H21.8402C21.5193 6.4241 21.2016 6.3609 20.9051 6.23811C20.6086 6.11532 20.3393 5.93534 20.1124 5.70845C19.8854 5.48155 19.7055 5.21218 19.5827 4.91572C19.4599 4.61926 19.3966 4.30152 19.3966 3.98063V2.44336C19.3966 2.12249 19.4598 1.80477 19.5826 1.50832C19.7054 1.21188 19.8854 0.942529 20.1123 0.715643C20.3392 0.488756 20.6085 0.30878 20.905 0.185989C21.2014 0.0631992 21.5191 1.88139e-09 21.84 1.88139e-09ZM27.8965 10.116C27.6423 9.83294 27.3321 9.6058 26.9854 9.44899C26.6388 9.29218 26.2634 9.20914 25.883 9.20514H25.5288L24.3929 12.2638C24.3485 12.3849 24.2707 12.491 24.1685 12.5697C24.0663 12.6484 23.9439 12.6965 23.8155 12.7084C23.6883 12.7193 23.5606 12.6933 23.4477 12.6338C23.3348 12.5742 23.2414 12.4834 23.1786 12.3722L22.0387 10.3395L20.9936 12.357C20.9872 12.3693 20.9803 12.3822 20.9731 12.3942C20.9074 12.5039 20.8117 12.5926 20.6973 12.6497C20.5829 12.7069 20.4546 12.7302 20.3274 12.7169C20.1987 12.6993 20.0776 12.6459 19.9777 12.5629C19.8779 12.4798 19.8034 12.3704 19.7626 12.2471L18.7255 9.20466H18.2801C17.9006 9.2108 17.5265 9.2951 17.1811 9.45229C16.8357 9.60947 16.5264 9.83617 16.2725 10.1182C16.0186 10.4003 15.8255 10.7317 15.7054 11.0917C15.5853 11.4517 15.5407 11.8325 15.5743 12.2106C15.5766 12.233 15.5613 12.266 15.5613 12.2886V17.593L28.6012 17.5915V12.2886C28.6012 12.266 28.5859 12.2433 28.5882 12.2208C28.6269 11.8411 28.5853 11.4575 28.4662 11.0948C28.347 10.7322 28.1529 10.3987 27.8965 10.116Z" fill="#FF6A00"/>
<path d="M6.50208 22.3405H6.21118C4.86175 22.3405 3.76782 23.4344 3.76782 24.7838V26.3212C3.76782 27.6706 4.86175 28.7645 6.21118 28.7645H6.50208C7.85151 28.7645 8.94544 27.6706 8.94544 26.3212V24.7838C8.94544 23.4344 7.85151 22.3405 6.50208 22.3405Z" fill="#FF6A00"/>
<path d="M10.2989 31.5452H9.94463L8.80872 34.5654C8.76351 34.6843 8.68501 34.7876 8.58261 34.863C8.4802 34.9384 8.35824 34.9827 8.23132 34.9906C8.10328 34.9994 7.97537 34.9716 7.86257 34.9104C7.74978 34.8491 7.65678 34.757 7.59447 34.6448L6.45453 32.6065L5.40942 34.6215C5.40309 34.6339 5.39619 34.6455 5.389 34.6575C5.32321 34.7671 5.22748 34.8556 5.11308 34.9127C4.99868 34.9697 4.87037 34.9929 4.74323 34.9795C4.61747 34.9699 4.49719 34.924 4.39696 34.8474C4.29673 34.7709 4.22084 34.6669 4.17849 34.5481L3.14105 31.5452H2.69568C2.31909 31.5402 1.94574 31.6153 1.60033 31.7654C1.25491 31.9155 0.945295 32.1372 0.691953 32.4158C0.438611 32.6945 0.247316 33.0238 0.13072 33.3819C0.0141229 33.74 -0.0251192 34.1188 0.0155881 34.4932C0.0209994 34.5125 0.0252577 34.5321 0.0283403 34.5519V39.8564L12.9724 39.8548V34.5519C12.9744 34.5292 12.9776 34.5066 12.982 34.4842C13.0201 34.1105 12.9789 33.733 12.861 33.3763C12.7431 33.0196 12.5513 32.6918 12.298 32.4144C12.0448 32.1369 11.7358 31.9161 11.3913 31.7663C11.0468 31.6165 10.6745 31.5412 10.2989 31.5452Z" fill="#FF6A00"/>
<path d="M37.6635 22.3405H37.3726C36.0231 22.3405 34.9292 23.4344 34.9292 24.7838V26.3212C34.9292 27.6706 36.0231 28.7645 37.3726 28.7645H37.6635C39.0129 28.7645 40.1068 27.6706 40.1068 26.3212V24.7838C40.1068 23.4344 39.0129 22.3405 37.6635 22.3405Z" fill="#FF6A00"/>
<path d="M41.4674 31.5451H41.1137L39.9778 34.5654C39.9326 34.6843 39.8541 34.7876 39.7517 34.863C39.6493 34.9384 39.5273 34.9827 39.4004 34.9905C39.2723 34.9995 39.1444 34.9717 39.0316 34.9105C38.9187 34.8492 38.8258 34.7571 38.7635 34.6448L37.6236 32.6064L36.5785 34.6215C36.5721 34.6339 36.5653 34.6455 36.5581 34.6575C36.4923 34.7671 36.3966 34.8556 36.2822 34.9127C36.1678 34.9697 36.0394 34.9929 35.9123 34.9795C35.7865 34.9699 35.6662 34.924 35.566 34.8474C35.4658 34.7709 35.3899 34.6669 35.3475 34.5481L34.3096 31.5451H33.8643C33.4877 31.5404 33.1142 31.6156 32.7687 31.7657C32.4232 31.9158 32.1134 32.1374 31.8598 32.416C31.6062 32.6945 31.4145 33.0237 31.2974 33.3818C31.1803 33.7398 31.1404 34.1186 31.1803 34.4932C31.1847 34.5126 31.1879 34.5322 31.1899 34.5519V39.8564L44.134 39.8548V34.5519C44.137 34.5321 44.1413 34.5125 44.1467 34.4932C44.1885 34.1192 44.1499 33.7406 44.0336 33.3826C43.9173 33.0247 43.726 32.6957 43.4724 32.4177C43.2179 32.14 42.9079 31.9188 42.5625 31.7685C42.2172 31.6182 41.8441 31.5421 41.4674 31.5451Z" fill="#FF6A00"/>
</svg>
