<svg width="40" height="40" viewBox="0 0 40 40" fill="none" xmlns="http://www.w3.org/2000/svg">
<path d="M24.8929 5.32168C24.8929 8.80283 22.6858 11.6261 19.9708 11.6261C17.2642 11.6261 15.0573 8.80284 15.0573 5.32168C15.0573 2.09037 16.9895 0 19.9708 0C22.9607 0 24.8929 2.09037 24.8929 5.32168ZM29.5067 16.7729V20.2873H10.4685V16.7729C10.4685 15.6902 11.1015 14.7075 12.0841 14.2828C13.8831 13.4832 15.7153 12.9669 17.5641 12.7337C18.3052 13.0918 19.1213 13.2917 19.9708 13.2917C20.812 13.2917 21.6283 13.1002 22.3694 12.7421C24.2016 12.9752 26.0504 13.4916 27.8825 14.2828C28.8654 14.7158 29.5067 15.6902 29.5067 16.7729ZM39.975 23.6186V25.4674C39.975 26.3835 39.2255 27.133 38.3094 27.133H1.66562C0.74132 27.133 0 26.3835 0 25.4674V23.6186C0 22.7025 0.74132 21.953 1.66562 21.953H38.3094C39.2255 21.953 39.975 22.7025 39.975 23.6186ZM35.8443 28.7987V39.1672C35.8443 39.6252 35.4696 40 35.0115 40H4.95529C4.4973 40 4.12248 39.6252 4.12248 39.1672V28.7987H35.8443Z" fill="#FF6A00"/>
<path d="M13.3999 5.7627C13.4997 8.00297 14.3659 9.99336 15.6818 11.3675C14.241 11.6757 12.8253 12.1337 11.4262 12.75C9.83544 13.4412 8.80276 15.0152 8.80276 16.7725V20.287H7.76174L7.17882 10.1933C7.11212 8.99402 7.52853 7.81972 8.31966 6.9869C9.06098 6.19572 10.0603 5.7627 11.143 5.7627L13.3999 5.7627ZM32.7961 10.1933L32.2132 20.287H31.1722V16.7725C31.1722 15.0319 30.1479 13.4579 28.5404 12.75C27.1246 12.142 25.7006 11.684 24.2598 11.3675C25.5841 9.99336 26.45 8.00297 26.55 5.7627H28.8403C29.9146 5.7627 30.914 6.19573 31.6634 6.98691C32.4548 7.81973 32.8626 8.99402 32.7961 10.1933Z" fill="#FF6A00"/>
</svg>
