<svg width="40" height="40" viewBox="0 0 40 40" fill="none" xmlns="http://www.w3.org/2000/svg">
<path d="M36.3852 30.6654L30.6702 36.3805L34.2896 39.9999L40.0046 34.2848L36.3852 30.6654Z" fill="#FF6A00"/>
<path d="M27.6034 27.3645L25.4132 26.7138C25.2216 26.6566 25.0186 26.649 24.8233 26.6916C24.6279 26.7343 24.4466 26.8259 24.2964 26.9578C24.1826 27.0554 24.0941 27.1792 24.0385 27.3185C23.983 27.4578 23.962 27.6084 23.9774 27.7576C23.9928 27.9068 24.0441 28.05 24.127 28.175C24.2098 28.3 24.3217 28.403 24.4531 28.4753L26.1733 29.5088L29.0036 30.3482C27.3906 30.7608 25.7105 30.8405 24.0657 30.5826C22.4208 30.3247 20.8458 29.7345 19.4364 28.848L18.1423 28.0146C17.876 27.8475 17.5628 27.7707 17.2494 27.7958C16.936 27.8209 16.639 27.9465 16.4027 28.154C16.268 28.2693 16.1618 28.4144 16.0927 28.5778C16.0236 28.7412 15.9934 28.9184 16.0044 29.0955C16.0155 29.2726 16.0675 29.4446 16.1564 29.5982C16.2453 29.7517 16.3687 29.8825 16.5168 29.9802L18.9397 31.6804C22.1541 33.8916 26.0322 34.9277 29.9211 34.6141L34.671 30.3196L33.2621 29.0447C32.4961 28.3729 31.5936 27.8748 30.6168 27.5847C29.64 27.2947 28.612 27.2196 27.6034 27.3645Z" fill="#FF6A00"/>
<path d="M18.7052 22.9874L19.1092 26.0818C19.1645 26.4981 19.2849 26.903 19.466 27.2819L20.1587 27.728C21.0663 28.3104 22.0589 28.7481 23.1011 29.0255C22.8473 28.6933 22.6917 28.2967 22.6517 27.8807C22.6173 27.5254 22.6674 27.1669 22.798 26.8347C22.9286 26.5025 23.136 26.2059 23.4031 25.9691C23.7234 25.6837 24.1112 25.4849 24.5299 25.3915C24.9486 25.2982 25.3842 25.3134 25.7954 25.4357L27.723 26.0084C28.0624 25.9765 28.4036 25.9651 28.7444 25.9744L29.2572 23.3528C29.7906 20.6138 27.5236 18.2081 25.0373 18.8856C24.9149 18.9179 24.7906 18.9431 24.6653 18.9609C25.0705 18.7294 25.4076 18.3952 25.6425 17.992C25.8774 17.5887 26.0019 17.1307 26.0034 16.664V15.3305C25.3053 15.3307 24.6352 15.6051 24.1373 16.0946C23.6395 16.584 23.3538 17.2494 23.3418 17.9474C22.929 17.2525 22.3428 16.6767 21.6406 16.2764C20.9384 15.8761 20.1442 15.665 19.3359 15.6638V16.9973C19.9199 16.9993 20.493 17.1551 20.9976 17.449C21.5022 17.7429 21.9205 18.1646 22.2103 18.6715C20.136 18.6109 18.3952 20.6118 18.7052 22.9874ZM24.0032 20.9978V21.6646C23.3843 21.6646 22.7907 21.9104 22.3531 22.3481C21.9154 22.7857 21.6696 23.3793 21.6696 23.9982H21.0028C21.0037 23.2027 21.3201 22.4401 21.8826 21.8776C22.4451 21.3151 23.2077 20.9987 24.0032 20.9978ZM18.4632 11.4673L20.6634 9.9038C20.8234 9.78547 20.9565 9.63454 21.0538 9.46099C21.1512 9.28744 21.2106 9.09522 21.2282 8.89701C21.2534 8.68639 21.2329 8.47281 21.168 8.27086C21.1031 8.0689 20.9953 7.88335 20.8521 7.72686C20.6761 7.52466 20.432 7.39405 20.166 7.35977C19.9001 7.32548 19.6309 7.38991 19.4093 7.54084L15.7755 9.9618C15.6226 10.0632 15.4369 10.1025 15.2561 10.0718C15.0752 10.041 14.9129 9.9426 14.8021 9.79645V9.79312C14.7479 9.71997 14.7092 9.63651 14.6885 9.54787C14.6678 9.45924 14.6655 9.3673 14.6817 9.27772C14.6979 9.18815 14.7322 9.10283 14.7826 9.02703C14.833 8.95124 14.8984 8.88657 14.9747 8.837L18.0611 6.78075L18.5872 6.43004C18.7024 6.3552 18.8232 6.28944 18.9486 6.23335C18.9866 6.21601 19.0246 6.20001 19.0632 6.18468C19.1553 6.14808 19.2495 6.11691 19.3453 6.09133C19.4019 6.07599 19.458 6.06199 19.5146 6.05066C19.605 6.03294 19.6963 6.01981 19.788 6.01132C19.8653 6.00465 19.9427 6.00265 20.02 6.00332C20.054 6.00332 20.0867 6.00332 20.1227 6.00332C20.4103 6.01609 20.6938 6.07577 20.9621 6.18001C21.327 6.31909 21.6558 6.53854 21.9243 6.82209C22.0668 6.97509 22.1911 7.144 22.295 7.32548H23.3364C23.3364 7.45735 23.3755 7.58626 23.4488 7.69591C23.5221 7.80555 23.6262 7.89101 23.748 7.94148C23.8699 7.99194 24.0039 8.00514 24.1333 7.97942C24.2626 7.95369 24.3814 7.89019 24.4746 7.79694C24.5679 7.7037 24.6314 7.58489 24.6571 7.45556C24.6828 7.32622 24.6696 7.19216 24.6192 7.07033C24.5687 6.9485 24.4832 6.84436 24.3736 6.7711C24.264 6.69784 24.135 6.65873 24.0032 6.65873C23.5319 6.65963 23.0755 6.4937 22.7149 6.19034C22.3542 5.88699 22.1125 5.46578 22.0327 5.00132C21.9528 4.53686 22.0399 4.05912 22.2785 3.65272C22.5172 3.24632 22.8919 2.93749 23.3364 2.78093V1.9955H24.6699V2.78493C25.0586 2.92233 25.3953 3.17646 25.634 3.51255C25.8727 3.84864 26.0017 4.25026 26.0034 4.66249H24.6699C24.6699 4.53062 24.6308 4.40171 24.5576 4.29206C24.4843 4.18242 24.3802 4.09696 24.2583 4.04649C24.1365 3.99603 24.0024 3.98283 23.8731 4.00855C23.7438 4.03428 23.625 4.09778 23.5317 4.19103C23.4385 4.28427 23.375 4.40308 23.3492 4.53241C23.3235 4.66175 23.3367 4.79581 23.3872 4.91764C23.4376 5.03947 23.5231 5.14361 23.6328 5.21687C23.7424 5.29013 23.8713 5.32924 24.0032 5.32924C24.4745 5.32834 24.9308 5.49427 25.2915 5.79763C25.6522 6.10098 25.8938 6.52219 25.9737 6.98665C26.0535 7.45112 25.9664 7.92885 25.7278 8.33525C25.4892 8.74165 25.1144 9.05048 24.6699 9.20704V9.99647H23.3364V9.20704C23.0834 9.11469 22.8513 8.97279 22.6537 8.78966C22.6537 8.871 22.6623 8.95101 22.6537 9.03236C22.6142 9.42015 22.4928 9.79513 22.2974 10.1324C22.1019 10.4697 21.837 10.7615 21.5202 10.9886L21.1295 11.266C22.1193 11.807 23.2415 12.0582 24.3674 11.9906C25.4934 11.923 26.5775 11.5394 27.4955 10.8838C28.4134 10.2282 29.1279 9.32715 29.5572 8.284C29.9864 7.24086 30.1129 6.09786 29.9222 4.9861C29.7315 3.87434 29.2313 2.83885 28.479 1.99838C27.7266 1.15791 26.7526 0.546513 25.6687 0.234306C24.5848 -0.0779007 23.4348 -0.0782714 22.3507 0.233236C21.2665 0.544744 20.2922 1.15552 19.5393 1.9955H12.6685L10.0015 4.66249H8.00122V12.6635H16.6689L18.4632 11.4673Z" fill="#FF6A00"/>
<path d="M6.66748 3.99573H0V13.3302H6.66748V3.99573Z" fill="#FF6A00"/>
</svg>
