<svg width="39" height="32" viewBox="0 0 39 32" fill="none" xmlns="http://www.w3.org/2000/svg">
<path d="M0.975 31.2H22.425C22.6836 31.2 22.9316 31.0973 23.1144 30.9144C23.2973 30.7316 23.4 30.4836 23.4 30.225V27.3C23.4001 24.9862 22.5773 22.7477 21.0787 20.9848C19.5801 19.2218 17.5034 18.0493 15.2198 17.6768C16.5057 17.0265 17.5864 16.0327 18.342 14.8056C19.0975 13.5785 19.4984 12.166 19.5 10.725V7.8C19.5 5.73131 18.6782 3.74735 17.2154 2.28457C15.7527 0.821783 13.7687 0 11.7 0C9.63131 0 7.64735 0.821783 6.18457 2.28457C4.72178 3.74735 3.9 5.73131 3.9 7.8V10.725C3.90165 12.166 4.30248 13.5785 5.05802 14.8056C5.81356 16.0327 6.89427 17.0265 8.18025 17.6768C5.89661 18.0493 3.81988 19.2218 2.32128 20.9848C0.822678 22.7477 -0.000105486 24.9862 1.01436e-08 27.3V30.225C1.01436e-08 30.4836 0.102723 30.7316 0.285571 30.9144C0.468419 31.0973 0.716414 31.2 0.975 31.2ZM14.625 12.675C14.625 13.4508 14.3168 14.1947 13.7683 14.7433C13.2197 15.2918 12.4758 15.6 11.7 15.6C10.9242 15.6 10.1803 15.2918 9.63171 14.7433C9.08317 14.1947 8.775 13.4508 8.775 12.675H14.625Z" fill="#E86232"/>
<path d="M31.2 2.41645e-06H29.25C27.7064 -0.00121233 26.1972 0.455591 24.9133 1.31258C23.6295 2.16958 22.6288 3.38822 22.0379 4.81424C21.4471 6.24026 21.2926 7.80954 21.5941 9.3234C21.8955 10.8373 22.6394 12.2276 23.7315 13.3185L21.45 15.6H31.2C33.2687 15.6 35.2526 14.7782 36.7154 13.3154C38.1782 11.8527 39 9.86869 39 7.8C39 5.73132 38.1782 3.74735 36.7154 2.28457C35.2526 0.821786 33.2687 2.41645e-06 31.2 2.41645e-06ZM34.125 10.725H26.325C26.0664 10.725 25.8184 10.6223 25.6356 10.4394C25.4527 10.2566 25.35 10.0086 25.35 9.75001C25.35 9.49142 25.4527 9.24342 25.6356 9.06058C25.8184 8.87773 26.0664 8.77501 26.325 8.77501H34.125C34.3836 8.77501 34.6316 8.87773 34.8144 9.06058C34.9973 9.24342 35.1 9.49142 35.1 9.75001C35.1 10.0086 34.9973 10.2566 34.8144 10.4394C34.6316 10.6223 34.3836 10.725 34.125 10.725ZM34.125 6.825H26.325C26.0664 6.825 25.8184 6.72228 25.6356 6.53943C25.4527 6.35659 25.35 6.10859 25.35 5.85C25.35 5.59142 25.4527 5.34342 25.6356 5.16057C25.8184 4.97773 26.0664 4.875 26.325 4.875H34.125C34.3836 4.875 34.6316 4.97773 34.8144 5.16057C34.9973 5.34342 35.1 5.59142 35.1 5.85C35.1 6.10859 34.9973 6.35659 34.8144 6.53943C34.6316 6.72228 34.3836 6.825 34.125 6.825Z" fill="#E86232"/>
</svg>
