<svg width="31" height="31" viewBox="0 0 31 31" fill="none" xmlns="http://www.w3.org/2000/svg">
<path d="M28.4167 0H2.58333C1.15733 0 0 1.15733 0 2.58333V18.0833C0 19.5093 1.15733 20.6667 2.58333 20.6667H7.77067C8.05483 20.6667 8.28733 20.4342 8.28733 20.15C8.28733 19.8658 8.05483 19.6333 7.77067 19.6333H4.13333V1.03333H26.8667V19.6333H23.2293C22.9452 19.6333 22.7127 19.8658 22.7127 20.15C22.7127 20.4342 22.9452 20.6667 23.2293 20.6667H28.4167C29.8427 20.6667 31 19.5093 31 18.0833V2.58333C31 1.15733 29.8427 0 28.4167 0Z" fill="#E86232"/>
<path d="M22.3872 24.95C22.1857 24.7485 21.855 24.7485 21.6535 24.95L21.0852 25.5235L20.2275 24.6658C21.1472 23.586 21.7 22.191 21.7 20.6668C21.7 17.2465 18.9204 14.4668 15.5 14.4668C12.0797 14.4668 9.30005 17.2465 9.30005 20.6668C9.30005 24.0871 12.0797 26.8668 15.5 26.8668C17.0242 26.8668 18.4192 26.314 19.499 25.3943L20.3567 26.252L19.7832 26.8203C19.6902 26.9185 19.6334 27.0476 19.6334 27.1871C19.6334 27.3266 19.6902 27.4558 19.7832 27.554L23.0795 30.8503C23.1829 30.9485 23.312 31.0001 23.4464 31.0001C23.5807 31.0001 23.7099 30.9485 23.8132 30.8503L25.6835 28.98C25.7765 28.8818 25.8334 28.7526 25.8334 28.6131C25.8334 28.4736 25.7765 28.3445 25.6835 28.2463L22.3872 24.95ZM15.5 25.8335C12.6532 25.8335 10.3334 23.5136 10.3334 20.6668C10.3334 17.82 12.6532 15.5001 15.5 15.5001C18.3469 15.5001 20.6667 17.82 20.6667 20.6668C20.6667 23.5136 18.3469 25.8335 15.5 25.8335Z" fill="#E86232"/>
<path d="M18.5587 18.4036C18.4812 18.2124 18.29 18.0833 18.0833 18.0833H16.0167C15.7325 18.0833 15.5 18.3158 15.5 18.5999C15.5 18.8841 15.7325 19.1166 16.0167 19.1166H16.8382L15.5 20.4548L14.8335 19.7883C14.632 19.5868 14.3065 19.5868 14.105 19.7883L12.0383 21.8549C11.8368 22.0564 11.8368 22.3819 12.0383 22.5834C12.1417 22.6868 12.2708 22.7333 12.4052 22.7333C12.5395 22.7333 12.6687 22.6816 12.772 22.5834L14.4718 20.8836L15.1383 21.5501C15.3398 21.7516 15.6653 21.7516 15.8668 21.5501L17.5667 19.8503V20.6718C17.5667 20.9559 17.7992 21.1884 18.0833 21.1884C18.3675 21.1884 18.6 20.9559 18.6 20.6718V18.6051C18.6 18.5379 18.5897 18.4708 18.5638 18.4088L18.5587 18.4036Z" fill="#E86232"/>
<path d="M14.4666 5.16675H12.4C12.1146 5.16675 11.8833 5.39807 11.8833 5.68341V12.9167C11.8833 13.2021 12.1146 13.4334 12.4 13.4334H14.4666C14.752 13.4334 14.9833 13.2021 14.9833 12.9167V5.68341C14.9833 5.39807 14.752 5.16675 14.4666 5.16675Z" fill="#E86232"/>
<path d="M18.5999 7.2334H16.5333C16.2479 7.2334 16.0166 7.46472 16.0166 7.75007V12.9167C16.0166 13.2021 16.2479 13.4334 16.5333 13.4334H18.5999C18.8853 13.4334 19.1166 13.2021 19.1166 12.9167V7.75007C19.1166 7.46472 18.8853 7.2334 18.5999 7.2334Z" fill="#E86232"/>
<path d="M22.7332 3.1001H20.6666C20.3812 3.1001 20.1499 3.33142 20.1499 3.61676V12.9168C20.1499 13.2021 20.3812 13.4334 20.6666 13.4334H22.7332C23.0186 13.4334 23.2499 13.2021 23.2499 12.9168V3.61676C23.2499 3.33142 23.0186 3.1001 22.7332 3.1001Z" fill="#E86232"/>
<path d="M10.3333 8.2666H8.26667C7.98132 8.2666 7.75 8.49792 7.75 8.78327V12.9166C7.75 13.2019 7.98132 13.4333 8.26667 13.4333H10.3333C10.6187 13.4333 10.85 13.2019 10.85 12.9166V8.78327C10.85 8.49792 10.6187 8.2666 10.3333 8.2666Z" fill="#E86232"/>
</svg>
