<svg width="219" height="58" viewBox="0 0 219 58" fill="none" xmlns="http://www.w3.org/2000/svg">
<path d="M89.5043 15.0064H94.4653V38.8754H103.016V43.5871H89.5251L89.5043 15.0064ZM114.505 22.1671C115.801 22.1509 117.084 22.4347 118.252 22.9964C119.421 23.5581 120.444 24.3824 121.241 25.405V22.5925H125.869V43.6287H121.241V40.8157C120.444 41.8383 119.421 42.6627 118.252 43.2244C117.084 43.7861 115.801 44.0699 114.504 44.0536C108.734 44.0536 104.355 39.1241 104.355 33.1053C104.355 27.0858 108.735 22.1671 114.505 22.1671ZM115.346 26.3802C111.599 26.3802 109.119 29.3277 109.119 33.1053C109.119 36.8828 111.64 39.8405 115.346 39.8405C119.051 39.8405 121.573 36.8929 121.573 33.1053C121.573 29.317 119.092 26.3802 115.346 26.3802ZM129.47 39.9755L140.501 26.796H129.635V22.5925H146.479V26.2974L135.489 39.4257H146.728V43.6287H129.47V39.9755ZM158.497 22.1671C159.793 22.1509 161.076 22.4347 162.244 22.9964C163.412 23.5581 164.435 24.3824 165.232 25.405V22.5925H169.86V43.6287H165.232V40.8157C164.435 41.8382 163.412 42.6625 162.244 43.2242C161.076 43.786 159.793 44.0698 158.497 44.0536C152.727 44.0536 148.357 39.1241 148.357 33.1053C148.357 27.0858 152.727 22.1671 158.497 22.1671ZM159.337 26.3802C155.59 26.3802 153.11 29.3277 153.11 33.1053C153.11 36.8828 155.633 39.8405 159.337 39.8405C163.042 39.8405 165.564 36.8929 165.564 33.1053C165.564 29.317 163.084 26.3802 159.337 26.3802ZM183.082 22.1671C184.377 22.1501 185.658 22.4337 186.825 22.9955C187.992 23.5573 189.013 24.3821 189.807 25.405V13.3154H194.435V43.6287H189.807V40.8167C189.013 41.8396 187.992 42.6644 186.825 43.2262C185.658 43.788 184.377 44.0716 183.082 44.0546C177.312 44.0546 172.932 39.1252 172.932 33.1063C172.932 27.0869 177.312 22.1671 183.082 22.1671ZM183.922 26.3813C180.176 26.3813 177.696 29.3288 177.696 33.1063C177.696 36.8839 180.228 39.8415 183.922 39.8415C187.618 39.8415 190.149 36.894 190.149 33.1063C190.149 29.3181 187.669 26.3813 183.922 26.3813ZM207.657 22.1671C208.952 22.1501 210.233 22.4336 211.4 22.9954C212.567 23.5572 213.587 24.382 214.382 25.405V22.5925H219V43.6287H214.361V40.8157C213.567 41.8386 212.546 42.6634 211.379 43.2252C210.212 43.7871 208.931 44.0706 207.636 44.0536C201.866 44.0536 197.487 39.1241 197.487 33.1053C197.487 27.0858 201.887 22.1671 207.657 22.1671ZM208.498 26.3802C204.751 26.3802 202.27 29.3277 202.27 33.1053C202.27 36.8828 204.803 39.8405 208.498 39.8405C212.192 39.8405 214.724 36.8929 214.724 33.1053C214.724 29.317 212.243 26.3802 208.498 26.3802Z" fill="#000083"/>
<path d="M35.3568 57.3864C34.8544 57.3895 34.3604 57.2605 33.9241 57.0141C30.1851 54.8504 2.4946 37.4885 1.44894 36.9588C1.05745 36.7764 0.719731 36.4959 0.468536 36.1446C0.217341 35.7933 0.0611893 35.383 0.0152213 34.9535V10.6003C0.00541435 10.1532 0.109536 9.71092 0.317785 9.31515C0.526035 8.91939 0.831563 8.58312 1.20561 8.338L1.40489 8.22368C4.08458 6.56132 13.0519 1.08866 14.4709 0.301007C14.7962 0.107945 15.1666 0.00411607 15.5449 0C15.8994 0.00419522 16.2476 0.0922948 16.5622 0.258006C16.5622 0.258006 29.1101 8.43763 31.0305 9.1676C32.3772 9.78613 33.8457 10.0944 35.3274 10.0696C37.0071 10.1048 38.6668 9.69986 40.1414 8.89491C42.0167 7.90799 54.0077 0.302056 54.1357 0.302056C54.4377 0.119564 54.7859 0.0251713 55.1383 0.0293665C55.5169 0.0314641 55.8882 0.135296 56.2123 0.330373C57.8453 1.23235 68.9615 8.03699 69.4346 8.338C69.8188 8.56985 70.1359 8.898 70.3544 9.29C70.573 9.68199 70.6854 10.1242 70.6805 10.573V34.9252C70.6375 35.3553 70.4827 35.7666 70.2316 36.1184C69.9805 36.4701 69.6417 36.7501 69.2489 36.9305C68.2033 37.5032 40.5987 54.8651 36.7884 56.9858C36.3545 57.2431 35.8613 57.3813 35.3568 57.3864Z" fill="url(#paint0_linear_301_819)"/>
<path d="M35.2131 57.387H35.3568C35.8581 57.3902 36.3531 57.2612 36.7884 57.0147C40.5274 54.851 68.2043 37.4891 69.2489 36.9595C69.6419 36.7792 69.9808 36.4993 70.2321 36.1475C70.4835 35.7957 70.6384 35.3843 70.6815 34.9541V10.6009C70.6862 10.1889 70.5931 9.78164 70.4099 9.4126L35.2131 28.7368V57.387Z" fill="url(#paint1_linear_301_819)"/>
<path d="M35.0908 57.043H34.9487C34.4527 57.0461 33.9629 56.9185 33.5323 56.6746C29.8331 54.534 2.45104 37.357 1.41756 36.833C1.02878 36.6547 0.69342 36.3777 0.444771 36.0297C0.196125 35.6817 0.0428429 35.2747 0.000156403 34.8491V10.7552C-0.0044899 10.3476 0.087616 9.9447 0.268906 9.57959L35.0908 28.698V57.043Z" fill="url(#paint2_linear_301_819)"/>
<defs>
<linearGradient id="paint0_linear_301_819" x1="-0.0277797" y1="0.524403" x2="69.9894" y2="-0.0178295" gradientUnits="userSpaceOnUse">
<stop stop-color="#FFB900"/>
<stop offset="0.338" stop-color="#F38000"/>
<stop offset="0.567" stop-color="#F83C72"/>
<stop offset="0.78" stop-color="#FC1CBE"/>
<stop offset="0.93" stop-color="#FE08ED"/>
<stop offset="1" stop-color="#FF00FF"/>
</linearGradient>
<linearGradient id="paint1_linear_301_819" x1="19.6425" y1="51.3983" x2="91.0284" y2="11.8731" gradientUnits="userSpaceOnUse">
<stop stop-color="#EE0A3F"/>
<stop offset="1" stop-color="#EE0A3F" stop-opacity="0"/>
</linearGradient>
<linearGradient id="paint2_linear_301_819" x1="26.5895" y1="41.0977" x2="-7.90557" y2="13.3099" gradientUnits="userSpaceOnUse">
<stop stop-color="#ED6600"/>
<stop offset="1" stop-color="#F98200"/>
</linearGradient>
</defs>
</svg>
