<svg width="175" height="37" viewBox="0 0 175 37" fill="none" xmlns="http://www.w3.org/2000/svg">
<path d="M20.8331 0.00244141C20.8161 0.0319624 17.7408 6.12822 13.3564 13.5701C8.96127 21.03 7.33313 25.5024 7.33313 25.5024L17.7771 26.9475L17.7754 26.9571C23.8175 26.8394 29.2678 22.8429 30.8761 16.8043C31.3789 14.9167 31.4547 13.0165 31.1631 11.2005C30.3638 5.85315 26.0019 1.50421 20.8331 0.00244141Z" fill="black"/>
<path d="M23.6912 30.7628L23.6906 30.762C23.6871 30.7285 22.9662 23.8263 22.163 15.343C21.3578 6.83917 20.8331 0.00244072 20.8331 0.00244072L10.8645 7.27034L10.8603 7.26169C6.08859 10.8803 4.04016 17.2419 6.25345 22.9883C6.94531 24.7846 7.98641 26.3419 9.27304 27.6177C13.0141 31.4092 18.6799 32.5824 23.6912 30.7628Z" fill="#FF6A00"/>
<path d="M43.36 18.68V21.224H51.344V23H41.232V12.648H51.328V14.424H43.36V17H49.888V18.68H43.36ZM53.2569 15.048H55.3369V23H53.2569V15.048ZM58.3929 16.76C57.7955 16.76 57.2782 16.8773 56.8409 17.112C56.4035 17.336 56.0515 17.6133 55.7849 17.944C55.5182 18.2747 55.3315 18.5947 55.2249 18.904L55.2089 18.024C55.2195 17.896 55.2622 17.7093 55.3369 17.464C55.4115 17.208 55.5235 16.936 55.6729 16.648C55.8222 16.3493 56.0195 16.0667 56.2649 15.8C56.5102 15.5227 56.8089 15.2987 57.1609 15.128C57.5129 14.9573 57.9235 14.872 58.3929 14.872V16.76ZM66.9268 20.36H68.9428C68.8574 20.904 68.6281 21.3893 68.2548 21.816C67.8921 22.2427 67.3961 22.5787 66.7668 22.824C66.1374 23.0693 65.3694 23.192 64.4628 23.192C63.4494 23.192 62.5534 23.032 61.7748 22.712C60.9961 22.3813 60.3881 21.9067 59.9508 21.288C59.5134 20.6693 59.2948 19.9227 59.2948 19.048C59.2948 18.1733 59.5081 17.4267 59.9348 16.808C60.3614 16.1787 60.9534 15.6987 61.7108 15.368C62.4788 15.0373 63.3748 14.872 64.3988 14.872C65.4441 14.872 66.3134 15.0373 67.0068 15.368C67.7001 15.6987 68.2121 16.2 68.5428 16.872C68.8841 17.5333 69.0281 18.3813 68.9748 19.416H61.3908C61.4441 19.8213 61.5934 20.1893 61.8388 20.52C62.0948 20.8507 62.4361 21.112 62.8628 21.304C63.3001 21.496 63.8174 21.592 64.4148 21.592C65.0761 21.592 65.6254 21.48 66.0628 21.256C66.5108 21.0213 66.7988 20.7227 66.9268 20.36ZM64.3028 16.456C63.5348 16.456 62.9108 16.6267 62.4308 16.968C61.9508 17.2987 61.6414 17.7093 61.5028 18.2H66.9108C66.8574 17.6667 66.6014 17.2453 66.1428 16.936C65.6948 16.616 65.0814 16.456 64.3028 16.456ZM74.3945 23.176C73.6052 23.176 72.8852 23.0053 72.2345 22.664C71.5945 22.312 71.0825 21.8267 70.6985 21.208C70.3252 20.5787 70.1385 19.8533 70.1385 19.032C70.1385 18.1893 70.3305 17.4587 70.7145 16.84C71.0985 16.2213 71.6158 15.7413 72.2665 15.4C72.9278 15.048 73.6745 14.872 74.5065 14.872C75.4238 14.872 76.1598 15.0587 76.7145 15.432C77.2798 15.7947 77.6905 16.2907 77.9465 16.92C78.2025 17.5493 78.3305 18.2533 78.3305 19.032C78.3305 19.5013 78.2558 19.9813 78.1065 20.472C77.9572 20.952 77.7278 21.4 77.4185 21.816C77.1092 22.2213 76.7038 22.552 76.2025 22.808C75.7012 23.0533 75.0985 23.176 74.3945 23.176ZM75.0665 21.576C75.6958 21.576 76.2398 21.4693 76.6985 21.256C77.1572 21.0427 77.5092 20.744 77.7545 20.36C77.9998 19.976 78.1225 19.5333 78.1225 19.032C78.1225 18.488 77.9945 18.0293 77.7385 17.656C77.4932 17.272 77.1412 16.984 76.6825 16.792C76.2345 16.5893 75.6958 16.488 75.0665 16.488C74.1812 16.488 73.4932 16.7227 73.0025 17.192C72.5118 17.6507 72.2665 18.264 72.2665 19.032C72.2665 19.544 72.3838 19.992 72.6185 20.376C72.8532 20.7493 73.1785 21.0427 73.5945 21.256C74.0212 21.4693 74.5118 21.576 75.0665 21.576ZM78.1225 15.048H80.2025V23H78.2665C78.2665 23 78.2505 22.8987 78.2185 22.696C78.1972 22.4827 78.1758 22.216 78.1545 21.896C78.1332 21.576 78.1225 21.2613 78.1225 20.952V15.048ZM81.525 15.048H87.701V16.664H81.525V15.048ZM83.573 12.872H85.653V23H83.573V12.872ZM91.4065 11.56V13.384H88.9905V11.56H91.4065ZM89.1505 15.048H91.2305V23H89.1505V15.048ZM93.4638 11.848H95.5438V23H93.4638V11.848ZM97.3275 20.36H99.2475C99.3648 20.7227 99.6048 21.0213 99.9675 21.256C100.341 21.48 100.826 21.592 101.424 21.592C101.829 21.592 102.144 21.5547 102.368 21.48C102.592 21.4053 102.746 21.2987 102.832 21.16C102.917 21.0107 102.96 20.8453 102.96 20.664C102.96 20.44 102.89 20.2693 102.752 20.152C102.613 20.024 102.4 19.9227 102.112 19.848C101.824 19.7733 101.456 19.704 101.008 19.64C100.56 19.5653 100.128 19.4747 99.7115 19.368C99.2955 19.2613 98.9275 19.1227 98.6075 18.952C98.2875 18.7707 98.0315 18.5467 97.8395 18.28C97.6582 18.0027 97.5675 17.6667 97.5675 17.272C97.5675 16.888 97.6582 16.5467 97.8395 16.248C98.0315 15.9493 98.2928 15.6987 98.6235 15.496C98.9648 15.2933 99.3595 15.1387 99.8075 15.032C100.266 14.9253 100.757 14.872 101.28 14.872C102.069 14.872 102.725 14.9893 103.248 15.224C103.77 15.448 104.16 15.768 104.416 16.184C104.682 16.5893 104.816 17.0587 104.816 17.592H102.976C102.89 17.1973 102.72 16.9147 102.464 16.744C102.208 16.5627 101.813 16.472 101.28 16.472C100.757 16.472 100.362 16.552 100.096 16.712C99.8288 16.872 99.6955 17.0907 99.6955 17.368C99.6955 17.592 99.7755 17.768 99.9355 17.896C100.106 18.0133 100.352 18.1093 100.672 18.184C101.002 18.2587 101.413 18.3387 101.904 18.424C102.32 18.5093 102.714 18.6053 103.088 18.712C103.472 18.8187 103.813 18.9573 104.112 19.128C104.41 19.288 104.645 19.5067 104.816 19.784C104.997 20.0507 105.088 20.392 105.088 20.808C105.088 21.32 104.938 21.752 104.64 22.104C104.352 22.456 103.936 22.728 103.392 22.92C102.848 23.1013 102.197 23.192 101.44 23.192C100.768 23.192 100.186 23.1227 99.6955 22.984C99.2155 22.8347 98.8155 22.648 98.4955 22.424C98.1755 22.1893 97.9248 21.944 97.7435 21.688C97.5728 21.4213 97.4555 21.1707 97.3915 20.936C97.3275 20.7013 97.3062 20.5093 97.3275 20.36ZM111.367 23.192C110.364 23.192 109.479 23.032 108.711 22.712C107.953 22.392 107.361 21.928 106.935 21.32C106.508 20.7013 106.295 19.944 106.295 19.048C106.295 18.152 106.508 17.3947 106.935 16.776C107.361 16.1467 107.953 15.672 108.711 15.352C109.479 15.032 110.364 14.872 111.367 14.872C112.369 14.872 113.244 15.032 113.991 15.352C114.748 15.672 115.34 16.1467 115.767 16.776C116.193 17.3947 116.407 18.152 116.407 19.048C116.407 19.944 116.193 20.7013 115.767 21.32C115.34 21.928 114.748 22.392 113.991 22.712C113.244 23.032 112.369 23.192 111.367 23.192ZM111.367 21.592C111.921 21.592 112.417 21.496 112.855 21.304C113.303 21.1013 113.655 20.8133 113.911 20.44C114.167 20.056 114.295 19.592 114.295 19.048C114.295 18.504 114.167 18.04 113.911 17.656C113.655 17.2613 113.308 16.9627 112.871 16.76C112.433 16.5573 111.932 16.456 111.367 16.456C110.812 16.456 110.311 16.5573 109.863 16.76C109.415 16.9627 109.057 17.256 108.791 17.64C108.535 18.024 108.407 18.4933 108.407 19.048C108.407 19.592 108.535 20.056 108.791 20.44C109.047 20.8133 109.399 21.1013 109.847 21.304C110.295 21.496 110.801 21.592 111.367 21.592ZM127.144 23H125.064V15.048H127.144V23ZM125.176 19.176L125.192 19.72C125.171 19.8693 125.118 20.088 125.032 20.376C124.947 20.6533 124.814 20.952 124.632 21.272C124.462 21.592 124.238 21.9013 123.96 22.2C123.683 22.488 123.342 22.728 122.936 22.92C122.531 23.1013 122.051 23.192 121.496 23.192C121.059 23.192 120.627 23.1387 120.2 23.032C119.784 22.9253 119.406 22.7493 119.064 22.504C118.723 22.248 118.451 21.9067 118.248 21.48C118.046 21.0533 117.944 20.5147 117.944 19.864V15.048H120.024V19.512C120.024 20.024 120.104 20.4293 120.264 20.728C120.435 21.016 120.68 21.2187 121 21.336C121.32 21.4533 121.699 21.512 122.136 21.512C122.712 21.512 123.208 21.3893 123.624 21.144C124.04 20.888 124.376 20.5787 124.632 20.216C124.899 19.8533 125.08 19.5067 125.176 19.176ZM129.198 11.848H131.278V23H129.198V11.848ZM132.509 15.048H138.685V16.664H132.509V15.048ZM134.557 12.872H136.637V23H134.557V12.872ZM142.391 11.56V13.384H139.975V11.56H142.391ZM140.135 15.048H142.215V23H140.135V15.048ZM148.976 23.192C147.973 23.192 147.088 23.032 146.32 22.712C145.563 22.392 144.971 21.928 144.544 21.32C144.117 20.7013 143.904 19.944 143.904 19.048C143.904 18.152 144.117 17.3947 144.544 16.776C144.971 16.1467 145.563 15.672 146.32 15.352C147.088 15.032 147.973 14.872 148.976 14.872C149.979 14.872 150.853 15.032 151.6 15.352C152.357 15.672 152.949 16.1467 153.376 16.776C153.803 17.3947 154.016 18.152 154.016 19.048C154.016 19.944 153.803 20.7013 153.376 21.32C152.949 21.928 152.357 22.392 151.6 22.712C150.853 23.032 149.979 23.192 148.976 23.192ZM148.976 21.592C149.531 21.592 150.027 21.496 150.464 21.304C150.912 21.1013 151.264 20.8133 151.52 20.44C151.776 20.056 151.904 19.592 151.904 19.048C151.904 18.504 151.776 18.04 151.52 17.656C151.264 17.2613 150.917 16.9627 150.48 16.76C150.043 16.5573 149.541 16.456 148.976 16.456C148.421 16.456 147.92 16.5573 147.472 16.76C147.024 16.9627 146.667 17.256 146.4 17.64C146.144 18.024 146.016 18.4933 146.016 19.048C146.016 19.592 146.144 20.056 146.4 20.44C146.656 20.8133 147.008 21.1013 147.456 21.304C147.904 21.496 148.411 21.592 148.976 21.592ZM155.554 15.048H157.634V23H155.554V15.048ZM161.33 14.872C161.82 14.872 162.274 14.936 162.69 15.064C163.106 15.192 163.468 15.3893 163.778 15.656C164.087 15.9227 164.327 16.264 164.498 16.68C164.668 17.0853 164.754 17.5707 164.754 18.136V23H162.674V18.504C162.674 17.832 162.508 17.3413 162.178 17.032C161.858 16.712 161.33 16.552 160.594 16.552C160.039 16.552 159.538 16.6587 159.09 16.872C158.642 17.0853 158.279 17.3573 158.002 17.688C157.724 18.008 157.564 18.344 157.522 18.696L157.506 17.88C157.559 17.5067 157.682 17.144 157.874 16.792C158.066 16.44 158.322 16.12 158.642 15.832C158.972 15.5333 159.362 15.2987 159.81 15.128C160.258 14.9573 160.764 14.872 161.33 14.872ZM166.328 20.36H168.248C168.365 20.7227 168.605 21.0213 168.968 21.256C169.341 21.48 169.826 21.592 170.424 21.592C170.829 21.592 171.144 21.5547 171.368 21.48C171.592 21.4053 171.746 21.2987 171.832 21.16C171.917 21.0107 171.96 20.8453 171.96 20.664C171.96 20.44 171.89 20.2693 171.752 20.152C171.613 20.024 171.4 19.9227 171.112 19.848C170.824 19.7733 170.456 19.704 170.008 19.64C169.56 19.5653 169.128 19.4747 168.712 19.368C168.296 19.2613 167.928 19.1227 167.608 18.952C167.288 18.7707 167.032 18.5467 166.84 18.28C166.658 18.0027 166.568 17.6667 166.568 17.272C166.568 16.888 166.658 16.5467 166.84 16.248C167.032 15.9493 167.293 15.6987 167.624 15.496C167.965 15.2933 168.36 15.1387 168.808 15.032C169.266 14.9253 169.757 14.872 170.28 14.872C171.069 14.872 171.725 14.9893 172.248 15.224C172.77 15.448 173.16 15.768 173.416 16.184C173.682 16.5893 173.816 17.0587 173.816 17.592H171.976C171.89 17.1973 171.72 16.9147 171.464 16.744C171.208 16.5627 170.813 16.472 170.28 16.472C169.757 16.472 169.362 16.552 169.096 16.712C168.829 16.872 168.696 17.0907 168.696 17.368C168.696 17.592 168.776 17.768 168.936 17.896C169.106 18.0133 169.352 18.1093 169.672 18.184C170.002 18.2587 170.413 18.3387 170.904 18.424C171.32 18.5093 171.714 18.6053 172.088 18.712C172.472 18.8187 172.813 18.9573 173.112 19.128C173.41 19.288 173.645 19.5067 173.816 19.784C173.997 20.0507 174.088 20.392 174.088 20.808C174.088 21.32 173.938 21.752 173.64 22.104C173.352 22.456 172.936 22.728 172.392 22.92C171.848 23.1013 171.197 23.192 170.44 23.192C169.768 23.192 169.186 23.1227 168.696 22.984C168.216 22.8347 167.816 22.648 167.496 22.424C167.176 22.1893 166.925 21.944 166.743 21.688C166.573 21.4213 166.456 21.1707 166.392 20.936C166.328 20.7013 166.306 20.5093 166.328 20.36Z" fill="#FF6A00"/>
</svg>
