<svg width="277" height="58" viewBox="0 0 277 58" fill="none" xmlns="http://www.w3.org/2000/svg">
<path d="M32.8569 0.00390625C32.83 0.0504651 27.9798 9.66513 21.0649 21.402C14.1332 33.1674 11.5654 40.2211 11.5654 40.2211L28.0371 42.5002L28.0343 42.5153C37.5637 42.3296 46.1595 36.0266 48.6961 26.5029C49.489 23.5258 49.6086 20.529 49.1487 17.6649C47.8881 9.23131 41.0088 2.37241 32.8569 0.00390625Z" fill="white"/>
<path d="M37.3644 48.5175L37.3635 48.5161C37.358 48.4634 36.221 37.5776 34.9542 24.1983C33.6843 10.7864 32.8569 0.00393971 32.8569 0.00393971L17.1349 11.4665L17.1283 11.4528C9.60262 17.1598 6.37195 27.1931 9.86262 36.256C10.9538 39.089 12.5957 41.545 14.625 43.5572C20.5252 49.5369 29.461 51.3872 37.3644 48.5175Z" fill="#FF6A00"/>
<path d="M68.3849 29.6897V33.7019H80.9768V36.5029H65.0287V20.1763H80.9516V22.9774H68.3849V27.0401H78.6805V29.6897H68.3849ZM83.9937 23.9615H87.2741V36.5029H83.9937V23.9615ZM92.0939 26.6616C91.1518 26.6616 90.3359 26.8466 89.6462 27.2167C88.9564 27.57 88.4013 28.0074 87.9807 28.5289C87.5601 29.0504 87.2657 29.5551 87.0975 30.043L87.0723 28.6551C87.0891 28.4532 87.1564 28.1588 87.2741 27.7719C87.3919 27.3681 87.5685 26.9391 87.8041 26.4849C88.0396 26.0139 88.3508 25.5681 88.7377 25.1475C89.1247 24.7101 89.5957 24.3568 90.1508 24.0877C90.706 23.8185 91.3537 23.6839 92.0939 23.6839V26.6616ZM105.553 32.3393H108.733C108.598 33.1972 108.236 33.9627 107.647 34.6356C107.075 35.3085 106.293 35.8384 105.301 36.2254C104.308 36.6123 103.097 36.8057 101.667 36.8057C100.069 36.8057 98.6557 36.5534 97.4276 36.0487C96.1995 35.5272 95.2406 34.7786 94.5509 33.8029C93.8611 32.8271 93.5163 31.6495 93.5163 30.2701C93.5163 28.8906 93.8527 27.713 94.5256 26.7373C95.1986 25.7447 96.1322 24.9877 97.3266 24.4662C98.5379 23.9447 99.951 23.6839 101.566 23.6839C103.215 23.6839 104.586 23.9447 105.679 24.4662C106.773 24.9877 107.58 25.7784 108.102 26.8382C108.64 27.8812 108.867 29.2186 108.783 30.8504H96.822C96.9061 31.4897 97.1416 32.0701 97.5285 32.5916C97.9323 33.1131 98.4706 33.5253 99.1435 33.8281C99.8333 34.1309 100.649 34.2823 101.591 34.2823C102.634 34.2823 103.501 34.1057 104.19 33.7524C104.897 33.3823 105.351 32.9112 105.553 32.3393ZM101.415 26.1821C100.203 26.1821 99.2192 26.4513 98.4622 26.9896C97.7052 27.5111 97.2173 28.1588 96.9986 28.9326H105.528C105.444 28.0915 105.04 27.427 104.317 26.9391C103.61 26.4344 102.643 26.1821 101.415 26.1821ZM117.331 36.7805C116.086 36.7805 114.95 36.5113 113.924 35.973C112.915 35.4179 112.107 34.6524 111.502 33.6767C110.913 32.6841 110.618 31.5402 110.618 30.2448C110.618 28.9158 110.921 27.7635 111.527 26.7877C112.132 25.812 112.948 25.055 113.975 24.5166C115.018 23.9615 116.195 23.6839 117.507 23.6839C118.954 23.6839 120.115 23.9783 120.99 24.5671C121.881 25.1391 122.529 25.9214 122.933 26.9139C123.336 27.9064 123.538 29.0168 123.538 30.2448C123.538 30.985 123.421 31.7421 123.185 32.5159C122.95 33.2729 122.588 33.9795 122.1 34.6356C121.612 35.2749 120.973 35.7964 120.182 36.2001C119.392 36.587 118.441 36.7805 117.331 36.7805ZM118.391 34.2571C119.383 34.2571 120.241 34.0888 120.964 33.7524C121.688 33.4159 122.243 32.9449 122.63 32.3393C123.017 31.7336 123.21 31.0355 123.21 30.2448C123.21 29.3869 123.008 28.6635 122.605 28.0747C122.218 27.4691 121.663 27.0148 120.939 26.712C120.233 26.3924 119.383 26.2326 118.391 26.2326C116.994 26.2326 115.909 26.6027 115.135 27.3429C114.361 28.0663 113.975 29.0336 113.975 30.2448C113.975 31.0523 114.16 31.7589 114.53 32.3645C114.9 32.9533 115.413 33.4159 116.069 33.7524C116.742 34.0888 117.516 34.2571 118.391 34.2571ZM123.21 23.9615H126.491V36.5029H123.437C123.437 36.5029 123.412 36.3431 123.362 36.0235C123.328 35.687 123.294 35.2664 123.261 34.7618C123.227 34.2571 123.21 33.7608 123.21 33.2729V23.9615ZM128.577 23.9615H138.317V26.5102H128.577V23.9615ZM131.807 20.5296H135.087V36.5029H131.807V20.5296ZM144.161 18.4604V21.3371H140.351V18.4604H144.161ZM140.603 23.9615H143.884V36.5029H140.603V23.9615ZM147.406 18.9146H150.686V36.5029H147.406V18.9146ZM153.499 32.3393H156.527C156.713 32.9112 157.091 33.3823 157.663 33.7524C158.252 34.1057 159.017 34.2823 159.959 34.2823C160.599 34.2823 161.095 34.2234 161.448 34.1057C161.801 33.9879 162.045 33.8197 162.18 33.601C162.315 33.3655 162.382 33.1047 162.382 32.8187C162.382 32.4654 162.272 32.1963 162.054 32.0112C161.835 31.8094 161.499 31.6495 161.044 31.5318C160.59 31.414 160.01 31.3047 159.303 31.2037C158.597 31.086 157.915 30.943 157.259 30.7747C156.603 30.6065 156.023 30.3878 155.518 30.1187C155.013 29.8327 154.61 29.4794 154.307 29.0588C154.021 28.6214 153.878 28.0915 153.878 27.4691C153.878 26.8634 154.021 26.3251 154.307 25.8541C154.61 25.383 155.022 24.9877 155.543 24.668C156.082 24.3484 156.704 24.1045 157.411 23.9363C158.134 23.768 158.908 23.6839 159.732 23.6839C160.977 23.6839 162.012 23.869 162.836 24.2391C163.66 24.5923 164.274 25.097 164.678 25.7531C165.099 26.3924 165.309 27.1326 165.309 27.9737H162.407C162.272 27.3513 162.003 26.9055 161.6 26.6363C161.196 26.3503 160.573 26.2073 159.732 26.2073C158.908 26.2073 158.285 26.3335 157.865 26.5859C157.444 26.8382 157.234 27.1831 157.234 27.6205C157.234 27.9737 157.36 28.2513 157.613 28.4532C157.882 28.6382 158.269 28.7896 158.773 28.9074C159.295 29.0252 159.943 29.1513 160.716 29.2859C161.372 29.4205 161.995 29.5719 162.584 29.7401C163.189 29.9084 163.728 30.1271 164.199 30.3962C164.67 30.6486 165.04 30.9934 165.309 31.4308C165.595 31.8514 165.738 32.3897 165.738 33.0458C165.738 33.8533 165.502 34.5347 165.031 35.0898C164.577 35.645 163.921 36.0739 163.063 36.3768C162.205 36.6627 161.179 36.8057 159.985 36.8057C158.925 36.8057 158.008 36.6964 157.234 36.4777C156.477 36.2422 155.846 35.9478 155.341 35.5945C154.837 35.2244 154.441 34.8375 154.155 34.4337C153.886 34.0131 153.701 33.6178 153.6 33.2477C153.499 32.8776 153.466 32.5748 153.499 32.3393ZM175.641 36.8057C174.06 36.8057 172.664 36.5534 171.452 36.0487C170.258 35.544 169.324 34.8122 168.651 33.8533C167.978 32.8776 167.642 31.6832 167.642 30.2701C167.642 28.8569 167.978 27.6625 168.651 26.6868C169.324 25.6942 170.258 24.9456 171.452 24.4409C172.664 23.9363 174.06 23.6839 175.641 23.6839C177.223 23.6839 178.602 23.9363 179.78 24.4409C180.974 24.9456 181.908 25.6942 182.581 26.6868C183.254 27.6625 183.59 28.8569 183.59 30.2701C183.59 31.6832 183.254 32.8776 182.581 33.8533C181.908 34.8122 180.974 35.544 179.78 36.0487C178.602 36.5534 177.223 36.8057 175.641 36.8057ZM175.641 34.2823C176.516 34.2823 177.298 34.1309 177.988 33.8281C178.695 33.5085 179.25 33.0542 179.654 32.4654C180.057 31.8598 180.259 31.128 180.259 30.2701C180.259 29.4121 180.057 28.6803 179.654 28.0747C179.25 27.4522 178.703 26.9812 178.013 26.6616C177.324 26.3419 176.533 26.1821 175.641 26.1821C174.766 26.1821 173.976 26.3419 173.269 26.6616C172.563 26.9812 171.999 27.4438 171.579 28.0494C171.175 28.6551 170.973 29.3953 170.973 30.2701C170.973 31.128 171.175 31.8598 171.579 32.4654C171.982 33.0542 172.537 33.5085 173.244 33.8281C173.951 34.1309 174.75 34.2823 175.641 34.2823ZM200.525 36.5029H197.244V23.9615H200.525V36.5029ZM197.421 30.4719L197.446 31.3299C197.413 31.5654 197.328 31.9103 197.194 32.3645C197.059 32.8019 196.849 33.2729 196.563 33.7776C196.294 34.2823 195.941 34.7702 195.503 35.2412C195.066 35.6954 194.527 36.0739 193.888 36.3768C193.249 36.6627 192.492 36.8057 191.617 36.8057C190.927 36.8057 190.246 36.7216 189.573 36.5534C188.917 36.3852 188.32 36.1076 187.782 35.7207C187.243 35.3169 186.814 34.7786 186.495 34.1057C186.175 33.4328 186.015 32.5832 186.015 31.557V23.9615H189.296V31.0019C189.296 31.8094 189.422 32.4486 189.674 32.9197C189.943 33.3739 190.33 33.6935 190.835 33.8786C191.34 34.0636 191.937 34.1561 192.626 34.1561C193.535 34.1561 194.317 33.9627 194.973 33.5758C195.629 33.172 196.159 32.6841 196.563 32.1122C196.984 31.5402 197.27 30.9934 197.421 30.4719ZM203.764 18.9146H207.044V36.5029H203.764V18.9146ZM208.986 23.9615H218.727V26.5102H208.986V23.9615ZM212.216 20.5296H215.497V36.5029H212.216V20.5296ZM224.571 18.4604V21.3371H220.76V18.4604H224.571ZM221.013 23.9615H224.293V36.5029H221.013V23.9615ZM234.957 36.8057C233.375 36.8057 231.979 36.5534 230.768 36.0487C229.573 35.544 228.64 34.8122 227.967 33.8533C227.294 32.8776 226.957 31.6832 226.957 30.2701C226.957 28.8569 227.294 27.6625 227.967 26.6868C228.64 25.6942 229.573 24.9456 230.768 24.4409C231.979 23.9363 233.375 23.6839 234.957 23.6839C236.538 23.6839 237.917 23.9363 239.095 24.4409C240.289 24.9456 241.223 25.6942 241.896 26.6868C242.569 27.6625 242.905 28.8569 242.905 30.2701C242.905 31.6832 242.569 32.8776 241.896 33.8533C241.223 34.8122 240.289 35.544 239.095 36.0487C237.917 36.5534 236.538 36.8057 234.957 36.8057ZM234.957 34.2823C235.831 34.2823 236.614 34.1309 237.303 33.8281C238.01 33.5085 238.565 33.0542 238.969 32.4654C239.373 31.8598 239.574 31.128 239.574 30.2701C239.574 29.4121 239.373 28.6803 238.969 28.0747C238.565 27.4522 238.018 26.9812 237.329 26.6616C236.639 26.3419 235.848 26.1821 234.957 26.1821C234.082 26.1821 233.291 26.3419 232.585 26.6616C231.878 26.9812 231.314 27.4438 230.894 28.0494C230.49 28.6551 230.288 29.3953 230.288 30.2701C230.288 31.128 230.49 31.8598 230.894 32.4654C231.298 33.0542 231.853 33.5085 232.559 33.8281C233.266 34.1309 234.065 34.2823 234.957 34.2823ZM245.33 23.9615H248.611V36.5029H245.33V23.9615ZM254.44 23.6839C255.214 23.6839 255.929 23.7848 256.585 23.9867C257.241 24.1886 257.813 24.4998 258.301 24.9204C258.789 25.341 259.167 25.8793 259.436 26.5354C259.706 27.1747 259.84 27.9401 259.84 28.8317V36.5029H256.56V29.4121C256.56 28.3523 256.299 27.5784 255.777 27.0905C255.273 26.5859 254.44 26.3335 253.279 26.3335C252.404 26.3335 251.614 26.5017 250.907 26.8382C250.201 27.1747 249.629 27.6036 249.191 28.1251C248.754 28.6298 248.502 29.1598 248.434 29.7149L248.409 28.428C248.493 27.8392 248.687 27.2672 248.989 26.712C249.292 26.1569 249.696 25.6522 250.201 25.198C250.722 24.7269 251.336 24.3568 252.043 24.0877C252.749 23.8185 253.548 23.6839 254.44 23.6839ZM262.322 32.3393H265.35C265.535 32.9112 265.914 33.3823 266.486 33.7524C267.075 34.1057 267.84 34.2823 268.782 34.2823C269.421 34.2823 269.918 34.2234 270.271 34.1057C270.624 33.9879 270.868 33.8197 271.003 33.601C271.137 33.3655 271.205 33.1047 271.205 32.8187C271.205 32.4654 271.095 32.1963 270.877 32.0112C270.658 31.8094 270.321 31.6495 269.867 31.5318C269.413 31.414 268.833 31.3047 268.126 31.2037C267.42 31.086 266.738 30.943 266.082 30.7747C265.426 30.6065 264.846 30.3878 264.341 30.1187C263.836 29.8327 263.433 29.4794 263.13 29.0588C262.844 28.6214 262.701 28.0915 262.701 27.4691C262.701 26.8634 262.844 26.3251 263.13 25.8541C263.433 25.383 263.845 24.9877 264.366 24.668C264.905 24.3484 265.527 24.1045 266.234 23.9363C266.957 23.768 267.731 23.6839 268.555 23.6839C269.8 23.6839 270.835 23.869 271.659 24.2391C272.483 24.5923 273.097 25.097 273.501 25.7531C273.922 26.3924 274.132 27.1326 274.132 27.9737H271.23C271.095 27.3513 270.826 26.9055 270.422 26.6363C270.019 26.3503 269.396 26.2073 268.555 26.2073C267.731 26.2073 267.108 26.3335 266.688 26.5859C266.267 26.8382 266.057 27.1831 266.057 27.6205C266.057 27.9737 266.183 28.2513 266.435 28.4532C266.705 28.6382 267.091 28.7896 267.596 28.9074C268.118 29.0252 268.765 29.1513 269.539 29.2859C270.195 29.4205 270.818 29.5719 271.407 29.7401C272.012 29.9084 272.551 30.1271 273.022 30.3962C273.493 30.6486 273.863 30.9934 274.132 31.4308C274.418 31.8514 274.561 32.3897 274.561 33.0458C274.561 33.8533 274.325 34.5347 273.854 35.0898C273.4 35.645 272.744 36.0739 271.886 36.3768C271.028 36.6627 270.002 36.8057 268.807 36.8057C267.748 36.8057 266.831 36.6964 266.057 36.4777C265.3 36.2422 264.669 35.9478 264.164 35.5945C263.66 35.2244 263.264 34.8375 262.978 34.4337C262.709 34.0131 262.524 33.6178 262.423 33.2477C262.322 32.8776 262.289 32.5748 262.322 32.3393Z" fill="#FF6A00"/>
</svg>
