<svg width="213" height="50" viewBox="0 0 213 50" fill="none" xmlns="http://www.w3.org/2000/svg">
<mask id="mask0_14_395" style="mask-type:luminance" maskUnits="userSpaceOnUse" x="0" y="0" width="213" height="50">
<path d="M213 0H0V49.1573H213V0Z" fill="white"/>
</mask>
<g mask="url(#mask0_14_395)">
<path d="M31.43 16.6423C35.0026 16.6875 37.9873 17.9085 40.4746 20.3505C42.9619 22.7926 44.1829 25.6868 44.1829 29.169L44.0924 45.3588C44.0924 47.3034 42.4644 48.841 40.4294 48.841C38.4396 48.841 36.8115 47.2582 36.8568 45.3136L36.9472 29.1238C36.9924 27.6767 36.4045 26.2747 35.3192 25.2798C34.2791 24.2397 32.9676 23.697 31.3848 23.697C29.8472 23.6518 28.3549 24.2849 27.3147 25.3703C26.2746 26.4104 25.7772 27.8123 25.7772 29.2594L25.6867 45.2231C25.6867 47.1677 24.0135 48.7505 21.9784 48.7505C19.9434 48.7505 18.3154 47.1225 18.3154 45.1779L18.4058 29.1238C18.451 27.7219 17.9084 26.32 16.9135 25.3251C15.8281 24.1945 14.4714 23.6518 12.8434 23.6066C11.351 23.5614 9.94913 24.104 8.909 25.1442C7.82365 26.1843 7.28097 27.4505 7.28097 28.9429L7.19053 45.0875C7.19053 47.0321 5.56251 48.6149 3.52747 48.5696C1.53766 48.5696 -0.0903625 46.9868 -0.0903625 45.0422L8.36477e-05 28.9429C8.36477e-05 25.913 1.13066 23.0187 3.16569 20.8028C5.83384 17.9537 9.08989 16.5066 12.8886 16.5518C16.5065 16.597 19.6268 17.8633 22.1141 20.3958C24.737 17.8633 27.8122 16.6423 31.43 16.6423ZM77.1956 34.5958L56.4383 34.4601C56.6192 36.9473 57.4332 38.9372 58.9256 40.4295C60.4179 41.8767 62.3173 42.6454 64.5784 42.6454C66.3873 42.6454 67.8797 42.2384 69.0555 41.4244C69.7338 40.927 70.5026 40.2034 71.3166 39.1633C72.3568 37.8518 74.2109 37.49 75.7033 38.2588L75.9294 38.3945C77.7835 39.3894 78.1905 41.7862 76.8338 43.369C76.6077 43.6403 76.3816 43.9117 76.1103 44.1378C75.1154 45.1779 73.9848 46.1276 72.7185 46.8512C71.4975 47.5747 70.1861 48.0722 68.8294 48.3888C67.4275 48.7053 65.9351 48.8862 64.2619 48.8862C59.6039 48.841 55.8504 47.3938 53.0014 44.4544C50.1975 41.5149 48.7956 37.6257 48.8408 32.7868C48.8861 27.9932 50.288 24.104 53.0466 21.1645C55.8504 18.2703 59.5135 16.8231 64.081 16.8684C68.6937 16.9136 72.3568 18.3607 74.9797 21.2098C77.6026 24.0588 78.9141 27.9932 78.9141 32.9677C78.9141 33.8722 78.1001 34.5958 77.1956 34.5958ZM71.4975 28.8072C70.5026 25.0537 68.1058 23.1996 64.2166 23.1544C63.3574 23.1544 62.5434 23.2448 61.7294 23.5161C60.9606 23.7423 60.237 24.1493 59.6039 24.6467C58.9708 25.1442 58.4281 25.7321 57.9759 26.4104C57.4784 27.134 57.1619 27.9028 56.9357 28.762L71.4975 28.8072ZM111.746 34.5958L90.9886 34.4601C91.1695 36.9473 91.9835 38.9372 93.4759 40.4295C94.9682 41.8767 96.8676 42.6454 99.1287 42.6454C100.938 42.6454 102.43 42.2384 103.606 41.4244C104.329 40.927 105.053 40.2034 105.867 39.1633C106.907 37.8518 108.761 37.49 110.254 38.2588L110.48 38.3945C112.334 39.3894 112.741 41.7862 111.384 43.369C111.158 43.6403 110.932 43.9117 110.661 44.1378C109.666 45.1779 108.535 46.1276 107.269 46.8512C106.048 47.5747 104.736 48.0722 103.38 48.3888C101.978 48.7053 100.485 48.8862 98.8122 48.8862C94.1542 48.841 90.3555 47.3938 87.5517 44.4544C84.7478 41.5149 83.3459 37.6257 83.3912 32.7868C83.4364 27.9932 84.8383 24.104 87.5969 21.1645C90.4007 18.2703 94.0638 16.8231 98.6313 16.8684C103.244 16.9136 106.907 18.3607 109.53 21.2098C112.153 24.0588 113.464 27.9932 113.464 32.9677C113.464 33.8722 112.696 34.5958 111.746 34.5958ZM106.048 28.8072C105.053 25.0537 102.656 23.1996 98.767 23.1544C97.9077 23.1544 97.0937 23.2448 96.2797 23.5161C94.7421 24.0136 93.4307 25.0085 92.5262 26.3652C92.0287 27.0888 91.7122 27.8575 91.4861 28.7168L106.048 28.8072ZM151.723 0.000212649C153.758 0.000212649 155.386 1.62824 155.386 3.61805L155.25 19.4913C157.919 17.2302 160.813 16.6875 164.024 16.7327C167.189 16.7327 170.536 18.1346 172.706 20.3958C174.561 22.3856 175.42 25.5512 175.42 29.8926L175.329 45.3136C175.329 47.3034 173.656 48.8862 171.621 48.8862C169.586 48.8862 167.913 47.2582 167.958 45.2684L168.048 30.5257C168.048 28.0384 167.641 26.2295 166.737 25.1442C165.833 24.0136 164.385 23.4709 162.35 23.4709C159.773 23.4709 157.919 24.2397 156.878 25.7321C155.838 27.3149 155.296 29.983 155.25 33.827L155.16 45.2684C155.16 47.2582 153.487 48.841 151.406 48.7958C149.371 48.7958 147.743 47.1677 147.743 45.1779L148.06 3.66327C148.015 1.5378 149.688 -0.0450103 151.723 0.000212649ZM179.806 32.9225C179.852 28.6263 181.434 25.0085 184.645 22.0238C187.811 19.0391 191.7 17.5467 196.268 17.5919C200.835 17.6372 204.724 19.1747 207.89 22.2047C211.01 25.2346 212.548 28.9881 212.548 33.3747C212.503 37.8518 210.92 41.5149 207.709 44.5448C204.498 47.5295 200.564 48.9766 195.951 48.9314C191.338 48.8862 187.494 47.3486 184.419 44.2735C181.299 41.2888 179.761 37.49 179.806 32.9225ZM187.042 33.1034C187.042 36.0881 187.811 38.3945 189.439 40.1582C191.112 41.9219 193.328 42.8263 196.087 42.8263C198.845 42.8263 201.061 42.0123 202.734 40.2938C204.408 38.5754 205.267 36.269 205.267 33.42C205.267 30.5257 204.498 28.2193 202.825 26.5009C201.152 24.7372 198.936 23.8327 196.177 23.8327C193.464 23.8327 191.293 24.6919 189.575 26.4104C187.947 28.0837 187.087 30.3448 187.042 33.1034ZM139.558 32.4703C141.774 34.0983 142.905 36.2238 142.95 38.8015V38.8919C142.95 42.0575 141.729 44.6352 139.377 46.3989C137.252 48.027 134.312 48.8862 130.875 48.8862C127.212 48.8862 123.368 47.8461 120.022 45.9919C118.258 45.0423 117.715 42.8263 118.846 41.1531C119.524 40.2034 120.61 39.6155 121.785 39.6155C122.419 39.6155 123.006 39.7512 123.504 40.0677C126.036 41.4696 128.659 42.2384 131.056 42.2384C134.81 42.2384 135.217 40.4295 135.217 39.6155V39.5251C135.217 37.9423 133.046 37.1735 129.519 36.1333C129.292 36.0429 129.021 35.9977 128.795 35.9072C126.443 35.2741 124.001 34.4601 122.102 33.1034C119.841 31.4754 118.756 29.3499 118.756 26.5461V26.4556C118.756 20.7575 123.549 16.7779 130.333 16.7779C133.182 16.7779 136.347 17.4563 139.196 18.7677C140.055 19.1747 140.779 19.8983 141.096 20.8028C141.412 21.7072 141.277 22.7021 140.824 23.5161C140.191 24.6015 139.015 25.2798 137.749 25.2798C137.252 25.2798 136.709 25.1894 136.257 24.9633C134.041 23.9684 131.961 23.4257 130.197 23.4257C127.981 23.4257 126.534 24.3302 126.534 25.7321V25.8225C126.534 27.4505 129.383 28.355 132.458 29.3047L133.046 29.4856C135.217 30.2091 137.613 31.0684 139.558 32.4703Z" fill="#F43397"/>
</g>
</svg>
