<svg width="232" height="63" viewBox="0 0 232 63" fill="none" xmlns="http://www.w3.org/2000/svg">
<path d="M215.321 23.9853C219.421 22.6015 223.982 21.7047 228.236 23.0628C230.67 23.8828 231.977 26.4709 231.952 28.9309C232.003 33.9791 232.054 39.0272 231.875 44.0753C230.414 44.0753 228.953 44.0753 227.518 44.0497C227.339 43.2553 227.185 42.4609 227.006 41.6666C224.29 43.8191 220.676 45.3566 217.191 44.0753C213.245 42.5122 212.758 36.5928 215.731 33.8509C218.729 31.0834 223.034 31.0578 226.801 30.2122C226.57 28.9309 226.365 27.2909 224.853 26.9322C221.83 26.0353 218.78 27.3934 215.885 28.2134C215.654 26.8297 215.475 25.4203 215.321 23.9853ZM220.138 35.6959C218.729 36.8234 218.652 39.5653 220.497 40.2828C222.727 41.1284 224.879 39.6166 226.621 38.4122C226.621 36.7722 226.622 35.1322 226.596 33.4922C224.392 33.8766 221.906 34.1328 220.138 35.6959ZM101.648 13.889C104.082 13.7353 106.542 13.7353 109.003 13.7865C111.898 21.1409 113.769 28.9053 116.895 36.1828C119.483 28.7515 121.866 21.269 124.403 13.8378C126.838 13.7609 129.272 13.7609 131.706 13.8378C132.424 23.934 133.449 34.0303 133.884 44.1266H128.247C127.581 36.9259 127.273 29.674 126.556 22.4734C123.66 29.5459 121.61 36.9772 118.971 44.1522C117.203 44.2291 115.434 44.2034 113.666 44.1266C111.129 36.9516 109.079 29.5715 106.056 22.5759C105.441 29.7509 105.159 36.9772 104.492 44.1522C102.801 44.1522 101.11 44.1522 99.4187 44.1266C99.9056 34.0047 100.956 23.9597 101.648 13.889ZM185.365 16.1696C187.056 15.8109 188.799 15.5803 190.516 15.4265C190.567 17.8609 190.567 20.2953 190.567 22.7553C191.976 22.7809 193.411 22.8578 194.846 22.8834C195.128 24.2672 195.359 25.6765 195.564 27.0859C193.898 27.1628 192.258 27.2397 190.618 27.2653C190.644 30.9553 190.362 34.6709 190.746 38.3609C191.285 40.1547 193.616 39.6422 195.026 39.9753C195.308 41.3847 195.513 42.8197 195.666 44.2547C192.976 44.5366 189.952 44.8953 187.543 43.3578C185.955 42.3072 185.468 40.3341 185.391 38.5659C185.186 34.8247 185.442 31.0834 185.288 27.3422C184.315 27.2397 183.315 27.1372 182.341 27.0347C182.367 25.6765 182.418 24.344 182.47 22.9859C183.418 22.909 184.366 22.8065 185.34 22.7297C185.288 20.5259 185.314 18.3478 185.365 16.1696ZM137.088 23.319C138.907 22.9603 140.752 22.7553 142.597 22.6528C144.263 27.5215 145.723 32.4672 147.44 37.3103C149.183 32.5953 150.541 27.7265 152.078 22.9347C153.846 22.8322 155.589 22.7809 157.357 22.8065C155.384 29.264 152.821 35.5166 150.643 41.9228C149.49 44.8697 148.773 48.201 146.364 50.4303C144.391 52.2241 141.546 52.301 139.061 51.8653C138.83 50.456 138.599 49.0466 138.369 47.6628C139.599 47.6372 140.829 47.7141 142.033 47.5091C143.673 46.9453 145.108 44.9722 144.365 43.2297C141.982 36.5672 139.368 30.0072 137.088 23.319ZM160.791 22.8322C162.277 22.8322 163.763 22.8578 165.224 22.8834C165.429 23.8059 165.608 24.7284 165.813 25.6509C168.094 23.7803 170.81 21.9609 173.936 22.4734C176.653 22.5759 178.805 25.0359 178.856 27.6753C178.985 33.1334 178.908 38.6172 178.882 44.0753C177.191 44.101 175.5 44.1266 173.834 44.1522C173.347 39.1809 173.936 34.1841 173.578 29.2384C173.347 27.1884 170.81 26.6759 169.221 27.4959C167.863 28.1622 166.044 29.1103 166.146 30.8784C166.044 35.2859 166.198 39.6934 166.121 44.101C164.327 44.1266 162.559 44.1266 160.765 44.0753C160.791 36.9772 160.765 29.9047 160.791 22.8322ZM199.638 22.8322C201.15 22.8322 202.662 22.8322 204.174 22.8578C204.353 24.0878 204.558 25.3178 204.763 26.5734C206.634 24.6259 208.684 22.6015 211.554 22.3709C212.015 24.0622 212.271 25.8047 212.323 27.5472C209.504 28.1878 206.301 29.3665 205.045 32.1597C204.789 36.1316 205.096 40.1291 204.943 44.101C203.175 44.1266 201.406 44.1266 199.638 44.0753V22.8322Z" fill="#231F20"/>
<path d="M19.0587 5.58709C20.8525 3.43458 22.8 1.12833 25.5675 0.257079C28.6681 -0.562923 31.3075 1.87146 33.255 3.94709C38.3544 9.7896 42.07 16.6827 45.5294 23.6015C47.4 19.399 49.7319 15.4015 52.1407 11.5065C54.4469 7.97022 56.8301 4.38271 60.1613 1.69208C61.6988 0.513329 63.8257 -0.614173 65.7476 0.385204C68.4638 1.82021 70.5138 4.20334 72.4357 6.53522C76.5101 11.7884 79.7132 17.6565 82.6089 23.6271C86.222 31.3146 89.3483 39.3353 90.6551 47.7659C91.0395 51.6609 91.3983 56.0428 89.0408 59.451C87.2214 62.116 83.762 63.0385 80.687 62.5003C78.022 61.5522 75.6901 59.8097 73.9476 57.6059C69.7963 52.4809 67.3363 46.2797 65.0557 40.1553C64.7226 39.079 64.3126 38.0284 63.9538 36.9778C63.7232 38.054 63.4157 39.1303 63.0569 40.1809C60.7251 46.3822 58.2394 52.7116 53.9601 57.8622C52.2432 59.9635 49.9882 61.5778 47.4257 62.5003C43.7357 63.2691 40.1738 61.3472 37.7906 58.631C33.1269 53.5572 30.5388 46.9972 28.1556 40.6165C27.6944 39.3097 27.2331 38.0028 26.9 36.6447C26.5156 38.0028 26.0544 39.3609 25.5675 40.6678C23.415 46.5359 20.955 52.4553 17.06 57.4009C14.9331 59.9378 12.1656 62.4235 8.70621 62.6028C5.50308 62.8847 2.40245 60.8091 1.17244 57.8878C-0.57006 53.8391 -0.0575586 49.2778 0.711193 45.0497C2.37682 36.9778 5.45183 29.2646 9.09059 21.9102C11.8837 16.1959 15.0612 10.6096 19.0587 5.58709ZM20.8781 7.38084C16.9319 12.4034 13.78 18.0409 10.9612 23.7553C7.45058 31.1609 4.27308 38.874 2.91495 46.9972C2.42807 49.2522 2.42807 51.5841 2.6587 53.8647C2.94057 56.0172 3.7862 58.3234 5.75933 59.4253C7.65558 60.5272 10.09 60.0916 11.8068 58.8616C14.8818 56.7091 16.9319 53.4291 18.7 50.1747C22.4925 42.9228 24.9781 35.0559 26.8487 27.1378C28.8475 35.2609 31.3588 43.3584 35.3563 50.7641C36.945 53.5059 38.6106 56.3503 41.1988 58.2466C42.5057 59.4253 44.2225 60.2453 46.0163 60.0403C48.015 59.8353 49.6807 58.5541 51.09 57.1959C53.4732 54.7359 55.2157 51.7122 56.7532 48.6884C60.0332 41.9747 62.2882 34.7997 64.0563 27.5734C66.2601 36.3372 69.002 45.1265 73.717 52.9166C75.4851 55.6328 77.5607 58.4516 80.6614 59.7328C82.8395 60.6297 85.607 59.8353 86.8626 57.811C88.3745 55.3766 88.5026 52.3528 88.272 49.5853C87.9645 45.1009 86.6576 40.7447 85.2226 36.4909C82.3526 28.2909 78.5857 20.3984 73.9988 13.044C71.872 9.76397 69.6682 6.45834 66.6957 3.84459C65.6451 2.92208 64.0819 2.02521 62.7494 2.94771C60.1869 4.51084 58.4188 6.99647 56.6251 9.35397C52.2688 15.5552 48.6813 22.3203 45.7344 29.2903C45.6575 29.3928 45.4525 29.5978 45.3757 29.7003C45.1194 28.9059 44.8632 28.1371 44.53 27.3684C41.5063 20.834 38.1494 14.4021 33.87 8.61085C32.4094 6.68897 30.8975 4.74146 28.9244 3.33208C28.0787 2.74271 26.9512 2.20458 25.9519 2.71708C23.825 3.69084 22.3387 5.61271 20.8781 7.38084Z" fill="#FEFEFE"/>
<path d="M20.8779 7.38112C22.3386 5.61299 23.8504 3.71674 25.9773 2.74299C26.9767 2.23049 28.1042 2.74299 28.9498 3.35799C30.923 4.76737 32.4348 6.7405 33.8955 8.63675C38.1492 14.4536 41.5317 20.8599 44.5555 27.3943C44.9142 28.1374 45.1705 28.9318 45.4011 29.7262C41.4548 23.038 37.8673 16.0936 32.9473 10.0461C31.5123 8.35488 30.0005 6.56112 27.9248 5.66425C26.7461 5.15174 25.5417 5.818 24.5679 6.45862C21.0317 9.43113 18.4179 13.3005 15.9579 17.1443C10.1667 26.3693 5.8104 36.4912 2.9404 46.9975C4.29853 38.8743 7.45041 31.1612 10.9867 23.7555C13.7798 18.0411 16.9317 12.4036 20.8779 7.38112ZM62.7493 2.92236C64.0818 1.99986 65.6449 2.89674 66.6955 3.81924C69.668 6.40737 71.8718 9.713 73.9987 13.0186C78.5855 20.3987 82.3781 28.2655 85.2224 36.4656C86.6574 40.7193 87.9643 45.05 88.2718 49.56C87.7849 46.4337 86.9649 43.3587 85.9143 40.3862C83.1981 32.2118 79.4312 24.3705 74.8699 17.0674C72.8712 13.9411 70.7443 10.8405 68.1818 8.1755C67.1568 7.1505 66.0549 6.07425 64.6455 5.613C63.5436 5.27987 62.5443 6.04862 61.6474 6.58675C59.2643 8.45738 57.4193 10.8661 55.6511 13.3005C52.5249 17.7336 49.7317 22.3974 47.2205 27.1893C46.8105 27.958 46.298 28.6755 45.7342 29.3162C48.6811 22.3205 52.2686 15.5811 56.6249 9.37988C58.4186 6.99675 60.2124 4.48549 62.7493 2.92236Z" fill="#9E242E"/>
<path d="M24.5679 6.45849C25.5417 5.81786 26.7461 5.15161 27.9248 5.66411C30.0004 6.56099 31.5123 8.35474 32.9473 10.046C37.8673 16.0935 41.4548 23.0379 45.3755 29.726C42.9155 36.7217 39.9942 43.7429 39.8148 51.2511C39.6867 53.6598 40.3273 56.0173 41.2242 58.2467C38.6361 56.3505 36.9448 53.5061 35.3817 50.7642C31.4098 43.3586 28.8729 35.2867 26.8742 27.1379C25.4392 20.3729 24.1067 13.4541 24.5679 6.45849Z" fill="#FF912E"/>
<path d="M61.6731 6.5615C62.57 6.02338 63.5694 5.25463 64.6713 5.58775C66.0807 6.049 67.1825 7.12525 68.2075 8.15026C70.77 10.8409 72.8969 13.9159 74.8957 17.0422C79.4569 24.3453 83.2238 32.1866 85.9401 40.3609C87.0163 43.3335 87.8107 46.4085 88.2976 49.5347C88.5282 52.3022 88.4001 55.326 86.8882 57.7604C85.6326 59.8104 82.8907 60.5791 80.6869 59.6822C77.5863 58.4266 75.5107 55.5822 73.7425 52.866C69.0275 45.1016 66.2857 36.3122 64.0819 27.5228C62.5956 20.6809 61.2119 13.6596 61.6731 6.5615ZM15.958 17.1447C18.4181 13.3009 21.0318 9.43151 24.5681 6.459C24.1068 13.429 25.4393 20.3734 26.8999 27.1384C25.0293 35.0822 22.5181 42.9235 18.7512 50.1753C16.983 53.4297 14.933 56.7097 11.858 58.8622C10.1412 60.0922 7.70678 60.5279 5.81052 59.426C3.8374 58.3241 2.99177 55.9922 2.70989 53.8653C2.45364 51.5847 2.47927 49.2528 2.96614 46.9978C5.7849 36.4916 10.1668 26.3697 15.958 17.1447Z" fill="#F41CB2"/>
<path d="M55.6768 13.2758C57.445 10.8414 59.29 8.43264 61.6731 6.56201C61.2118 13.6345 62.5956 20.6814 64.1075 27.5489C62.3393 34.8008 60.0587 41.9502 56.8043 48.664C55.2668 51.7133 53.5243 54.7115 51.1412 57.1715C49.7574 58.5296 48.0662 59.8109 46.0674 60.0159C44.2737 60.2209 42.5568 59.4009 41.2499 58.2221C40.353 55.9927 39.7124 53.6352 39.8405 51.2265C40.0199 43.7183 42.9412 36.6714 45.4012 29.7014C45.4781 29.5989 45.6831 29.3939 45.7599 29.2914C46.3237 28.6252 46.8362 27.9333 47.2462 27.1646C49.7831 22.3727 52.5506 17.7089 55.6768 13.2758Z" fill="#F25511"/>
</svg>
