<svg width="138" height="64" viewBox="0 0 138 64" fill="none" xmlns="http://www.w3.org/2000/svg">
<path d="M76.2221 4.41633V0.0693359L80.6381 0.0923373V4.41633H76.2221Z" fill="black"/>
<path d="M38.2491 38.7783L27.6001 63.8023L31.9241 63.8253L34.4081 57.8223L45.7701 57.8453L48.2081 63.8483L52.6701 63.8713L42.1361 38.8013L38.2491 38.7783ZM35.9951 53.9353L40.1581 43.9993L44.2981 53.9583L35.9951 53.9353Z" fill="black"/>
<path d="M133.377 4.55403L133.4 0.207031L137.816 0.230029L137.793 4.55403H133.377Z" fill="black"/>
<path d="M66.2401 4.37044L66.2631 0.0234375L70.6791 0.0464354V4.37044H66.2401Z" fill="black"/>
<path d="M4.43907 31.5096V27.1855H8.85507V31.5325L4.43907 31.5096Z" fill="black"/>
<path d="M56.3041 4.324V0L60.7201 0.0230014V4.347L56.3041 4.324Z" fill="black"/>
<path d="M4.25514 46.0003L17.6871 63.8483L21.2521 63.8713L21.3211 38.8243H17.1121L17.0661 56.1203L4.02514 38.7783H0.0691372L0.000137329 63.8023L4.20914 63.8253L4.25514 46.0003Z" fill="black"/>
<path d="M12.9721 31.533V27.209H17.4111L17.3881 31.556L12.9721 31.533Z" fill="black"/>
<path d="M80.2471 63.8713L80.2931 38.8473L75.7621 38.8243L68.3791 50.6463L61.0421 38.7783H56.5111L56.4651 63.8023L60.6281 63.8253L60.6741 45.9313L68.2181 57.6843H68.3561L76.0381 45.9083L75.9691 63.8713H80.2471Z" fill="black"/>
<path d="M133.216 63.2732L133.285 38.6172H137.701L137.632 63.2732H133.216Z" fill="black"/>
<path d="M124.959 49.2203L113.436 49.1973L113.459 38.7783H109.204L109.135 63.8023L113.413 63.8253L113.436 53.2683L124.936 53.3143L124.913 63.8483L129.145 63.8713L129.214 38.8243H124.982L124.959 49.2203Z" fill="black"/>
<path d="M117.852 25.0931L133.584 25.1391L137.954 25.1621L138 6.60112L133.63 6.57813L133.584 20.7231L117.875 20.6771C116.886 15.6171 112.47 11.7761 107.157 11.7531C101.867 11.7301 97.4511 15.5481 96.4161 20.5621L80.7301 20.5161L80.7761 6.41713L76.4061 6.39413L76.3601 20.4931H70.7481L70.7941 6.39413L66.4241 6.37112L66.3781 20.4701L60.7201 20.4471L60.7661 6.32512L56.3961 6.30213L56.3501 20.4241L41.3771 20.3781L41.4231 6.27913L35.6501 6.25612C30.3601 6.23312 26.0591 10.5341 26.0361 15.8011L25.9901 20.3091L4.39314 20.2401V20.1941C4.41614 14.8811 8.71714 10.5801 14.0071 10.5801L17.3421 10.6031L17.3651 6.18713L14.0301 6.16413C6.32514 6.14113 0.0231373 12.4431 0.000137329 20.1941V24.6331L30.3601 24.7251L30.3831 15.7781C30.3831 12.9491 32.7291 10.6491 35.6041 10.6491H36.9841L36.9381 24.7481L96.3701 24.8861C97.3821 29.9231 101.775 33.7411 107.065 33.7641C112.378 33.8791 116.794 30.1071 117.852 25.0931ZM107.134 29.4401C103.523 29.4401 100.579 26.4501 100.579 22.7931C100.579 19.1361 103.546 16.1691 107.157 16.1691C110.768 16.1691 113.712 19.1591 113.712 22.8161C113.689 26.4731 110.745 29.4401 107.134 29.4401Z" fill="black"/>
<path d="M95.0591 49.382C90.4131 48.255 89.3091 47.404 89.3091 45.495C89.3091 43.862 90.7811 42.574 93.2881 42.574C95.4961 42.574 97.6811 43.448 99.8661 45.081L102.166 41.838C99.7051 39.837 96.8991 38.756 93.3571 38.756C88.5271 38.733 85.0541 41.585 85.0541 45.84C85.0311 50.371 87.9521 51.912 93.1041 53.177C97.6121 54.235 98.5781 55.178 98.5781 56.972C98.5781 58.858 96.8991 60.077 94.2771 60.054C91.2641 60.054 88.9181 58.904 86.5951 56.857L84.0191 59.916C86.9401 62.538 90.4361 63.826 94.1391 63.826C99.2451 63.849 102.833 61.135 102.833 56.535C102.879 52.487 100.188 50.647 95.0591 49.382Z" fill="black"/>
</svg>
