<svg width="161" height="64" viewBox="0 0 161 64" fill="none" xmlns="http://www.w3.org/2000/svg">
<path d="M51.318 6.98091L45.9801 16.2048C50.3921 19.9604 53.4261 25.759 53.4261 32.2791C53.4261 44.1371 43.6111 53.8869 31.488 53.8869C19.4344 53.8869 9.61505 44.1371 9.61505 31.9488C9.61505 30.5013 9.74546 29.0495 10.0106 27.6672L0 33.4658C0 50.5921 14.5573 63.9019 31.488 63.9019C49.2098 63.9019 63.5715 49.6053 63.5715 32.1487C63.5715 21.9338 58.6292 12.9751 51.318 6.98091ZM35.9695 10.9365L41.3726 1.58222C38.3429 0.460757 35.6435 0 32.9398 0C30.8968 0 29.119 0.265153 27.8019 0.525959L20.9514 12.3839C23.4552 10.9365 26.6848 10.1454 30.1753 10.1454C32.2139 10.1454 34.0569 10.4062 35.9695 10.9365ZM86.3486 42.6114C84.1056 42.6114 82.067 43.3416 80.4978 44.6848L80.0458 43.0939H76.0859V63.1412H81.1281V52.2482C81.1281 49.927 82.6799 47.5797 85.6488 47.5797C87.9699 47.5797 89.3522 49.2141 89.3522 51.9526V63.1412H94.3944V51.5788C94.3901 46.1323 91.2343 42.6114 86.3486 42.6114ZM152.589 42.6114C150.342 42.6114 148.307 43.3416 146.738 44.6848L146.286 43.0939H142.322V63.1412H147.364V52.2482C147.364 49.927 148.916 47.5797 151.885 47.5797C154.206 47.5797 155.588 49.2141 155.588 51.9526V63.1412H160.626V51.5788C160.631 46.1323 157.475 42.6114 152.589 42.6114ZM129.369 42.6114C123.718 42.6114 119.288 47.219 119.288 53.0958C119.288 58.977 123.713 63.5846 129.369 63.5846C135.019 63.5846 139.449 58.977 139.449 53.0958C139.449 47.219 135.019 42.6114 129.369 42.6114ZM129.369 58.6205C126.491 58.6205 124.405 56.2994 124.405 53.1001C124.405 49.9009 126.491 47.5797 129.369 47.5797C132.246 47.5797 134.333 49.9009 134.333 53.1001C134.333 56.2994 132.246 58.6205 129.369 58.6205ZM107.343 42.6114C101.693 42.6114 97.2677 47.219 97.2677 53.0958C97.2677 58.977 101.693 63.5846 107.343 63.5846C112.994 63.5846 117.424 58.977 117.424 53.0958C117.424 47.219 112.994 42.6114 107.343 42.6114ZM107.343 58.6205C104.466 58.6205 102.379 56.2994 102.379 53.1001C102.379 49.9009 104.466 47.5797 107.343 47.5797C110.221 47.5797 112.307 49.9009 112.307 53.1001C112.307 56.2994 110.221 58.6205 107.343 58.6205ZM156.04 9.64114V15.6179C156.04 18.5737 153.637 20.9819 150.676 20.9819H124.848V15.8831C124.848 12.9012 123.535 10.0889 121.249 8.16758C118.967 6.25066 115.95 5.45085 112.973 5.97681C108.856 6.70272 105.6 9.9541 104.875 14.0748C104.349 17.0524 105.148 20.069 107.065 22.3511C108.01 23.479 109.19 24.386 110.523 25.0078C111.856 25.6297 113.31 25.9514 114.781 25.9502H119.801C119.562 27.721 118.714 29.3533 117.402 30.5665C115.98 31.8894 114.11 32.6241 112.168 32.6225H111.79V37.5909H112.168C115.428 37.5909 118.528 36.3477 120.892 34.0917C123.161 31.927 124.535 29.0495 124.783 25.9459H150.668C156.366 25.9459 161 21.3122 161 15.6136V9.64114H156.04ZM119.88 15.8831V20.9775H114.785C114.04 20.9782 113.303 20.815 112.628 20.4995C111.953 20.184 111.355 19.7239 110.877 19.1519C109.891 17.9782 109.499 16.4786 109.773 14.9312C110.13 12.8969 111.803 11.2234 113.838 10.8669C115.385 10.5931 116.885 10.9843 118.058 11.971C119.215 12.949 119.88 14.3748 119.88 15.8831ZM88.3785 31.7532C95.3681 31.7532 101.054 26.0676 101.054 19.078V9.66722H96.0853V19.0823C96.0853 23.3291 92.6297 26.7848 88.3829 26.7848C84.1361 26.7848 80.6804 23.3291 80.6804 19.0823V9.66722H75.712V19.0823C75.7033 26.0676 81.3889 31.7532 88.3785 31.7532ZM88.3785 5.73774C89.8738 5.73774 91.0909 4.52064 91.0909 3.02535C91.0909 1.53006 89.8738 0.312968 88.3785 0.312968C86.8832 0.312968 85.6661 1.53006 85.6661 3.02535C85.6661 4.52064 86.8832 5.73774 88.3785 5.73774ZM151.029 5.73774C152.524 5.73774 153.741 4.52064 153.741 3.02535C153.741 1.53006 152.524 0.312968 151.029 0.312968C149.533 0.312968 148.316 1.53006 148.316 3.02535C148.316 4.52064 149.533 5.73774 151.029 5.73774Z" fill="#B7A800"/>
</svg>
