<svg width="224" height="25" viewBox="0 0 224 25" fill="none" xmlns="http://www.w3.org/2000/svg">
<path d="M15.003 9.59147C12.6891 8.69577 10.2632 7.91203 7.94935 7.42685C6.41919 6.90436 4.47851 6.15794 4.47851 5.001C4.47851 4.1053 5.001 3.32156 5.74742 2.94835C6.64312 2.42586 7.53882 2.3139 8.5838 2.3139C9.85271 2.3139 11.2709 2.57514 12.4279 3.32156C13.6968 4.21726 14.7418 5.26225 15.6375 6.38187L16.5332 6.00867L15.3762 0.63446L15.2642 0L14.7418 0.261251C14.2193 0.522497 13.7341 0.522496 13.2116 0.522496C12.9503 0.522496 11.1589 0.261251 10.6365 0.261251C10.002 0.261251 9.47951 0.149287 8.84505 0.149287C6.90437 0.149287 5.001 0.522494 3.32156 1.41819C1.53016 2.3139 0.485173 4.1053 0.634457 6.15795C0.634457 8.32256 2.05265 10.114 4.73975 11.2709L11.7934 13.4355C14.1073 14.3312 15.115 15.4882 15.115 17.0183C15.115 18.4365 14.3312 19.8547 13.1743 20.7504C12.0173 21.6461 10.4872 22.1686 8.95701 22.1686C7.27757 22.1686 5.74742 21.6461 4.47851 20.7504C3.06031 19.5935 1.90337 18.3246 0.895702 16.9064L0 17.2796L1.26891 23.6988L1.38087 24.4825L2.01533 23.96C2.38854 23.6988 2.79907 23.5868 3.17228 23.5868L6.00867 23.96C6.90437 24.072 7.94935 24.072 8.84505 24.072C11.2709 24.072 13.7341 23.2882 15.7494 21.9074C17.6901 20.4892 18.959 18.3246 18.8097 15.8987C19.2576 13.1743 17.5781 10.6365 15.003 9.59147Z" fill="#0079C1"/>
<path d="M36.9477 22.5414C36.8358 22.2802 36.8358 22.1682 36.8358 21.907V13.6964C36.9477 12.2782 36.5745 10.86 35.8281 9.74038C35.0444 8.73272 33.7755 8.21023 32.5065 8.32219C31.0884 8.32219 29.8194 8.6954 28.6625 9.32985C28.028 9.70306 27.2443 10.1136 26.7218 10.5988V2.64941L26.0874 2.76138L21.9821 3.76904V4.66474C22.2433 4.66474 22.3553 4.92599 22.5045 5.03795C22.5045 5.2992 22.5045 5.41116 22.5045 5.67241V21.8323C22.5045 22.0936 22.5045 22.3548 22.3926 22.4668C22.2806 22.5788 22.1313 22.7281 22.0194 22.84L22.2806 23.7357H27.0204L27.2816 22.84C27.1697 22.7281 27.0204 22.5788 26.9084 22.4668C26.9084 22.3548 26.7965 22.2056 26.7965 22.2056V14.9653C26.7965 13.9576 27.3189 12.9127 28.0654 12.1289C28.8491 11.2332 29.8568 10.86 30.9017 10.86C31.4242 10.86 31.9094 11.1213 32.3199 11.4945C32.6932 11.8677 32.9544 12.3902 32.9544 13.0246V21.8697C32.9544 22.1309 32.9544 22.3922 32.8424 22.5041C32.7305 22.6161 32.5812 22.7654 32.4692 22.8773L32.7305 23.773H37.4702L37.7315 22.8773C37.1717 22.8027 37.0597 22.6534 36.9477 22.5414Z" fill="#0079C1"/>
<path d="M55.3843 22.9151C55.0111 22.6539 54.7498 22.3926 54.6005 22.0194C54.4886 21.9075 54.4886 21.6462 54.4886 21.385C54.4886 21.1237 54.4886 20.8625 54.4886 20.6012V12.2787C54.6005 10.8605 53.8541 9.44228 52.4359 8.80783C51.167 8.28534 49.7488 8.02409 48.4799 8.02409C47.5842 8.02409 46.5392 8.13605 45.6435 8.28534C44.8598 8.3973 44.1134 8.65854 43.4789 8.91979H43.3669C43.255 8.91979 43.1057 8.91979 42.9937 8.80783L42.3593 7.65088L42.098 8.91979L41.3143 13.9208L42.21 14.182C42.5832 13.0251 43.3669 12.1294 44.3746 11.3456C45.3823 10.7112 46.5392 10.338 47.6962 10.338C48.3306 10.338 48.9651 10.4499 49.6368 10.7112C50.1593 10.9724 50.4206 11.4949 50.2713 11.9801V13.249C47.8454 13.361 45.3823 14.1447 43.3669 15.3017C41.2023 16.4586 40.0454 17.9888 40.0454 19.7802C40.0454 21.0491 40.6798 22.3553 41.8368 22.9898C42.8444 23.6242 44.1507 23.9974 45.4196 23.9974C46.5765 23.9974 47.7335 23.7362 48.7411 23.2137C49.5249 22.8405 50.1593 22.43 50.7938 22.0567C50.9058 22.1687 51.055 22.318 51.055 22.5792C51.4283 23.4749 51.8388 23.5869 52.212 23.5869H56.9517L55.3843 22.9151ZM50.3833 15.6375V17.9514C50.3833 18.9591 49.8608 20.0041 49.1144 20.6386C48.3306 21.4223 47.323 21.7955 46.278 21.7955C45.7555 21.7955 45.121 21.6835 44.7478 21.161C44.3746 20.7878 44.1134 20.3773 44.1134 19.8921C44.2253 18.4739 45.121 17.317 46.4273 16.8318C47.6962 16.1227 48.9651 15.7495 50.3833 15.6375Z" fill="#0079C1"/>
<path d="M67.1776 8.43359C66.8044 8.43359 66.2819 8.54556 65.9087 8.69484C65.3862 8.80681 64.7517 9.06805 64.2293 9.32929C63.7068 9.59054 63.2216 9.96375 62.6991 10.4862C62.4379 10.7475 62.3259 10.8595 62.0646 11.1207C61.9527 10.7475 61.8034 10.4862 61.6914 10.113C61.5795 9.73982 61.4302 9.47858 61.3182 9.21733C61.2063 9.10537 61.2063 8.95609 61.057 8.69484L60.945 8.43359H60.5718L57.2502 9.06805L56.2426 9.32929L57.1383 9.96375C57.6608 10.337 58.146 10.8595 58.4072 11.4939C58.5192 11.8671 58.6684 12.1284 58.6684 12.5016C58.6684 12.8748 58.6684 13.136 58.6684 13.5092V22.093C58.6684 22.3543 58.6684 22.4662 58.5565 22.7275C58.4445 22.8395 58.2952 22.9887 58.1833 23.1007L58.4445 23.9964H64.6025L63.0723 22.8395C62.9603 22.7275 62.8111 22.5782 62.6991 22.4663C62.5871 22.3543 62.5871 22.093 62.5871 21.8318V14.4049C62.5871 13.8824 62.6991 13.3973 63.1096 12.8748C63.3709 12.5016 63.7441 12.091 64.2666 11.7178C64.6398 11.4566 65.0503 11.3446 65.5355 11.3446C65.6474 11.3446 66.058 11.3446 66.3192 11.6059C66.5805 11.7178 66.6924 11.8671 66.8417 11.9791L67.4762 13.136L67.7374 11.8671L68.2599 9.03073L68.3719 8.50824L67.1776 8.43359Z" fill="#0079C1"/>
<path d="M83.9721 22.0186C83.8601 21.9067 83.8601 21.6454 83.8601 21.3842C83.8601 21.1229 83.8601 20.8617 83.8601 20.6004V12.2779C83.9721 10.7477 83.0764 9.4415 81.8075 8.80705C80.5386 8.28455 79.1204 8.0233 77.8515 8.0233C76.9558 8.0233 75.9108 8.13527 75.0151 8.28455C74.2313 8.39652 73.4849 8.65776 72.7012 8.919H72.5892C72.4773 8.919 72.328 8.80705 72.216 8.80705L71.5816 7.91135L71.4696 9.0683L70.5739 13.9573L71.395 14.2186C71.7682 13.0616 72.5519 12.1659 73.5596 11.3822C74.5672 10.7477 75.7242 10.3745 76.8811 10.3745C77.5156 10.3745 78.15 10.4865 78.8218 10.7477C79.3443 11.009 79.6055 11.5315 79.4563 12.0166V13.2856C77.0304 13.3975 74.5672 14.1813 72.4026 15.3382C70.238 16.4951 69.0811 18.0253 69.0811 19.8167C69.0811 21.0856 69.7155 22.3919 70.8725 23.0263C71.8801 23.6608 73.1864 24.034 74.4553 24.034C75.6122 24.034 76.7692 23.7727 77.7768 23.2502C78.5606 22.877 79.195 22.4665 79.8295 22.0933C79.9414 22.2052 80.0907 22.3545 80.0907 22.6158C80.352 23.2502 80.7252 23.6234 81.2477 23.6234H85.9874L84.7185 22.8397C84.3453 22.8024 84.1214 22.4292 83.9721 22.0186ZM79.6055 17.9133C79.6055 18.921 79.0831 19.966 78.3366 20.6004C77.5529 21.3842 76.5452 21.7574 75.5002 21.7574C74.9778 21.7574 74.3433 21.6454 73.9701 21.1229C73.5969 20.7497 73.3356 20.3392 73.3356 19.854C73.4476 18.4358 74.3433 17.2789 75.6495 16.7937C76.8065 16.1593 78.2247 15.786 79.4936 15.6368L79.6055 17.9133ZM97.5569 2.68642C97.0344 2.42518 96.5492 2.16392 95.8775 2.05196C95.355 1.94 94.7205 1.94 94.198 1.94C92.5186 1.82804 90.9884 2.4625 89.7195 3.47016C88.4506 4.88836 87.9281 6.67975 88.0401 8.58312C88.0401 8.58312 88.0401 8.69508 87.5176 9.10561C87.2563 9.36685 86.9951 9.47883 86.7338 9.62811V10.5238H87.7415V21.7947C87.7415 22.056 87.7415 22.3172 87.6295 22.5785C87.5176 22.8397 87.3683 22.9517 87.107 22.9517L87.3683 23.8474H92.3693L92.6305 22.9517C92.3693 22.8397 92.2573 22.6904 92.108 22.5785C91.9961 22.3172 91.8468 22.056 91.9961 21.7947V10.6358H94.6832L94.7951 10.3745L95.4296 9.10561L95.8028 8.47116H91.9588V6.67975C91.9588 5.89601 92.0707 5.1496 92.5932 4.51514C92.9664 3.99265 93.4889 3.7314 94.1234 3.7314C94.6459 3.7314 95.0191 3.84336 95.3923 4.10461C95.7655 4.47782 96.0267 5.00032 96.176 5.52281L96.5492 6.941L97.0717 5.67209L97.9674 3.35819L98.0794 2.98498L97.5569 2.68642Z" fill="#0079C1"/>
<path d="M114.09 0.111328H103.453V5.89607H114.09V0.111328Z" fill="#0079C1"/>
<path d="M182.686 10.4863H172.161V16.383H182.686V10.4863Z" fill="#0079C1"/>
<path d="M141.521 11.7553C141.521 0.596351 124.876 0.223145 124.876 0.223145H115.919V6.00788H124.129C131.556 6.00788 131.183 12.4271 131.183 12.4271C131.071 18.2118 123.607 18.2118 123.607 18.2118H114.127V7.8366H103.491V23.8473H122.189C125.398 23.8473 129.093 23.586 129.093 23.586C142.155 21.1228 141.521 11.7553 141.521 11.7553Z" fill="#0079C1"/>
<path d="M182.686 0.111328V5.89607H163.727C163.727 5.89607 154.994 5.52285 154.994 11.9047C154.994 11.9047 154.62 18.0627 163.466 18.0627H182.574V23.6981H162.458C162.458 23.6981 144.245 23.8101 144.245 11.5315C144.245 11.5315 143.872 0.895067 160.144 0.111328H182.686Z" fill="#0079C1"/>
<path d="M190.225 22.5418C190.225 23.0643 190.113 23.4375 189.702 23.6988C189.329 23.96 188.918 24.2212 188.545 24.2212C188.284 24.2212 188.172 24.2213 187.911 24.1093C187.65 23.9973 187.538 23.848 187.388 23.7361C187.276 23.6241 187.127 23.4748 187.015 23.2136C186.903 22.9523 186.903 22.8404 186.903 22.5791C186.903 22.3179 186.903 22.2059 187.015 21.9447C187.127 21.6834 187.276 21.5715 187.388 21.4222C187.5 21.2729 187.761 21.1609 187.911 21.049C188.172 20.937 188.284 20.937 188.545 20.937C189.068 20.937 189.441 21.049 189.702 21.4595C190.113 21.6461 190.225 22.0193 190.225 22.5418Z" fill="#0079C1"/>
<path d="M197.801 18.4363C197.689 18.175 197.428 18.0631 197.166 17.9138C196.905 17.7645 196.644 17.8018 196.383 17.8018C196.121 17.8018 195.86 17.8018 195.599 17.9138C195.338 18.0258 195.226 18.175 194.964 18.4363C194.852 18.5482 194.703 18.8095 194.591 19.0707C194.479 19.332 194.479 19.5932 194.479 19.8545C194.479 20.1157 194.479 20.377 194.591 20.6382C194.703 20.8995 194.852 21.1607 194.964 21.2727C195.076 21.5339 195.338 21.6459 195.599 21.7952C195.86 21.9444 196.121 21.9071 196.383 21.9071C196.644 21.9071 196.905 21.9071 197.166 21.7952C197.428 21.6832 197.689 21.5339 197.801 21.2727L199.331 23.0641C198.958 23.4373 198.547 23.6985 198.062 23.8478C197.54 23.9598 196.905 24.1091 196.383 24.1091C195.748 24.1091 195.114 23.9971 194.591 23.8478C194.069 23.7358 193.584 23.3253 193.173 22.9521C192.8 22.5789 192.389 22.0564 192.165 21.5339C191.904 21.0114 191.792 20.377 191.792 19.7425C191.792 19.1081 191.904 18.4736 192.165 17.9511C192.427 17.4286 192.688 16.9435 193.173 16.5329C193.696 16.1597 194.069 15.8985 194.591 15.6372C195.114 15.376 195.748 15.376 196.383 15.376C196.644 15.376 197.017 15.376 197.278 15.4879C197.54 15.5999 197.801 15.5999 198.174 15.7492C198.547 15.8611 198.697 16.0104 198.958 16.1224C199.219 16.2344 199.331 16.3836 199.592 16.6449L197.801 18.4363Z" fill="#0079C1"/>
<path d="M209.221 19.8543C209.221 20.4888 209.109 21.1232 208.848 21.6457C208.587 22.1682 208.325 22.6534 207.84 23.0639C207.467 23.4371 206.944 23.6984 206.422 23.9596C205.899 24.2209 205.265 24.2209 204.631 24.2209C203.996 24.2209 203.474 24.1089 202.839 23.9596C202.317 23.6984 201.831 23.4371 201.421 23.0639C201.048 22.6907 200.637 22.1682 200.413 21.6457C200.189 21.1232 200.04 20.4888 200.04 19.8543C200.04 19.2199 200.152 18.5854 200.413 18.0629C200.674 17.5404 200.936 17.0553 201.421 16.6447C201.794 16.2715 202.317 16.0103 202.839 15.749C203.362 15.4878 203.996 15.4878 204.631 15.4878C205.265 15.4878 205.787 15.5998 206.422 15.749C206.944 16.0103 207.43 16.2715 207.84 16.6447C208.213 17.018 208.624 17.4285 208.848 18.0629C209.072 18.5854 209.221 19.2199 209.221 19.8543ZM206.497 19.8543C206.497 19.5931 206.497 19.3318 206.385 19.0706C206.273 18.8094 206.123 18.5481 206.011 18.4361C205.899 18.1749 205.638 18.0629 205.377 17.9137C205.116 17.8017 204.854 17.8017 204.481 17.8017C204.22 17.8017 203.847 17.8017 203.586 17.9137C203.324 18.0256 203.212 18.1749 202.951 18.4361C202.839 18.5481 202.69 18.8094 202.578 19.0706C202.466 19.3318 202.466 19.5931 202.466 19.8543C202.466 20.1156 202.466 20.3768 202.578 20.6381C202.69 20.8993 202.839 21.1606 202.951 21.2725C203.063 21.5338 203.324 21.6457 203.586 21.795C203.847 21.9443 204.108 21.907 204.481 21.907C204.854 21.907 205.116 21.907 205.377 21.795C205.638 21.6831 205.75 21.5338 206.011 21.2725C206.123 21.0113 206.273 20.8993 206.385 20.6381C206.497 20.3768 206.497 20.1156 206.497 19.8543Z" fill="#0079C1"/>
<path d="M221.388 23.9598V19.4813C221.388 19.22 221.388 18.9588 221.388 18.8468C221.388 18.5856 221.276 18.4736 221.276 18.3243C221.164 18.2124 221.014 18.0631 220.902 17.9511C220.79 17.8391 220.529 17.8391 220.268 17.8391C220.007 17.8391 219.895 17.8391 219.634 17.9511C219.372 18.0631 219.372 18.2124 219.26 18.3243C219.148 18.4363 218.999 18.6975 218.999 18.8468C218.999 19.1081 218.887 19.22 218.887 19.4813V23.9598H216.2V19.22C216.2 18.6975 216.088 18.3243 215.939 18.0631C215.827 17.8018 215.416 17.6899 215.043 17.6899C214.67 17.6899 214.259 17.8018 214.035 18.2124C213.774 18.5856 213.662 18.9961 213.662 19.4813V23.9598H210.975V15.7492H213.55V16.9061C213.662 16.7942 213.811 16.5329 213.923 16.3836C214.035 16.2717 214.297 16.1224 214.446 16.0104C214.707 15.8985 214.819 15.7492 215.08 15.7492C215.342 15.6372 215.603 15.6372 215.976 15.6372C216.611 15.6372 217.133 15.7492 217.506 16.0104C217.879 16.2717 218.29 16.6449 218.514 17.0181C218.775 16.6449 219.148 16.2343 219.522 16.0104C219.895 15.7492 220.417 15.6372 221.052 15.6372C221.574 15.6372 222.059 15.7492 222.47 15.8985C222.843 16.1597 223.104 16.421 223.366 16.6822C223.627 17.0554 223.739 17.3166 223.888 17.6899C224 18.0631 224 18.4736 224 18.8468V23.9598H221.388Z" fill="#0079C1"/>
</svg>
