<svg width="201" height="58" viewBox="0 0 201 58" fill="none" xmlns="http://www.w3.org/2000/svg">
<path d="M22.7585 1.81593C23.1613 1.81593 23.3627 2.01733 23.7655 2.21873C21.3487 3.22575 18.9319 5.84398 17.7234 11.4833L13.2926 12.6917C14.7024 8.66362 17.522 1.81593 22.7585 1.81593ZM24.9739 3.82995C25.3768 5.03837 25.7796 6.44819 25.7796 8.66362C25.7796 8.86502 25.7796 8.86502 25.7796 9.06643L19.9389 10.6776C21.1473 6.44819 23.1613 4.63557 24.9739 3.82995ZM30.2104 7.4552L27.5922 8.26082C27.5922 8.05941 27.5922 7.85801 27.5922 7.65661C27.5922 5.84398 27.3908 4.43416 26.988 3.22575C28.3978 3.62855 29.6062 5.44118 30.2104 7.4552ZM43.3016 10.6776C43.3016 10.4762 43.1002 10.2748 42.8988 10.2748C42.496 10.2748 38.2665 9.87204 38.2665 9.87204C38.2665 9.87204 35.2455 6.851 34.8427 6.64959C34.4399 6.24679 33.8357 6.44819 33.6343 6.44819C33.6343 6.44819 33.0301 6.64959 32.023 7.0524C31.016 4.23276 29.2034 1.61452 26.1824 1.61452H25.981C25.1754 0.406107 23.9669 0.00330154 22.9599 0.00330154C15.7094 -0.198101 12.2856 8.86502 11.0772 13.4973C9.46593 13.9001 7.85471 14.5043 6.04208 15.1085C4.43086 15.5113 4.43086 15.7127 4.22946 17.1225C4.02806 18.1296 0 49.9512 0 49.9512L32.023 55.9933L49.3437 52.1666C49.3437 52.1666 43.3016 11.0805 43.3016 10.6776Z" fill="#8DB849"/>
<path d="M42.6972 10.2739C42.4958 10.2739 38.2664 9.87111 38.2664 9.87111C38.2664 9.87111 35.2453 6.85007 34.8425 6.64867C34.6411 6.44727 34.6411 6.44727 34.4397 6.44727L32.0229 55.9924L49.3435 52.1657C49.3435 52.1657 43.3014 11.0795 43.3014 10.6767C43.3014 10.4753 42.8986 10.2739 42.6972 10.2739Z" fill="#5A863E"/>
<path d="M26.1822 19.9416L23.9668 26.3865C23.9668 26.3865 22.1542 25.3795 19.7373 25.3795C16.3135 25.3795 16.1121 27.3935 16.1121 27.9977C16.1121 30.8174 23.7654 32.0258 23.7654 38.8735C23.7654 44.3114 20.3415 47.7352 15.7093 47.7352C10.2714 47.7352 7.45175 44.3114 7.45175 44.3114L8.86157 39.4777C8.86157 39.4777 11.6812 41.8945 14.098 41.8945C15.7093 41.8945 16.3135 40.6861 16.3135 39.6791C16.3135 35.8524 10.07 35.651 10.07 29.4075C10.07 24.1711 13.8966 19.136 21.3485 19.136C24.7724 18.9346 26.1822 19.9416 26.1822 19.9416Z" fill="#FFFFFE"/>
<path d="M69.6854 31.8238C67.8728 30.8168 67.0672 30.0112 67.0672 29.0042C67.0672 27.5944 68.2756 26.7888 70.2896 26.7888C72.5051 26.7888 74.5191 27.7958 74.5191 27.7958L76.1303 22.9621C76.1303 22.9621 74.7205 21.7537 70.491 21.7537C64.4489 21.7537 60.4209 25.1775 60.4209 30.0112C60.4209 32.8308 62.4349 34.8449 64.8517 36.2547C66.8658 37.4631 67.6714 38.2687 67.6714 39.4771C67.6714 40.6855 66.6644 41.894 64.6503 41.894C61.8307 41.894 59.0111 40.4841 59.0111 40.4841L57.3998 45.3178C57.3998 45.3178 59.8167 46.929 64.0461 46.929C70.0882 46.929 74.5191 43.908 74.5191 38.4701C74.5191 35.4491 72.3036 33.2336 69.6854 31.8238ZM94.0552 21.5523C91.0341 21.5523 88.6173 22.9621 86.8046 25.1775L89.4229 11.4821H82.5752L75.9289 46.3248H82.7766L84.992 34.4421C85.7976 30.0112 88.2145 27.1916 90.4299 27.1916C92.0411 27.1916 92.6453 28.1986 92.6453 29.8098C92.6453 30.8168 92.6453 31.8238 92.4439 32.8308L89.8257 46.5262H96.6734L99.2916 32.428C99.493 31.0182 99.6944 29.2056 99.6944 27.9972C99.6944 23.9691 97.6804 21.5523 94.0552 21.5523ZM111.577 41.4912C109.16 41.4912 108.355 39.4771 108.355 37.0603C108.355 33.2336 110.369 26.7888 113.994 26.7888C116.411 26.7888 117.216 28.8028 117.216 30.8168C117.216 35.2477 115.202 41.4912 111.577 41.4912ZM115.001 21.5523C106.744 21.5523 101.306 29.0042 101.306 37.2617C101.306 42.4982 104.528 46.7276 110.772 46.7276C118.828 46.7276 124.266 39.4771 124.266 31.0182C124.266 26.1845 121.446 21.5523 115.001 21.5523ZM135.141 41.6926C133.329 41.6926 132.322 40.6855 132.322 40.6855L133.53 34.2407C134.336 30.0112 136.551 27.1916 138.968 27.1916C140.982 27.1916 141.788 29.2056 141.788 31.0182C141.586 35.4491 138.968 41.6926 135.141 41.6926ZM141.788 21.5523C137.155 21.5523 134.537 25.5803 134.537 25.5803L134.94 21.9551H128.898C128.696 24.3719 128.092 28.1986 127.488 31.0182L122.654 55.9922H129.502L131.315 45.922H131.516C131.516 45.922 132.926 46.7276 135.544 46.7276C143.6 46.7276 148.837 38.4701 148.837 30.2126C148.837 25.7817 146.823 21.5523 141.788 21.5523ZM158.504 11.8849C156.289 11.8849 154.677 13.6976 154.677 15.913C154.677 17.927 155.886 19.3368 157.9 19.3368C160.115 19.3368 161.928 17.927 161.928 15.3088C161.928 13.2948 160.518 11.8849 158.504 11.8849ZM149.038 46.3248H155.886L160.518 22.1565H153.67L149.038 46.3248ZM177.839 22.1565H173.005L173.206 20.9481C173.609 18.5312 175.019 16.5172 177.235 16.5172C178.443 16.5172 179.45 16.92 179.45 16.92L180.86 11.4821C180.86 11.4821 179.651 10.8779 177.235 10.8779C174.818 10.8779 172.401 11.4821 170.588 13.0934C168.171 15.1074 167.164 17.927 166.56 20.7467L166.359 21.9551H163.136L162.129 27.1916H165.352L161.727 46.3248H168.574L172.199 27.1916H176.832L177.839 22.1565ZM194.152 22.1565C194.152 22.1565 189.923 32.8308 187.909 38.6715C187.707 36.8589 186.298 22.1565 186.298 22.1565H179.047L183.075 44.3108C183.075 44.7136 183.075 45.1164 182.874 45.5192C182.068 47.1304 180.658 48.5403 179.249 49.5473C178.04 50.5543 176.429 51.1585 175.422 51.5613L177.235 57.402C178.644 57.2006 181.464 55.9922 183.881 53.7767C186.902 50.9571 189.923 46.3248 192.743 40.2827L201 22.3579L194.152 22.1565Z" fill="#1A1919"/>
</svg>
