<svg width="198" height="40" viewBox="0 0 198 40" fill="none" xmlns="http://www.w3.org/2000/svg">
<path d="M58.2224 10.455C53.9588 10.455 51.393 12.538 51.393 15.9683C51.393 18.6233 52.8414 20.4611 57.519 22.0946L59.0502 22.6259C61.9474 23.6468 62.8168 24.5042 62.8168 25.9339C62.8168 27.731 61.244 28.8337 58.5949 28.8337C56.4426 28.8337 54.7455 28.1802 53.1312 26.669C52.4689 26.0155 51.6 26.0155 50.9378 26.669L50.8961 26.7101C50.3582 27.2407 50.3582 28.3024 50.8961 28.8337C53.0901 30.9164 55.4905 31.7742 58.5949 31.7742C63.2721 31.7742 66.1282 29.6094 66.1282 25.8928C66.1282 22.9933 64.6794 21.3595 60.1677 19.7665L58.6776 19.2357C55.6149 18.1331 54.704 17.2753 54.704 15.8461C54.704 14.3758 56.0701 13.3954 58.2224 13.3954C60.0022 13.3954 61.4095 14.0082 62.8996 15.3154C63.5618 15.9278 64.4724 15.8867 65.1345 15.2332L65.1761 15.1927C65.714 14.6617 65.714 13.5997 65.1345 13.1095C63.1066 11.2717 61.037 10.455 58.2224 10.455ZM102.801 22.9524V23.4426C102.801 26.5463 100.565 28.8332 96.9643 28.8332C94.1497 28.8332 92.4528 27.5673 92.4528 25.2393C92.4528 22.9935 94.2741 21.6865 97.4195 21.6865H102.801V22.9524ZM97.958 10.455C95.3915 10.455 92.9906 11.149 90.6728 13.477C90.1349 14.0489 90.1349 15.1516 90.6728 15.6823L90.7556 15.7645C91.3767 16.3769 92.2873 16.3769 92.9079 15.7234C94.6049 13.9262 96.2609 13.3954 97.9578 13.3954C100.979 13.3954 102.801 15.0699 102.801 17.8471V18.8682H97.4195C92.2045 18.8682 89.1418 21.1962 89.1418 25.2393C89.1418 29.0376 92.0801 31.7742 96.2194 31.7742C99.1581 31.7742 101.435 30.6305 102.842 28.7927V29.691C102.842 30.5078 103.546 31.2024 104.415 31.2024H104.498C105.325 31.2024 106.029 30.5078 106.029 29.6505V17.8471C106.029 13.2322 103.008 10.455 97.958 10.455ZM186.121 22.9524V23.4426C186.121 26.5463 183.886 28.8332 180.284 28.8332C177.47 28.8332 175.773 27.5673 175.773 25.2393C175.773 22.9935 177.594 21.6865 180.74 21.6865H186.121V22.9524ZM181.278 10.455C176.932 10.455 173.538 12.9873 173.538 14.6613C173.538 15.0699 173.662 15.4786 173.952 15.7645L174.035 15.8461C174.324 16.1321 174.655 16.2542 175.069 16.2542C175.773 16.2542 176.27 15.7234 176.932 15.0699C177.76 14.2532 179.084 13.3954 181.278 13.3954C184.299 13.3954 186.121 15.0699 186.121 17.8471V18.8682H180.74C175.525 18.8682 172.462 21.1962 172.462 25.2393C172.462 29.0376 175.4 31.7742 179.54 31.7742C182.478 31.7742 184.755 30.6305 186.162 28.7927V29.691C186.162 30.5078 186.866 31.2024 187.735 31.2024H187.818C188.646 31.2024 189.349 30.5078 189.349 29.6505V17.8471C189.349 13.2322 186.328 10.455 181.278 10.455ZM145.309 22.8706C144.895 26.6279 142.991 28.8337 139.514 28.8337C135.582 28.8337 133.637 25.9743 133.637 21.1145C133.637 16.2542 135.582 13.3954 139.514 13.3954C143.032 13.3954 144.937 15.6828 145.309 19.5215V22.8706ZM148.538 25.8521V1.63327C148.538 0.775882 147.834 0.0812988 146.965 0.0812988H146.882C146.013 0.0812988 145.309 0.775882 145.309 1.63327V13.3549C143.86 11.476 141.708 10.455 138.852 10.455C133.347 10.455 130.326 14.3759 130.326 21.1146C130.326 27.8533 133.347 31.7742 138.852 31.7742C141.915 31.7742 144.192 30.59 145.599 28.4252C146.178 30.1404 147.544 31.4883 148.869 31.4883C149.738 31.4883 150.483 30.8759 150.483 29.977C150.483 28.3435 148.538 28.5882 148.538 25.8521ZM118.529 28.8335C114.597 28.8335 112.652 25.9747 112.652 21.2781V20.9511C112.652 16.2545 114.597 13.3957 118.529 13.3957C122.378 13.3957 124.406 16.2545 124.406 21.1143C124.406 25.9747 122.378 28.8335 118.529 28.8335ZM119.191 10.4547C116.335 10.4547 114.142 11.5168 112.693 13.4362V12.5379C112.693 11.7212 111.989 11.0266 111.161 11.0266H111.079C110.21 11.0266 109.506 11.7212 109.506 12.5379V37.7775C109.506 38.6353 110.21 39.3299 111.079 39.3299H111.161C112.031 39.3299 112.735 38.6353 112.735 37.7775V28.8335C114.183 30.7529 116.335 31.7739 119.192 31.7739C124.696 31.7739 127.718 27.8536 127.718 21.1143C127.718 14.3757 124.696 10.4547 119.191 10.4547ZM161.121 13.3956C164.804 13.3956 166.667 15.5602 166.874 19.3585H155.45C155.864 15.6007 157.727 13.3956 161.121 13.3956ZM169.233 27.1998C168.571 26.5874 167.66 26.5053 166.915 27.0772C165.301 28.3026 163.852 28.8334 161.783 28.8334C157.809 28.8334 155.657 26.3421 155.409 22.1763H168.115C169.316 22.1763 170.185 21.3185 170.185 20.1342C170.185 14.0896 167.247 10.4551 161.121 10.4551C155.16 10.4551 152.056 14.4166 152.056 21.1147C152.056 27.8123 155.409 31.7744 161.783 31.7744C164.804 31.7744 166.915 31.0391 169.151 29.2419C169.771 28.7516 169.812 27.7717 169.274 27.2409L169.233 27.1998ZM72.3366 29.6504V19.5625C72.3366 15.7233 74.282 13.3953 77.9243 13.3953C81.4427 13.3953 82.9743 15.3557 82.9743 19.2766V29.6502C82.9743 30.5081 83.6778 31.2022 84.5471 31.2022H84.6298C85.4991 31.2022 86.2026 30.5081 86.2026 29.6502V19.1949C86.2026 13.273 83.8848 10.4548 78.6698 10.4548C75.8135 10.4548 73.6613 11.5168 72.295 13.4364V12.538C72.295 11.7212 71.5918 11.0267 70.764 11.0267H70.6812C69.8119 11.0267 69.108 11.7212 69.108 12.5379V29.6502C69.108 30.5081 69.8119 31.2022 70.6812 31.2022H70.764C71.6329 31.2022 72.3366 30.5082 72.3366 29.6504ZM196.386 31.4881C197.255 31.4881 198 30.8757 198 29.9768C198 28.3434 196.055 28.5882 196.055 25.8521V1.63327C196.055 0.775882 195.351 0.0812988 194.481 0.0812988H194.399C193.529 0.0812988 192.826 0.775882 192.826 1.63327V26.7101C192.826 29.1197 194.606 31.4881 196.386 31.4881Z" fill="#E40046"/>
<path d="M8.92653 38.3089C9.38179 39.0851 9.87871 39.371 10.7891 39.371H27.7593C28.6701 39.371 29.1665 39.1256 29.7462 38.3905L42.5777 22.0538C42.867 21.6862 42.536 21.0738 42.0809 21.0738H21.5094C20.599 21.0738 20.1021 20.7879 19.6469 20.0123L9.29904 2.36856C9.0508 1.96006 8.38852 2.0421 8.2226 2.45018L0.234612 21.523C-0.137901 22.3808 -0.0551522 22.9527 0.40011 23.7283L8.92653 38.3089Z" fill="#E40046"/>
<path d="M30.2842 17.2351C30.7396 18.0113 31.2364 18.2971 32.1469 18.2971H42.0806C42.5774 18.2971 42.9499 17.6842 42.7018 17.2351L33.2232 1.06214C32.768 0.285938 32.271 0 31.3606 0H12.4032C11.9068 0 11.5343 0.6124 11.7825 1.06214L16.7082 9.47535C17.1635 10.251 17.6599 10.5369 18.5708 10.5369H26.3933L30.2842 17.2351Z" fill="#E40046"/>
</svg>
