<svg width="195" height="60" viewBox="0 0 195 60" fill="none" xmlns="http://www.w3.org/2000/svg">
<path d="M19.2454 56.77L19.1286 56.675C15.8276 52.5265 12.7482 48.2065 9.9031 43.7331C8.61073 41.5682 7.77106 39.8779 7.93169 39.4398C8.35518 38.3081 15.8684 37.6838 18.183 38.7133C18.884 39.0273 18.8694 39.4398 18.8694 39.6808C18.8694 40.7212 18.8146 43.5104 18.8146 43.5104C18.8151 43.6478 18.8426 43.7837 18.8956 43.9104C18.9486 44.0371 19.0261 44.1521 19.1235 44.2489C19.221 44.3457 19.3366 44.4224 19.4636 44.4745C19.5907 44.5266 19.7268 44.5532 19.8642 44.5527C20.0015 44.5522 20.1375 44.5247 20.2642 44.4717C20.3909 44.4187 20.5059 44.3412 20.6027 44.2438C20.6995 44.1463 20.7761 44.0307 20.8283 43.9037C20.8804 43.7766 20.907 43.6405 20.9065 43.5031L20.8955 36.5557C20.8955 35.9497 20.2347 35.8 20.1106 35.7781C18.9022 35.7708 16.4489 35.7635 13.8167 35.7635C8.00471 35.7635 6.70869 36.0008 5.71934 35.3546C3.57999 33.9564 0.0862216 24.5301 0.00225426 19.2292C-0.11457 11.7452 4.3211 5.26876 10.5602 2.05974C13.3274 0.664246 16.3908 -0.0417445 19.4896 0.00190793C22.5883 0.0455604 25.6306 0.837563 28.3574 2.31045C31.0841 3.78334 33.4144 5.89347 35.1498 8.4611C36.8852 11.0287 37.9742 13.9778 38.3242 17.057L38.3279 17.0826C38.5287 19.4045 25.7437 19.8937 23.2138 19.2219C22.8268 19.1161 22.7282 18.7218 22.7282 18.5502L22.7136 11.8182C22.6974 11.5515 22.5799 11.3011 22.3851 11.1182C22.1904 10.9352 21.9331 10.8336 21.6659 10.8341C21.3987 10.8345 21.1418 10.9371 20.9477 11.1207C20.7536 11.3043 20.637 11.5551 20.6217 11.8219L20.6436 20.967C20.6619 21.5438 21.1438 21.6972 21.2752 21.7227H29.2083C33.4432 21.7227 35.2211 22.2119 36.4039 23.11C37.1888 23.7124 37.4955 24.8624 37.229 26.3519C34.856 39.6297 19.8149 56.08 19.249 56.7663L19.2454 56.77ZM60.0389 25.7823C63.8357 27.4069 66.1868 29.2141 66.1868 33.1751C66.1868 37.2202 63.1201 39.8341 58.3778 39.8341C54.5372 39.8341 51.4523 38.0927 49.9154 35.0589L49.6671 34.5661L54.1867 31.9485L54.4788 32.434C55.501 34.0951 56.6328 34.807 58.2865 34.807C59.7103 34.807 60.6632 34.1754 60.6632 33.2372C60.6632 32.1967 59.9695 31.8061 57.8339 30.8715L56.7459 30.4042C53.8472 29.1702 51.1603 27.4507 51.1603 23.2925C51.1603 19.5542 54.0261 16.9439 58.1296 16.9439C61.2364 16.9439 63.3684 18.1486 64.8323 20.7297L65.1061 21.208L60.7253 24.0227L60.4259 23.4824C59.6957 22.1718 59.0021 21.9125 58.1296 21.9125C57.2169 21.9125 56.6255 22.4164 56.6255 23.1976C56.6255 24.0993 57.0599 24.4936 58.951 25.3151L60.0389 25.7823ZM92.0195 26.549L95.2139 17.6521H100.69L92.5744 40.2028H91.3587L86.4339 29.6412C86.1886 29.1055 85.9657 28.5598 85.7658 28.0057C85.5606 28.5606 85.3341 29.1074 85.0867 29.6448L79.9757 40.2028H78.7673L70.5239 17.6521H76.3724L79.596 26.549C79.8004 27.1149 80.0122 27.8085 80.1984 28.4474C80.4174 27.7866 80.6803 27.0711 80.9541 26.4942L85.189 17.4696H86.3608L90.6687 26.4942C90.9425 27.0711 91.2054 27.7866 91.4244 28.451C91.607 27.8085 91.8224 27.1149 92.0268 26.549H92.0195ZM107.072 39.553V17.1921H112.599V39.553H107.072ZM130.714 32.0397V27.0455H140.972V37.0668L140.764 37.2384C139.589 38.2022 136.478 39.8341 132.258 39.8341C125.15 39.8341 120.185 35.1246 120.185 28.3744C120.185 21.7519 124.975 16.9475 131.575 16.9475C135.208 16.9475 137.866 17.9697 139.709 20.0726L140.067 20.4851L136.303 24.2125L135.894 23.7927C134.843 22.7084 133.751 22.0367 131.575 22.0367C128.195 22.0367 125.833 24.6433 125.833 28.3744C125.833 32.2624 128.352 34.7742 132.258 34.7742C133.558 34.7742 134.905 34.5551 135.825 34.1937V32.0397H130.714ZM158.715 32.0397V27.0455H168.974V37.0668L168.766 37.2384C167.59 38.2022 164.48 39.8341 160.263 39.8341C153.151 39.8341 148.186 35.1246 148.186 28.3744C148.186 21.7519 152.976 16.9475 159.577 16.9475C163.209 16.9475 165.871 17.9697 167.711 20.0726L168.072 20.4851L164.304 24.2125L163.896 23.7927C162.844 22.7084 161.753 22.0367 159.577 22.0367C156.196 22.0367 153.834 24.6433 153.834 28.3744C153.834 32.2624 156.357 34.7742 160.263 34.7742C161.559 34.7742 162.906 34.5551 163.826 34.1937V32.0397H158.715ZM189.225 17.1921H195L187.071 32.0726V39.5566H181.514V32.3866L173.07 17.1885H179.232L183.139 24.3184C183.555 25.096 183.993 26.1182 184.325 26.9506C184.643 26.1255 185.063 25.1106 185.479 24.3257L189.225 17.1921Z" fill="#FC8019"/>
<path d="M52.896 46.2767H55.5726V59.2976H52.896V46.2767ZM72.2406 56.6411L71.3954 56.9832V46.2767H74.072V59.2976H71.3954L60.8699 49.0137L61.7152 48.6716V59.2976H59.0386V46.2767H61.7152L72.2406 56.6411ZM76.3133 54.9103H79.0302C79.0838 55.3665 79.2918 55.7824 79.654 56.1581C80.0297 56.5203 80.5194 56.8088 81.1232 57.0235C81.7269 57.2247 82.4045 57.3253 83.1558 57.3253C83.84 57.3253 84.4036 57.2516 84.8463 57.104C85.2891 56.9564 85.6178 56.7484 85.8324 56.4801C86.0471 56.2118 86.1544 55.8898 86.1544 55.5141C86.1544 55.1518 86.0203 54.8768 85.7519 54.689C85.4836 54.4877 85.061 54.3267 84.4841 54.206C83.9071 54.0718 83.1491 53.9376 82.2099 53.8035C81.472 53.6961 80.7743 53.5485 80.1169 53.3607C79.4595 53.1595 78.8759 52.9045 78.366 52.596C77.8696 52.2874 77.4738 51.9117 77.1786 51.4689C76.8969 51.0128 76.756 50.4761 76.756 49.8589C76.756 49.0942 76.9707 48.4234 77.4 47.8464C77.8428 47.2695 78.4935 46.8201 79.3522 46.4981C80.2108 46.176 81.264 46.015 82.5118 46.015C84.3901 46.015 85.8324 46.4176 86.8387 47.2226C87.8584 48.0141 88.3548 49.1076 88.3279 50.5029H85.7117C85.658 49.7114 85.3226 49.1411 84.7054 48.7923C84.1017 48.4435 83.3369 48.2691 82.4112 48.2691C81.5525 48.2691 80.8414 48.3965 80.2779 48.6514C79.7278 48.9064 79.4528 49.3424 79.4528 49.9596C79.4528 50.2011 79.5199 50.4157 79.654 50.6036C79.7882 50.778 80.0163 50.9323 80.3383 51.0664C80.6603 51.2006 81.0963 51.3281 81.6464 51.4488C82.1965 51.5696 82.8808 51.6903 83.6992 51.8111C84.4639 51.9184 85.1549 52.066 85.7721 52.2538C86.4026 52.4282 86.9393 52.663 87.3821 52.9582C87.8382 53.24 88.1871 53.6022 88.4286 54.045C88.6701 54.4877 88.7908 55.0311 88.7908 55.6751C88.7908 56.4667 88.5829 57.1576 88.1669 57.748C87.7644 58.3249 87.1339 58.7744 86.2752 59.0964C85.4299 59.4184 84.3298 59.5794 82.9747 59.5794C82.0087 59.5794 81.1567 59.4787 80.4188 59.2775C79.6809 59.0628 79.0436 58.7811 78.5069 58.4322C77.9702 58.0834 77.5342 57.701 77.1988 57.2851C76.8634 56.8692 76.6219 56.4533 76.4743 56.0373C76.3401 55.6214 76.2864 55.2458 76.3133 54.9103ZM90.0051 46.2767H103.73V48.5106H90.0051V46.2767ZM95.5395 48.2288H98.2161V59.2976H95.5395V48.2288ZM106.883 56.46V54.2261H115.497V56.46H106.883ZM103.643 59.2976L109.761 46.2767H112.659L118.838 59.2976H115.919L110.566 47.5647H111.854L106.541 59.2976H103.643ZM130.854 57.9694H129.586L137.072 46.2767H139.749V59.2976H137.072V49.8388L137.716 50.0199L131.739 59.2976H128.74L122.763 50.0602L123.407 49.8791V59.2976H120.731V46.2767H123.407L130.854 57.9694ZM144.873 56.46V54.2261H153.487V56.46H144.873ZM141.633 59.2976L147.751 46.2767H150.649L156.828 59.2976H153.909L148.556 47.5647H149.844L144.531 59.2976H141.633ZM158.721 59.2976V46.2767H167.556C168.562 46.2767 169.434 46.4176 170.172 46.6993C170.923 46.9676 171.507 47.397 171.923 47.9873C172.339 48.5642 172.547 49.3089 172.547 50.2212C172.547 50.8384 172.439 51.3616 172.225 51.7909C172.01 52.2203 171.708 52.5691 171.319 52.8375C170.943 53.1058 170.507 53.3137 170.011 53.4613C169.514 53.5955 168.984 53.6827 168.421 53.723L168.139 53.562C169.078 53.5754 169.85 53.6559 170.454 53.8035C171.057 53.9376 171.507 54.1925 171.802 54.5682C172.111 54.9305 172.265 55.4738 172.265 56.1983V59.2976H169.588V56.3795C169.588 55.8831 169.501 55.5007 169.327 55.2323C169.152 54.9506 168.837 54.756 168.381 54.6487C167.938 54.5414 167.294 54.4877 166.449 54.4877H161.397V59.2976H158.721ZM161.397 52.3947H167.556C168.307 52.3947 168.877 52.2136 169.266 51.8513C169.669 51.4891 169.87 50.9994 169.87 50.3822C169.87 49.7919 169.669 49.3424 169.266 49.0338C168.877 48.7252 168.307 48.5709 167.556 48.5709H161.397V52.3947ZM174.2 46.2767H187.926V48.5106H174.2V46.2767ZM179.735 48.2288H182.411V59.2976H179.735V48.2288Z" fill="#FC8019"/>
</svg>
