<svg width="40" height="40" viewBox="0 0 40 40" fill="none" xmlns="http://www.w3.org/2000/svg">
<path d="M24.8929 5.32168C24.8929 8.80283 22.6858 11.6261 19.9708 11.6261C17.2642 11.6261 15.0573 8.80284 15.0573 5.32168C15.0573 2.09037 16.9895 0 19.9708 0C22.9607 0 24.8929 2.09037 24.8929 5.32168ZM29.5067 16.7729V20.2873H10.4685V16.7729C10.4685 15.6902 11.1015 14.7075 12.0841 14.2828C13.8831 13.4832 15.7153 12.9669 17.5641 12.7337C18.3052 13.0918 19.1213 13.2917 19.9708 13.2917C20.812 13.2917 21.6283 13.1002 22.3694 12.7421C24.2016 12.9752 26.0504 13.4916 27.8825 14.2828C28.8654 14.7158 29.5067 15.6902 29.5067 16.7729ZM39.975 23.6186V25.4674C39.975 26.3835 39.2255 27.133 38.3094 27.133H1.66562C0.74132 27.133 0 26.3835 0 25.4674V23.6186C0 22.7025 0.74132 21.953 1.66562 21.953H38.3094C39.2255 21.953 39.975 22.7025 39.975 23.6186ZM35.8443 28.7987V39.1672C35.8443 39.6252 35.4696 40 35.0115 40H4.95529C4.4973 40 4.12248 39.6252 4.12248 39.1672V28.7987H35.8443Z" fill="#FF6A00"/>
</svg>
