<svg width="26" height="31" viewBox="0 0 26 31" fill="none" xmlns="http://www.w3.org/2000/svg">
<path d="M25.3508 8.25519C25.3608 8.18883 25.3442 8.11583 25.301 8.04947C25.2977 8.04616 25.2944 8.03952 25.2911 8.0362C25.2878 8.03288 25.2844 8.02625 25.2811 8.02293C25.2778 8.01961 25.2745 8.01298 25.2712 8.00966L25.2612 7.9997C25.2612 7.9997 25.2612 7.99639 25.2579 7.99639L24.2857 7.02422C23.5359 6.27104 22.7827 5.52118 22.0328 4.77132C21.1867 3.92523 20.344 3.08247 19.5012 2.23638L17.6896 0.42477C17.5834 0.318595 17.4806 0.205783 17.3678 0.102926C17.2383 -0.0165209 17.0957 0.00338697 16.9397 0.00338697H2.55631C1.9989 0.00338697 1.43816 -0.0463826 0.930507 0.235645C0.35318 0.560807 0.0081106 1.18127 0.00147466 1.83823V29.0058C0.00147466 29.0622 -0.00184332 29.1153 0.00147466 29.1717C0.0114286 30.0841 0.691613 30.8605 1.59742 30.9767C1.90267 31.0165 2.2212 30.9933 2.52977 30.9933H22.9054C23.2903 30.9933 23.715 31.0298 24.0833 30.907C24.8365 30.6581 25.3442 29.9581 25.3541 29.1651V8.25519H25.3508ZM20.3473 25.1868H5.00498C4.63337 25.1868 4.35797 24.8816 4.34138 24.5232C4.32479 24.1649 4.65659 23.8596 5.00498 23.8596H6.04019V17.6616C6.04019 17.4792 6.01696 17.2569 6.10323 17.0876C6.30894 16.6795 6.81659 16.7592 7.19484 16.7592H8.59835C8.74102 16.7592 8.88701 16.7625 9.02968 16.7658C9.04627 16.7658 9.06618 16.7658 9.08277 16.7691C9.09272 16.7691 9.10268 16.7724 9.11263 16.7724C9.12259 16.7724 9.13254 16.7757 9.14249 16.7757C9.14913 16.7757 9.15577 16.7791 9.1624 16.7791C9.17899 16.7824 9.19558 16.7857 9.21217 16.7923H9.21549C9.23871 16.799 9.26194 16.8089 9.28517 16.8189C9.45106 16.8919 9.56719 17.0345 9.61696 17.2237C9.62692 17.2535 9.64351 17.29 9.64683 17.3265C9.64683 17.3332 9.65014 17.3365 9.65014 17.3398V17.3431C9.65014 17.3531 9.65014 17.363 9.65346 17.3763C9.65346 17.3796 9.65014 17.3829 9.65014 17.3863V23.8563H11.0105V23.8198C11.0105 23.7634 11.0171 23.7037 11.0171 23.6473C11.0171 23.5875 11.0205 23.5278 11.0205 23.4681C11.0238 23.2889 11.0304 23.1098 11.0337 22.9339C11.0337 22.8841 11.0371 22.831 11.0371 22.7813C11.0371 22.7381 11.0371 22.6983 11.0404 22.6552V13.6933C11.0404 13.6104 11.0337 13.5308 11.0337 13.4478C11.0337 13.418 11.0371 13.3848 11.0404 13.3549C11.0437 13.335 11.047 13.3184 11.0503 13.3018L11.0702 13.2322C11.0736 13.2255 11.0769 13.2156 11.0802 13.2089L11.0901 13.189L11.12 13.1293C11.1233 13.126 11.1233 13.1193 11.1266 13.116C11.1333 13.1061 11.1399 13.0928 11.1499 13.0828C11.2395 12.9568 11.3788 12.8705 11.5513 12.8473C11.5679 12.8439 11.5878 12.8439 11.6077 12.8406C11.6675 12.8373 11.7305 12.834 11.7902 12.834H11.8334C12.1685 12.8274 12.5036 12.8373 12.8387 12.8439H13.9038C13.9536 12.8439 14 12.8373 14.0498 12.8406C14.1128 12.8439 14.1725 12.8539 14.2256 12.8738C14.2289 12.8738 14.2356 12.8771 14.2389 12.8771C14.282 12.8904 14.3185 12.9103 14.355 12.9335C14.3683 12.9435 14.3816 12.9501 14.3915 12.9601C14.4048 12.97 14.4148 12.98 14.428 12.9899L14.4446 13.0065L14.4612 13.0231C14.4811 13.0463 14.501 13.0696 14.5176 13.0961C14.5209 13.1027 14.5276 13.1094 14.5309 13.116C14.5442 13.1359 14.5541 13.1558 14.5641 13.1791C14.5674 13.1857 14.5707 13.1923 14.574 13.2023C14.5873 13.2321 14.5972 13.262 14.6039 13.2952C14.6072 13.3051 14.6105 13.3184 14.6138 13.3284C14.6172 13.335 14.6171 13.345 14.6205 13.3516C14.6238 13.3715 14.6271 13.3914 14.6271 13.4146V23.8596H16.0339C16.0339 23.4349 16.0538 23.0102 16.0538 22.5855V15.203C16.0538 15.1201 16.0472 15.0404 16.0704 14.9575C16.16 14.6323 16.4487 14.5361 16.7473 14.5361H18.9803C19.1794 14.5361 19.3519 14.5958 19.4713 14.7153C19.4879 14.7319 19.5045 14.7518 19.5211 14.7717C19.5443 14.8016 19.5642 14.8347 19.5808 14.8712C19.5974 14.9077 19.6107 14.9475 19.624 14.9874C19.6339 15.0139 19.6372 15.0404 19.6406 15.0703V23.8596H20.344C20.7156 23.8596 20.991 24.1649 21.0076 24.5232C21.0242 24.8816 20.6924 25.1868 20.3473 25.1868ZM18.6983 7.90017H18.2603C18.2337 7.90017 18.2039 7.89685 18.1773 7.89685C18.1375 7.88689 18.0977 7.88026 18.0579 7.8703C18.0247 7.86035 17.8787 7.83049 17.9716 7.84376C17.9816 7.84376 17.9915 7.84708 17.9982 7.84708C17.9849 7.84376 17.965 7.83712 17.9517 7.83049C17.9185 7.8139 17.8887 7.79731 17.8555 7.7774L17.8057 7.74422C17.7991 7.73427 17.7161 7.66791 17.6995 7.65464C17.6929 7.648 17.663 7.62146 17.6365 7.59491C17.6332 7.58828 17.6299 7.58164 17.6232 7.575L17.6133 7.5551C17.6 7.53851 17.5901 7.5186 17.5768 7.50201C17.5701 7.49205 17.5436 7.44892 17.5237 7.41242C17.5204 7.40579 17.5171 7.39583 17.5137 7.38256C17.5104 7.36597 17.5038 7.3527 17.4972 7.33611C17.4938 7.32947 17.4938 7.32616 17.4905 7.31952C17.4772 7.2797 17.4905 7.23989 17.4573 7.20007V7.15694C17.454 7.14035 17.4507 7.1304 17.4507 7.12376C17.4507 7.12708 17.454 7.14035 17.4573 7.1503C17.4573 7.12708 17.454 7.10717 17.454 7.0939C17.454 7.03749 17.454 6.9844 17.4573 6.928V3.61998C17.4573 3.17205 17.464 2.72413 17.4673 2.2762L19.0068 3.81574L23.0913 7.90017H18.6983Z" fill="#FF6A00"/>
</svg>
