<svg width="270" height="65" viewBox="0 0 270 65" fill="none" xmlns="http://www.w3.org/2000/svg">
<path d="M237.168 21.6043C238.672 21.6043 239.91 20.8225 240.077 19.8124L241.562 3.02198C241.562 1.36241 239.618 0 237.173 0C234.731 0 232.789 1.3624 232.789 3.02227L234.273 19.8124C234.436 20.8222 235.674 21.6043 237.174 21.6043H237.168ZM228.094 26.8488C228.848 25.5481 228.791 24.0862 227.996 23.4368L214.195 13.7558C212.761 12.9249 210.609 13.9251 209.388 16.0427C208.163 18.1576 208.38 20.5196 209.811 21.3509L225.093 28.4661C226.048 28.8202 227.35 28.1387 228.099 26.8389L228.094 26.8488ZM246.251 26.8398C247.004 28.1396 248.3 28.8214 249.256 28.467L264.538 21.3518C265.978 20.5208 266.182 18.1585 264.969 16.0436C263.742 13.9281 261.586 12.9258 260.155 13.7567L246.354 23.4376C245.565 24.0862 245.506 25.5493 246.256 26.8497L246.251 26.8398ZM237.168 42.5781C238.672 42.5781 239.91 43.3534 240.077 44.3644L241.562 61.1524C241.562 62.817 239.618 64.1764 237.173 64.1764C234.731 64.1764 232.789 62.817 232.789 61.1524L234.273 44.3644C234.436 43.3534 235.674 42.5781 237.174 42.5781H237.168ZM246.251 37.3325C247.004 36.0291 248.3 35.3533 249.256 35.7116L264.538 42.8219C265.978 43.6538 266.182 46.0183 264.969 48.135C263.742 50.2436 261.586 51.2486 260.155 50.4188L246.354 40.7469C245.565 40.0932 245.506 38.6293 246.256 37.3298H246.25M228.094 37.3307C228.848 38.6293 228.791 40.0932 227.996 40.7481L214.195 50.4197C212.761 51.2495 210.609 50.2445 209.388 48.1359C208.163 46.0192 208.38 43.6547 209.811 42.8228L225.093 35.7125C226.048 35.3542 227.35 36.03 228.099 37.3337H228.094" fill="#FDBB30"/>
<path d="M150.117 40.7165C150.117 41.2317 150.071 41.7631 149.93 42.2299C149.344 44.1683 147.337 45.8075 144.826 45.8075C142.733 45.8075 141.07 44.6183 141.07 42.1064C141.07 38.2622 145.301 37.2005 150.118 37.2272L150.117 40.7162V40.7165ZM157.672 34.0171C157.672 27.6781 154.963 22.1003 145.811 22.1003C141.113 22.1003 137.384 23.4198 135.349 24.5959L136.839 29.692C138.699 28.5178 141.664 27.5457 144.469 27.5457C149.112 27.5328 149.872 30.1746 149.872 31.8653V32.2656C139.752 32.2506 133.356 35.7545 133.356 42.8925C133.356 47.2541 136.614 51.3392 142.277 51.3392C145.757 51.3392 148.672 49.9501 150.416 47.7229H150.588C150.588 47.7229 151.743 52.5584 158.115 50.7083C157.782 48.6974 157.673 46.5507 157.673 43.9694L157.672 34.0171M0 13.4675C0 13.4675 6.61281 40.564 7.66876 44.9616C8.90056 50.0945 11.1206 51.9842 17.5183 50.7083L21.6472 33.9095C22.6941 29.7349 23.3948 26.7584 24.0694 22.516H24.1869C24.6605 26.8034 25.3324 29.7478 26.1939 33.9233C26.1939 33.9233 27.8738 41.5502 28.7357 45.5547C29.5984 49.558 31.9997 52.0827 38.2671 50.7083L48.1059 13.4663H40.1645L36.8041 29.5686C35.9006 34.2537 35.0816 37.9189 34.4495 42.2041H34.3372C33.7629 37.9566 33.0317 34.441 32.1141 29.8751L28.6183 13.4663H20.3426L16.6011 29.4614C15.5421 34.3232 14.5491 38.2475 13.92 42.3901H13.8056C13.1597 38.4892 12.3 33.5552 11.3695 28.8512C11.3695 28.8512 9.14829 17.41 8.36704 13.4663L0 13.4675ZM63.1277 40.7165C63.1277 41.2317 63.0819 41.7631 62.9387 42.2299C62.3545 44.1683 60.3463 45.8075 57.8353 45.8075C55.7414 45.8075 54.0809 44.6183 54.0809 42.1064C54.0809 38.2622 58.311 37.2005 63.1286 37.2272L63.1277 40.7162V40.7165ZM70.6817 34.0171C70.6817 27.6781 67.9731 22.1003 58.8227 22.1003C54.1235 22.1003 50.3918 23.4198 48.3578 24.5959L49.8466 29.692C51.7063 28.5178 54.6708 27.5457 57.4771 27.5457C62.1227 27.5328 62.8829 30.1746 62.8829 31.8653V32.2656C52.7593 32.2506 46.3655 35.7545 46.3655 42.8925C46.3655 47.2541 49.6217 51.3392 55.281 51.3392C58.7658 51.3392 61.6787 49.9501 63.4252 47.7229H63.5953C63.5953 47.7229 64.7528 52.5584 71.1233 50.7083C70.7902 48.6974 70.6817 46.5507 70.6817 43.9694V34.0171ZM83.289 42.8029V13.4675H75.7251V50.7095H83.289V42.8029ZM182.239 13.4675V40.9402C182.239 44.7297 182.953 47.3817 184.477 49.0047C185.811 50.4238 188.004 51.3422 190.635 51.3422C192.872 51.3422 195.071 50.9153 196.109 50.5304L196.011 44.6212C195.239 44.81 194.352 44.9627 193.139 44.9627C190.561 44.9627 189.699 43.3116 189.699 39.9113V29.3997H196.286V22.2731H189.699V13.4675H182.239ZM162.715 22.732V50.7095H170.518V36.3845C170.518 35.6102 170.565 34.9355 170.687 34.3185C171.264 31.3163 173.559 29.3997 176.855 29.3997C177.759 29.3997 178.405 29.4979 179.106 29.5974V22.2731C178.518 22.156 178.119 22.1012 177.387 22.1012C174.476 22.1012 171.163 23.98 169.773 28.0103H169.562V22.732H162.715ZM88.5853 22.732V50.7095H96.1872V34.3035C96.1872 33.5336 96.2777 32.7194 96.5443 32.0136C97.1743 30.3619 98.7116 28.4273 101.165 28.4273C104.234 28.4273 105.667 31.0206 105.667 34.7633V50.7074H113.263V34.1016C113.263 33.367 113.363 32.4815 113.58 31.8339C114.204 29.9538 115.86 28.4252 118.141 28.4252C121.251 28.4252 122.743 30.973 122.743 35.3783V50.7065H130.344V34.2277C130.344 25.5383 125.932 22.0985 120.95 22.0985C118.746 22.0985 117.004 22.6506 115.429 23.6157C114.107 24.4305 112.92 25.585 111.885 27.1026H111.773C110.572 24.0875 107.745 22.1 104.062 22.1C99.3308 22.1 97.2042 24.4985 95.9143 26.5326H95.8011V22.7311H88.5853" fill="#1A75CF"/>
<path d="M268.371 49.3491H268.485C268.638 49.3491 268.735 49.2862 268.735 49.1927C268.735 49.0864 268.644 49.0286 268.502 49.0286C268.454 49.0286 268.404 49.0385 268.371 49.0385V49.3518V49.3488L268.371 49.3491ZM268.353 50.1034H267.949V48.7868C268.041 48.7689 268.254 48.7368 268.528 48.7368C268.826 48.7368 268.959 48.7787 269.057 48.8446C269.139 48.9022 269.199 49.0004 269.199 49.1331C269.199 49.2682 269.075 49.3827 268.891 49.4327V49.4495C269.041 49.4893 269.122 49.5978 269.165 49.788C269.206 49.9779 269.231 50.0555 269.256 50.1043H268.799C268.759 50.0555 268.735 49.9389 268.708 49.8227C268.683 49.6894 268.62 49.6226 268.485 49.6226H268.352L268.353 50.1034ZM268.52 48.3579C267.94 48.3579 267.502 48.8306 267.502 49.4333C267.502 50.0204 267.941 50.4994 268.536 50.4994C269.133 50.5093 269.572 50.0207 269.572 49.4237C269.572 48.8294 269.133 48.3579 268.529 48.3579H268.52ZM268.546 48.0005C269.355 48.0005 270 48.6374 270 49.4234C270 50.2187 269.355 50.8565 268.535 50.8565C267.715 50.8565 267.062 50.2178 267.062 49.4237C267.062 48.6374 267.716 48.0008 268.535 48.0008H268.544" fill="#FDBB30"/>
</svg>
