<svg width="63" height="11" viewBox="0 0 63 11" fill="none" xmlns="http://www.w3.org/2000/svg">
<path d="M4.92643 0.33281C5.11312 -0.110612 5.74896 -0.110611 5.93565 0.332811L7.03748 2.94997C7.11623 3.1369 7.29418 3.26463 7.49845 3.28081L10.3584 3.50732C10.843 3.5457 11.0395 4.14311 10.6703 4.45554L8.4913 6.29952C8.33568 6.43126 8.26767 6.63794 8.31522 6.83484L8.98094 9.592C9.09373 10.0591 8.57935 10.4284 8.16448 10.1781L5.71591 8.70052C5.54102 8.59498 5.32106 8.59498 5.14617 8.70052L2.69759 10.1781C2.28273 10.4284 1.76832 10.0591 1.88111 9.592L2.54684 6.83484C2.59439 6.63794 2.52642 6.43126 2.37079 6.29952L0.191749 4.45554C-0.177442 4.14311 0.0190455 3.5457 0.503615 3.50732L3.36363 3.28081C3.56792 3.26463 3.74587 3.1369 3.82457 2.94997L4.92643 0.33281Z" fill="black"/>
<path d="M17.9609 0.332566C18.1475 -0.110856 18.7834 -0.110855 18.9701 0.332567L20.0719 2.94972C20.1507 3.13666 20.3286 3.26438 20.5329 3.28056L23.3929 3.50708C23.8774 3.54546 24.0739 4.14287 23.7047 4.4553L21.5257 6.29928C21.3701 6.43101 21.3021 6.63769 21.3496 6.8346L22.0154 9.59175C22.1282 10.0589 21.6138 10.4281 21.1989 10.1778L18.7503 8.70028C18.5754 8.59474 18.3555 8.59474 18.1806 8.70028L15.732 10.1778C15.3171 10.4281 14.8027 10.0589 14.9155 9.59175L15.5813 6.8346C15.6288 6.63769 15.5608 6.43101 15.4052 6.29928L13.2262 4.4553C12.857 4.14287 13.0535 3.54546 13.538 3.50708L16.3981 3.28056C16.6023 3.26438 16.7803 3.13666 16.859 2.94972L17.9609 0.332566Z" fill="black"/>
<path d="M30.9953 0.332566C31.182 -0.110856 31.8178 -0.110855 32.0045 0.332567L33.1063 2.94972C33.1851 3.13666 33.363 3.26438 33.5673 3.28056L36.4273 3.50708C36.9119 3.54546 37.1083 4.14287 36.7391 4.4553L34.5602 6.29928C34.4045 6.43101 34.3365 6.63769 34.3841 6.8346L35.0498 9.59175C35.1626 10.0589 34.6482 10.4281 34.2333 10.1778L31.7848 8.70028C31.6099 8.59474 31.3899 8.59474 31.215 8.70028L28.7664 10.1778C28.3516 10.4281 27.8372 10.0589 27.95 9.59175L28.6157 6.8346C28.6632 6.63769 28.5953 6.43101 28.4396 6.29928L26.2606 4.4553C25.8914 4.14287 26.0879 3.54546 26.5725 3.50708L29.4325 3.28056C29.6368 3.26438 29.8147 3.13666 29.8934 2.94972L30.9953 0.332566Z" fill="black"/>
<path d="M44.0299 0.332566C44.2166 -0.110856 44.8525 -0.110855 45.0392 0.332567L46.141 2.94972C46.2197 3.13666 46.3977 3.26438 46.602 3.28056L49.462 3.50708C49.9465 3.54546 50.143 4.14287 49.7738 4.4553L47.5948 6.29928C47.4392 6.43101 47.3712 6.63769 47.4187 6.8346L48.0845 9.59175C48.1972 10.0589 47.6829 10.4281 47.268 10.1778L44.8194 8.70028C44.6445 8.59474 44.4246 8.59474 44.2497 8.70028L41.8011 10.1778C41.3862 10.4281 40.8718 10.0589 40.9846 9.59175L41.6504 6.8346C41.6979 6.63769 41.6299 6.43101 41.4743 6.29928L39.2953 4.4553C38.9261 4.14287 39.1226 3.54546 39.6071 3.50708L42.4671 3.28056C42.6714 3.26438 42.8494 3.13666 42.9281 2.94972L44.0299 0.332566Z" fill="black"/>
<path d="M57.0644 0.332566C57.2511 -0.110856 57.8869 -0.110855 58.0736 0.332567L59.1754 2.94972C59.2542 3.13666 59.4321 3.26438 59.6364 3.28056L62.4964 3.50708C62.9809 3.54546 63.1774 4.14287 62.8082 4.4553L60.6292 6.29928C60.4736 6.43101 60.4056 6.63769 60.4532 6.8346L61.1189 9.59175C61.2317 10.0589 60.7173 10.4281 60.3024 10.1778L57.8539 8.70028C57.679 8.59474 57.459 8.59474 57.2841 8.70028L54.8355 10.1778C54.4207 10.4281 53.9063 10.0589 54.0191 9.59175L54.6848 6.8346C54.7323 6.63769 54.6644 6.43101 54.5087 6.29928L52.3297 4.4553C51.9605 4.14287 52.157 3.54546 52.6416 3.50708L55.5016 3.28056C55.7059 3.26438 55.8838 3.13666 55.9625 2.94972L57.0644 0.332566Z" fill="black"/>
</svg>
