<svg width="38" height="38" viewBox="0 0 38 38" fill="none" xmlns="http://www.w3.org/2000/svg">
<path d="M34.1659 0H3.10599C1.39148 0 0 1.39148 0 3.10599V21.7419C0 23.4564 1.39148 24.8479 3.10599 24.8479H9.34282C9.68448 24.8479 9.96402 24.5684 9.96402 24.2267C9.96402 23.8851 9.68448 23.6055 9.34282 23.6055H4.96958V1.2424H32.3023V23.6055H27.9291C27.5874 23.6055 27.3079 23.8851 27.3079 24.2267C27.3079 24.5684 27.5874 24.8479 27.9291 24.8479H34.1659C35.8804 24.8479 37.2719 23.4564 37.2719 21.7419V3.10599C37.2719 1.39148 35.8804 0 34.1659 0Z" fill="black"/>
<path d="M26.9163 29.9979C26.6741 29.7556 26.2765 29.7556 26.0342 29.9979L25.3509 30.6874L24.3197 29.6563C25.4255 28.3579 26.0902 26.6807 26.0902 24.8482C26.0902 20.7358 22.7481 17.3938 18.6358 17.3938C14.5234 17.3938 11.1814 20.7358 11.1814 24.8482C11.1814 28.9605 14.5234 32.3026 18.6358 32.3026C20.4683 32.3026 22.1455 31.6379 23.4438 30.5321L24.475 31.5633L23.7855 32.2466C23.6737 32.3647 23.6054 32.52 23.6054 32.6877C23.6054 32.8554 23.6737 33.0107 23.7855 33.1287L27.7487 37.092C27.873 37.21 28.0283 37.2721 28.1898 37.2721C28.3513 37.2721 28.5066 37.21 28.6309 37.092L30.8796 34.8433C30.9914 34.7252 31.0597 34.5699 31.0597 34.4022C31.0597 34.2345 30.9914 34.0792 30.8796 33.9612L26.9163 29.9979ZM18.6358 31.0602C15.213 31.0602 12.4238 28.271 12.4238 24.8482C12.4238 21.4254 15.213 18.6362 18.6358 18.6362C22.0586 18.6362 24.8478 21.4254 24.8478 24.8482C24.8478 28.271 22.0586 31.0602 18.6358 31.0602Z" fill="black"/>
<path d="M22.3132 22.1271C22.22 21.8972 21.9902 21.7419 21.7417 21.7419H19.2569C18.9153 21.7419 18.6357 22.0215 18.6357 22.3631C18.6357 22.7048 18.9153 22.9843 19.2569 22.9843H20.2446L18.6357 24.5932L17.8344 23.7919C17.5921 23.5496 17.2008 23.5496 16.9585 23.7919L14.4737 26.2767C14.2314 26.519 14.2314 26.9103 14.4737 27.1526C14.5979 27.2768 14.7532 27.3327 14.9147 27.3327C15.0763 27.3327 15.2316 27.2706 15.3558 27.1526L17.3995 25.1088L18.2009 25.9102C18.4431 26.1524 18.8345 26.1524 19.0768 25.9102L21.1205 23.8664V24.8541C21.1205 25.1958 21.4001 25.4753 21.7417 25.4753C22.0834 25.4753 22.3629 25.1958 22.3629 24.8541V22.3694C22.3629 22.2886 22.3505 22.2078 22.3194 22.1333L22.3132 22.1271Z" fill="black"/>
<path d="M17.3933 6.21216H14.9086C14.5655 6.21216 14.2874 6.49028 14.2874 6.83336V15.5301C14.2874 15.8732 14.5655 16.1513 14.9086 16.1513H17.3933C17.7364 16.1513 18.0145 15.8732 18.0145 15.5301V6.83336C18.0145 6.49028 17.7364 6.21216 17.3933 6.21216Z" fill="black"/>
<path d="M22.3628 8.69702H19.878C19.535 8.69702 19.2568 8.97514 19.2568 9.31822V15.5302C19.2568 15.8733 19.535 16.1514 19.878 16.1514H22.3628C22.7059 16.1514 22.984 15.8733 22.984 15.5302V9.31822C22.984 8.97514 22.7059 8.69702 22.3628 8.69702Z" fill="black"/>
<path d="M27.3326 3.72729H24.8478C24.5047 3.72729 24.2266 4.00541 24.2266 4.34849V15.5301C24.2266 15.8731 24.5047 16.1513 24.8478 16.1513H27.3326C27.6756 16.1513 27.9538 15.8731 27.9538 15.5301V4.34849C27.9538 4.00541 27.6756 3.72729 27.3326 3.72729Z" fill="black"/>
<path d="M12.4239 9.93921H9.93907C9.59599 9.93921 9.31787 10.2173 9.31787 10.5604V15.53C9.31787 15.8731 9.59599 16.1512 9.93907 16.1512H12.4239C12.7669 16.1512 13.0451 15.8731 13.0451 15.53V10.5604C13.0451 10.2173 12.7669 9.93921 12.4239 9.93921Z" fill="black"/>
</svg>
