<svg width="47" height="38" viewBox="0 0 47 38" fill="none" xmlns="http://www.w3.org/2000/svg">
<path d="M1.17226 37.5124H26.962C27.2729 37.5124 27.5711 37.3889 27.7909 37.169C28.0108 36.9492 28.1343 36.651 28.1343 36.3401V32.8233C28.1344 30.0414 27.1451 27.35 25.3434 25.2304C23.5416 23.1108 21.0447 21.701 18.299 21.2531C19.8452 20.4713 21.1445 19.2764 22.0529 17.801C22.9613 16.3256 23.4432 14.6275 23.4452 12.8949V9.37809C23.4452 6.89087 22.4572 4.50551 20.6984 2.74678C18.9397 0.988046 16.5544 0 14.0671 0C11.5799 0 9.19456 0.988046 7.43582 2.74678C5.67709 4.50551 4.68904 6.89087 4.68904 9.37809V12.8949C4.69103 14.6275 5.17296 16.3256 6.08135 17.801C6.98975 19.2764 8.28911 20.4713 9.83527 21.2531C7.0896 21.701 4.59271 23.1108 2.79092 25.2304C0.989122 27.35 -0.000126827 30.0414 1.21958e-08 32.8233V36.3401C1.21958e-08 36.651 0.123506 36.9492 0.343348 37.169C0.563189 37.3889 0.861358 37.5124 1.17226 37.5124ZM17.5839 15.2394C17.5839 16.1721 17.2134 17.0666 16.5539 17.7261C15.8944 18.3857 14.9998 18.7562 14.0671 18.7562C13.1344 18.7562 12.2399 18.3857 11.5804 17.7261C10.9209 17.0666 10.5504 16.1721 10.5504 15.2394H17.5839Z" fill="black"/>
<path d="M37.5122 2.90534e-06H35.1677C33.3118 -0.00145761 31.4972 0.547766 29.9537 1.57814C28.4101 2.60852 27.2069 4.07372 26.4965 5.78825C25.7861 7.50278 25.6004 9.38955 25.9628 11.2097C26.3253 13.0298 27.2197 14.7015 28.5327 16.0131L25.7896 18.7562H37.5122C39.9994 18.7562 42.3848 17.7681 44.1435 16.0094C45.9023 14.2507 46.8903 11.8653 46.8903 9.37809C46.8903 6.89087 45.9023 4.50551 44.1435 2.74678C42.3848 0.988048 39.9994 2.90534e-06 37.5122 2.90534e-06ZM41.029 12.8949H31.6509C31.34 12.8949 31.0418 12.7714 30.822 12.5515C30.6022 12.3317 30.4787 12.0335 30.4787 11.7226C30.4787 11.4117 30.6022 11.1135 30.822 10.8937C31.0418 10.6739 31.34 10.5504 31.6509 10.5504H41.029C41.3399 10.5504 41.6381 10.6739 41.8579 10.8937C42.0778 11.1135 42.2013 11.4117 42.2013 11.7226C42.2013 12.0335 42.0778 12.3317 41.8579 12.5515C41.6381 12.7714 41.3399 12.8949 41.029 12.8949ZM41.029 8.20583H31.6509C31.34 8.20583 31.0418 8.08233 30.822 7.86248C30.6022 7.64264 30.4787 7.34447 30.4787 7.03357C30.4787 6.72267 30.6022 6.4245 30.822 6.20466C31.0418 5.98482 31.34 5.86131 31.6509 5.86131H41.029C41.3399 5.86131 41.6381 5.98482 41.8579 6.20466C42.0778 6.4245 42.2013 6.72267 42.2013 7.03357C42.2013 7.34447 42.0778 7.64264 41.8579 7.86248C41.6381 8.08233 41.3399 8.20583 41.029 8.20583Z" fill="black"/>
</svg>
