<svg width="50" height="50" viewBox="0 0 50 50" fill="none" xmlns="http://www.w3.org/2000/svg">
<path d="M25 50C38.8073 50 50 38.8073 50 25C50 11.1927 38.8073 0 25 0C11.1927 0 0 11.1927 0 25C0 38.8073 11.1927 50 25 50Z" fill="#25D366"/>
<path fill-rule="evenodd" clip-rule="evenodd" d="M25.824 38.9092H25.8177C23.3302 38.9082 20.8855 38.2842 18.7136 37.0988L10.8334 39.1665L12.9427 31.4634C11.6395 29.2034 10.955 26.6399 10.9584 24.0311C10.9615 15.8353 17.6303 9.1665 25.823 9.1665C29.8011 9.16859 33.5334 10.7165 36.3396 13.5259C37.724 14.9044 38.8213 16.5437 39.568 18.3491C40.3146 20.1544 40.6959 22.0899 40.6896 24.0436C40.6865 32.2373 34.0209 38.905 25.825 38.9082L25.824 38.9092ZM19.0792 34.4082L19.5303 34.6759C21.4341 35.8034 23.6061 36.3981 25.8188 36.3978H25.824C32.6344 36.3978 38.1771 30.8561 38.1803 24.0425C38.1854 22.4188 37.8685 20.8101 37.2479 19.3096C36.6273 17.8091 35.7153 16.4466 34.5646 15.3009C33.4207 14.149 32.0595 13.2356 30.5601 12.6135C29.0606 11.9915 27.4526 11.6731 25.8292 11.6769C19.0136 11.6769 13.4709 17.2196 13.4677 24.0321C13.4677 26.3665 14.1198 28.6405 15.3573 30.6082L15.6511 31.0748L14.4021 35.6353L19.0792 34.4082ZM32.8042 27.2436C33.0646 27.3686 33.2386 27.453 33.3136 27.578C33.4063 27.7332 33.4063 28.4769 33.0969 29.3446C32.7875 30.2123 31.3032 31.004 30.5896 31.1103C29.95 31.2061 29.1396 31.2457 28.25 30.9644C27.5308 30.7409 26.8239 30.4794 26.1323 30.1811C22.65 28.6769 20.2969 25.3019 19.8521 24.6644C19.8209 24.6196 19.8 24.5884 19.7865 24.5728L19.7844 24.5686C19.5875 24.3061 18.2709 22.5478 18.2709 20.73C18.2709 19.0186 19.1105 18.1217 19.498 17.7092L19.5709 17.6311C19.6949 17.4896 19.8468 17.3753 20.0171 17.2954C20.1874 17.2154 20.3724 17.1715 20.5605 17.1665C20.8084 17.1665 21.0563 17.1686 21.273 17.179C21.3 17.1811 21.3271 17.1811 21.3563 17.18C21.5719 17.18 21.8428 17.178 22.1084 17.8175C22.2115 18.0634 22.3605 18.428 22.5188 18.8134C22.8386 19.5915 23.1917 20.4509 23.2542 20.5748C23.3469 20.7613 23.4084 20.978 23.2855 21.2259L23.2334 21.3321C23.1396 21.5217 23.0709 21.6613 22.9136 21.8457C22.8511 21.9186 22.7875 21.9957 22.723 22.0748C22.5948 22.23 22.4678 22.3853 22.3563 22.4967C22.1698 22.6811 21.9771 22.8821 22.1928 23.254C22.4105 23.6259 23.1552 24.8425 24.2594 25.8269C25.4469 26.8863 26.4782 27.3342 27.0011 27.5603C27.1032 27.605 27.1865 27.6405 27.2469 27.6707C27.6178 27.8571 27.8344 27.8269 28.0511 27.578C28.2678 27.33 28.9803 26.4936 29.2282 26.1217C29.475 25.7498 29.723 25.8123 30.0636 25.9353C30.4042 26.0603 32.2303 26.9582 32.6011 27.1436L32.8042 27.2436Z" fill="#FDFDFD"/>
</svg>
