<svg width="31" height="38" viewBox="0 0 31 38" fill="none" xmlns="http://www.w3.org/2000/svg">
<path d="M30.4797 9.92537C30.4917 9.84558 30.4718 9.75782 30.4199 9.67803C30.4159 9.67405 30.4119 9.66607 30.4079 9.66208C30.4039 9.65809 30.4 9.65011 30.396 9.64612C30.392 9.64213 30.388 9.63415 30.384 9.63016L30.372 9.6182C30.372 9.6182 30.372 9.61421 30.368 9.61421L29.1992 8.44535C28.2976 7.53979 27.3921 6.63822 26.4905 5.73664C25.4732 4.71938 24.4599 3.70611 23.4467 2.68885L21.2685 0.510709C21.1409 0.383052 21.0172 0.247417 20.8816 0.12375C20.726 -0.0198634 20.5545 0.00407222 20.367 0.00407222H3.07351C2.40331 0.00407222 1.72912 -0.0557667 1.11877 0.283321C0.424635 0.674268 0.00975153 1.42026 0.00177301 2.21013V34.8742C0.00177301 34.942 -0.00221626 35.0059 0.00177301 35.0737C0.0137408 36.1707 0.83154 37.1042 1.92061 37.2438C2.28762 37.2917 2.67059 37.2638 3.04159 37.2638H27.5397C28.0024 37.2638 28.513 37.3077 28.9558 37.1601C29.8614 36.8609 30.4718 36.0191 30.4837 35.0657V9.92537H30.4797ZM24.4639 30.2826H6.01758C5.57078 30.2826 5.23968 29.9156 5.21973 29.4847C5.19978 29.0539 5.59871 28.6869 6.01758 28.6869H7.26223V21.2349C7.26223 21.0155 7.23431 20.7482 7.33803 20.5448C7.58536 20.0541 8.19572 20.1498 8.6505 20.1498H10.338C10.5095 20.1498 10.685 20.1538 10.8566 20.1578C10.8765 20.1578 10.9004 20.1578 10.9204 20.1618C10.9324 20.1618 10.9443 20.1658 10.9563 20.1658C10.9683 20.1658 10.9802 20.1698 10.9922 20.1698C11.0002 20.1698 11.0082 20.1738 11.0161 20.1738C11.0361 20.1778 11.056 20.1818 11.076 20.1897H11.08C11.1079 20.1977 11.1358 20.2097 11.1637 20.2217C11.3632 20.3094 11.5028 20.481 11.5627 20.7083C11.5746 20.7442 11.5946 20.7881 11.5986 20.832C11.5986 20.84 11.6025 20.844 11.6025 20.848V20.852C11.6025 20.8639 11.6025 20.8759 11.6065 20.8919C11.6065 20.8958 11.6025 20.8998 11.6025 20.9038V28.6829H13.2381V28.639C13.2381 28.5712 13.2461 28.4994 13.2461 28.4316C13.2461 28.3598 13.2501 28.2879 13.2501 28.2161C13.2541 28.0007 13.2621 27.7853 13.2661 27.5739C13.2661 27.514 13.2701 27.4502 13.2701 27.3904C13.2701 27.3385 13.2701 27.2906 13.2741 27.2388V16.4638C13.2741 16.364 13.2661 16.2683 13.2661 16.1686C13.2661 16.1327 13.2701 16.0928 13.2741 16.0569C13.278 16.0329 13.282 16.013 13.286 15.993L13.31 15.9093C13.3139 15.9013 13.3179 15.8893 13.3219 15.8813L13.3339 15.8574L13.3698 15.7856C13.3738 15.7816 13.3738 15.7736 13.3778 15.7696C13.3858 15.7577 13.3937 15.7417 13.4057 15.7297C13.5134 15.5782 13.681 15.4744 13.8884 15.4465C13.9083 15.4425 13.9323 15.4425 13.9562 15.4385C14.028 15.4345 14.1038 15.4306 14.1756 15.4306H14.2275C14.6304 15.4226 15.0333 15.4345 15.4362 15.4425H16.7168C16.7766 15.4425 16.8325 15.4345 16.8923 15.4385C16.9681 15.4425 17.0399 15.4545 17.1037 15.4784C17.1077 15.4784 17.1157 15.4824 17.1197 15.4824C17.1716 15.4984 17.2154 15.5223 17.2593 15.5502C17.2753 15.5622 17.2912 15.5702 17.3032 15.5821C17.3192 15.5941 17.3311 15.6061 17.3471 15.618L17.367 15.638L17.387 15.6579C17.4109 15.6859 17.4349 15.7138 17.4548 15.7457C17.4588 15.7537 17.4668 15.7617 17.4708 15.7696C17.4867 15.7936 17.4987 15.8175 17.5107 15.8454C17.5146 15.8534 17.5186 15.8614 17.5226 15.8734C17.5386 15.9093 17.5505 15.9452 17.5585 15.9851C17.5625 15.997 17.5665 16.013 17.5705 16.025C17.5745 16.0329 17.5745 16.0449 17.5785 16.0529C17.5825 16.0768 17.5864 16.1007 17.5864 16.1287V28.6869H19.2779C19.2779 28.1762 19.3018 27.6656 19.3018 27.155V18.2789C19.3018 18.1792 19.2938 18.0834 19.3218 17.9837C19.4295 17.5927 19.7766 17.477 20.1356 17.477H22.8204C23.0597 17.477 23.2672 17.5489 23.4108 17.6925C23.4307 17.7124 23.4507 17.7363 23.4706 17.7603C23.4985 17.7962 23.5225 17.8361 23.5424 17.88C23.5624 17.9238 23.5783 17.9717 23.5943 18.0196C23.6062 18.0515 23.6102 18.0834 23.6142 18.1193V28.6869H24.4599C24.9067 28.6869 25.2379 29.0539 25.2578 29.4847C25.2777 29.9156 24.8788 30.2826 24.4639 30.2826ZM22.4813 9.49852H21.9547C21.9228 9.49852 21.8869 9.49453 21.855 9.49453C21.8071 9.48256 21.7592 9.47458 21.7113 9.46262C21.6715 9.45065 21.4959 9.41474 21.6076 9.4307C21.6196 9.4307 21.6316 9.43469 21.6395 9.43469C21.6236 9.4307 21.5996 9.42272 21.5837 9.41474C21.5438 9.3948 21.5079 9.37485 21.468 9.35091L21.4082 9.31102C21.4002 9.29905 21.3004 9.21927 21.2805 9.20331C21.2725 9.19533 21.2366 9.16342 21.2047 9.13151C21.2007 9.12353 21.1967 9.11555 21.1887 9.10757L21.1768 9.08363C21.1608 9.06369 21.1489 9.03975 21.1329 9.01981C21.1249 9.00784 21.093 8.95598 21.0691 8.9121C21.0651 8.90412 21.0611 8.89215 21.0571 8.87619C21.0531 8.85625 21.0451 8.84029 21.0372 8.82034C21.0332 8.81236 21.0332 8.80838 21.0292 8.8004C21.0132 8.75253 21.0292 8.70465 20.9893 8.65678V8.60492C20.9853 8.58498 20.9813 8.57301 20.9813 8.56503C20.9813 8.56902 20.9853 8.58498 20.9893 8.59694C20.9893 8.56902 20.9853 8.54508 20.9853 8.52913C20.9853 8.46131 20.9853 8.39748 20.9893 8.32966V4.35237C20.9893 3.81382 20.9973 3.27527 21.0013 2.73672L22.8523 4.58774L27.7631 9.49852H22.4813Z" fill="black"/>
</svg>
